<svg width="11" height="12" viewBox="0 0 11 12" fill="none" xmlns="http://www.w3.org/2000/svg">
<path d="M1 2.04C1 2.00286 1 1.98429 1.00049 1.96859C1.01708 1.44095 1.44095 1.01708 1.96859 1.00049C1.98429 1 2.00286 1 2.04 1H9.06526C9.1024 1 9.12097 1 9.13667 1.00049C9.66432 1.01708 10.0882 1.44095 10.1048 1.96859C10.1053 1.98429 10.1053 2.00286 10.1053 2.04V10.2066C10.1053 10.2665 10.1053 10.2965 10.1044 10.3174C10.0738 11.0482 9.29474 11.4999 8.6453 11.1635C8.62673 11.1539 8.60073 11.139 8.54872 11.1093L6.06918 9.69033C6.04992 9.67931 6.04029 9.6738 6.03116 9.66883C5.73285 9.50626 5.37241 9.50626 5.0741 9.66883C5.06497 9.6738 5.05534 9.67931 5.03609 9.69033L2.55655 11.1093C2.50454 11.139 2.47853 11.1539 2.45997 11.1635C1.81052 11.4999 1.03145 11.0482 1.00087 10.3174C1 10.2965 1 10.2665 1 10.2066V2.04Z" stroke="#A0A0A0"/>
<path opacity="0.3" d="M3.60156 4.184H7.50382" stroke="#A0A0A0" stroke-linecap="round" stroke-linejoin="round"/>
</svg>
