<svg width="13" height="14" viewBox="0 0 13 14" fill="none" xmlns="http://www.w3.org/2000/svg">
<path d="M1 3.90039C1 2.79582 1.89543 1.90039 3 1.90039H9.79999C10.9046 1.90039 11.8 2.79582 11.8 3.90039V10.7004C11.8 11.8049 10.9046 12.7004 9.79999 12.7004H3C1.89543 12.7004 1 11.8049 1 10.7004V3.90039Z" stroke="#D47461"/>
<path d="M1 4.89961H11.8" stroke="#D47461" stroke-linejoin="round"/>
<path d="M9.09883 1L9.09883 2.8" stroke="#D47461" stroke-linecap="round" stroke-linejoin="round"/>
<path d="M3.69844 1L3.69844 2.8" stroke="#D47461" stroke-linecap="round" stroke-linejoin="round"/>
<path d="M3.10352 7.29961H3.70351" stroke="#D47461" stroke-linecap="round" stroke-linejoin="round"/>
<path d="M6.10352 7.29961H6.70351" stroke="#D47461" stroke-linecap="round" stroke-linejoin="round"/>
<path d="M9.10352 7.29961H9.70351" stroke="#D47461" stroke-linecap="round" stroke-linejoin="round"/>
<path d="M3.10352 9.7H3.70351" stroke="#D47461" stroke-linecap="round" stroke-linejoin="round"/>
<path d="M6.10352 9.7H6.70351" stroke="#D47461" stroke-linecap="round" stroke-linejoin="round"/>
<path d="M9.10352 9.7H9.70351" stroke="#D47461" stroke-linecap="round" stroke-linejoin="round"/>
</svg>
