<svg width="14" height="13" viewBox="0 0 14 13" fill="none" xmlns="http://www.w3.org/2000/svg">
<path d="M8.91072 3.46369V3.4072C8.91072 2.31505 8.02536 1.42969 6.93321 1.42969V1.42969C5.84105 1.42969 4.95569 2.31505 4.95569 3.4072L4.95569 3.46369" stroke="#D5B582"/>
<path d="M1 5.21424C1 4.24808 1.78323 3.46484 2.7494 3.46484H11.1157C12.0819 3.46484 12.8651 4.24808 12.8651 5.21424V5.21424C12.8651 5.98679 12.3584 6.66788 11.6184 6.88987L8.08194 7.95079C7.33219 8.17572 6.53292 8.17572 5.78317 7.95079L2.24672 6.88987C1.50675 6.66788 1 5.98679 1 5.21424V5.21424Z" stroke="#2D5D63"/>
<path d="M6.9325 6.51505L6.9325 5.49805" stroke="#D5B582" stroke-linecap="round" stroke-linejoin="round"/>
<path d="M1.49463 6.51367L1.49463 8.10719C1.49463 10.3163 3.28549 12.1072 5.49463 12.1072H8.37097C10.5801 12.1072 12.371 10.3163 12.371 8.10719V6.51367" stroke="#2D5D63"/>
</svg>
