<svg width="22" height="22" viewBox="0 0 22 22" fill="none" xmlns="http://www.w3.org/2000/svg">
<rect width="22" height="22" fill="#F0F0F0"/>
<g clip-path="url(#clip0_0_1)">
<rect width="375" height="812" transform="translate(-17 -530)" fill="#FAFAFA"/>
<path d="M1 11C1 16.523 5.477 21 11 21C16.523 21 21 16.523 21 11C21 5.477 16.523 1 11 1C5.477 1 1 5.477 1 11Z" stroke="#D5B582" stroke-width="1.5" stroke-linecap="round" stroke-linejoin="round"/>
<path d="M12 1.0498C12 1.0498 15 4.9998 15 10.9998C15 16.9998 12 20.9498 12 20.9498M10 20.9498C10 20.9498 7 16.9998 7 10.9998C7 4.9998 10 1.0498 10 1.0498M1.63 14.4998H20.37M1.63 7.4998H20.37" stroke="#D5B582" stroke-width="1.5" stroke-linecap="round" stroke-linejoin="round"/>
</g>
<defs>
<clipPath id="clip0_0_1">
<rect width="375" height="812" fill="white" transform="translate(-17 -530)"/>
</clipPath>
</defs>
</svg>
