<svg width="91" height="97" viewBox="0 0 91 97" fill="none" xmlns="http://www.w3.org/2000/svg">
<g clip-path="url(#clip0_1817_8583)">
<path d="M51.9995 29.5657C48.4123 32.3638 47.2165 30.7649 40.8392 36.8942C34.4726 43.0128 35.3893 47.6711 26.6697 57.362C26.6444 57.39 26.6192 57.4166 26.5926 57.4433C26.1701 57.871 21.5838 62.7838 25.3876 70.9224C25.6241 71.4274 25.6785 71.9964 25.5563 72.54C25.28 73.7712 25.3743 76.4548 29.5939 79.8818C30.031 80.2363 30.3286 80.7346 30.4416 81.2876C30.7565 82.8119 32.0638 86.187 37.4818 89.1024C38.1036 89.4369 38.562 90.0205 38.7214 90.7107C39.1426 92.5321 40.8233 95.8579 47.5234 93.4236C47.5845 93.4022 47.6443 93.3769 47.7028 93.3503L68.7665 83.8179C69.169 83.6353 69.6141 83.5647 70.0526 83.6167C72.266 83.8739 79.4976 84.3775 81.6273 80.3322C84.1517 75.5354 89.3332 64.476 83.6202 49.1528C83.6202 49.1528 82.6171 46.228 83.7837 42.4972C84.5051 40.188 84.8891 37.7869 84.9648 35.3685L85.5002 18.3078C85.5321 17.2991 84.9449 16.3757 84.0228 15.9733C84.0175 15.9707 84.0122 15.9693 84.0069 15.9667C83.8806 15.912 83.7531 15.8574 83.6256 15.8028C83.5392 15.7681 83.4528 15.7321 83.3651 15.6975C82.3182 15.2858 81.266 14.9233 80.2336 14.469C78.6313 13.7641 77.1247 12.866 75.5756 12.0559C74.13 11.2991 73.564 9.65749 73.8059 8.14648" fill="#D3B389"/>
<path d="M79.6213 9.79056C72.5531 5.82651 63.6263 8.16497 59.3402 15.0564C55.0727 21.9186 50.4744 28.9433 48.73 30.3037C45.1427 33.1019 43.947 31.5029 37.5697 37.6322C31.2389 43.7162 32.1091 48.3558 23.5463 57.9375C23.4573 58.0361 23.3669 58.1347 23.2753 58.2319C22.6867 58.8502 19.0357 63.0568 21.4165 69.9389C21.8962 71.326 22.1579 72.7823 22.1964 74.2494C22.2283 75.4179 22.7425 77.1261 24.7434 79.1848C25.9484 80.4253 26.9435 81.855 27.6278 83.4446C28.2057 84.7864 29.3855 86.5692 31.7943 88.3281C33.5347 89.5992 34.955 91.2448 36.1136 93.065C37.017 94.4854 38.9382 95.7219 43.021 94.5626C43.7065 94.3681 44.3761 94.1149 45.0258 93.8204L62.6085 85.8644C64.6665 84.933 66.9039 84.468 69.1599 84.5186C72.229 84.5865 76.7489 84.1268 78.3565 81.0715C80.8808 76.2747 86.0624 65.2153 80.3494 49.8921C80.3494 49.8921 78.8879 45.6283 81.5451 40.8314C82.4459 39.2058 84.3671 36.1745 86.6961 32.7607C91.8604 25.1911 89.243 14.7979 81.1147 10.5967C80.6204 10.3395 80.1222 10.0717 79.6213 9.79056Z" fill="#DEBF97"/>
<path d="M42.6165 79.7823C42.8504 80.3752 42.6285 81.0481 42.0771 81.3986C40.8827 82.1567 39.4651 84.4552 42.2645 91.412C45.8145 100.231 51.5833 96.3794 52.6953 93.5106C52.9318 92.9003 53.5656 92.5259 54.2365 92.6152C56.0461 92.8563 59.1218 92.4872 60.3919 87.6931C60.5713 87.0175 61.2555 86.5791 61.9743 86.6831C64.0562 86.9829 67.848 86.6311 67.2409 79.8689C67.1744 79.1307 67.7351 78.4792 68.5017 78.3965C70.9012 78.138 75.2749 76.3792 73.5677 66.6843C73.5026 66.3139 73.2873 65.9754 72.9539 65.7795C72.5739 65.557 71.9827 65.4624 71.1204 65.9461C70.7192 66.1713 70.2276 66.1859 69.8077 65.9981C68.6359 65.4731 66.2617 64.1966 63.6536 61.5743C59.9575 57.8568 55.2051 54.7028 53.5908 55.5196C52.2954 56.1752 51.3774 56.3404 51.4916 58.6136C51.5381 59.5397 50.628 60.2472 49.698 59.998C48.097 59.569 45.958 59.2678 44.7609 60.2232C43.2038 61.465 43.9252 64.4551 44.6467 66.579C44.9177 67.3758 44.365 68.1979 43.5027 68.3285C42.0692 68.5444 40.3553 69.4198 40.7419 72.4445C41.1591 75.697 42.0426 78.3273 42.6165 79.7823Z" fill="white"/>
<path d="M43.585 80.4573C43.8016 81.0316 43.5956 81.6832 43.0854 82.0216C41.9787 82.7558 40.6647 84.9823 43.2595 91.7166C46.5491 100.256 51.8967 96.5267 52.9264 93.7486C53.1456 93.1583 53.7329 92.7945 54.3547 92.8811C56.0314 93.1156 58.8825 92.7572 60.0597 88.1149C60.2258 87.4607 60.8608 87.037 61.5265 87.1369C63.4569 87.4274 66.9711 87.0863 66.4077 80.5386C66.3466 79.8244 66.8661 79.1928 67.5769 79.1129C69.801 78.8624 73.8546 77.1595 72.2722 67.771C72.2124 67.4126 72.0118 67.0835 71.7022 66.8943C71.3501 66.6784 70.8014 66.5865 70.0029 67.0555C69.6309 67.2727 69.1765 67.2874 68.7859 67.1048C67.6991 66.5971 65.499 65.3606 63.0822 62.821C59.6558 59.222 55.2515 56.168 53.7568 56.9582C52.5557 57.5938 51.7054 57.7536 51.8117 59.9535C51.8556 60.8503 51.0119 61.5352 50.1496 61.294C48.6656 60.8783 46.6833 60.5864 45.5739 61.5112C44.1311 62.7144 44.8007 65.6098 45.469 67.6658C45.7201 68.4373 45.2072 69.2341 44.4087 69.3593C43.0801 69.5685 41.4911 70.416 41.8498 73.3447C42.2338 76.5013 43.0536 79.0489 43.585 80.4573Z" fill="#B9763C"/>
<path d="M87.5198 66.3457C89.2417 66.4896 92.4356 66.2191 90.274 61.7114C90.1943 61.5462 90.0681 61.4063 89.91 61.313L87.9955 60.1737C87.3551 59.7927 86.5526 60.287 86.6004 61.0318C86.6881 62.3776 86.7705 64.1924 86.6788 65.3557C86.6376 65.8593 87.0163 66.303 87.5198 66.3457Z" fill="#B9763C"/>
<path d="M20.6006 46.7875C16.8765 41.2139 10.741 32.8207 1.48596 22.329C-1.3227 19.1444 0.0271555 14.1224 4.04751 12.7726C4.10198 12.754 4.15512 12.7367 4.2096 12.718C8.39735 11.2923 13.2853 8.86188 17.4491 4.72195C20.2073 1.97843 24.8003 2.5767 26.748 5.94914C30.3778 12.237 35.6536 20.9046 40.054 26.2557C42.1 28.7434 41.7758 32.4117 39.3418 34.5196C36.7218 36.7888 33.7856 39.8494 32.2763 43.1766C31.7754 44.2812 31.2546 45.3232 30.7338 46.2932C28.6174 50.2359 23.0864 50.5077 20.6006 46.7875Z" fill="#985B27"/>
<path d="M24.045 0.964667C23.3727 -0.239872 21.6735 -0.337141 20.8776 0.790115C16.2089 7.40841 9.68681 10.8901 4.3166 12.7169C4.30597 12.7209 4.29667 12.7236 4.28604 12.7276C3.00394 13.1633 2.58011 14.7636 3.48356 15.7749C4.47736 16.8888 5.41934 18.0507 6.3467 19.2233C8.14165 21.4938 9.89673 23.8083 11.9348 25.8696C14.2386 28.2014 16.6341 30.4319 18.8807 32.8236C22.363 36.5305 25.6619 40.4133 28.7616 44.4493C29.6185 45.5659 31.3417 45.3794 31.9489 44.1095C32.095 43.8031 32.2412 43.4913 32.3847 43.1742C34.529 38.4479 39.7837 34.5945 42.8381 32.6558C43.8704 32.0015 44.0312 30.5478 43.1517 29.6977C37.1145 23.8616 27.7053 7.52167 24.045 0.964667Z" fill="#B9763C"/>
<path d="M47.659 20.6066C47.2019 20.9797 46.5137 20.8371 46.2467 20.3095C45.4495 18.7332 43.9841 17.51 42.6634 16.2841C39.4548 13.3061 36.6236 9.40201 36.6807 5.0169C36.6329 3.56053 37.345 2.08683 38.8649 1.97491C38.9354 1.96958 39.0071 1.96292 39.0775 1.95359C41.3587 1.6378 47.4305 2.53987 46.0394 5.84036C46.5948 4.04288 48.0589 2.78237 49.7861 2.21608C51.69 1.59116 53.732 2.61315 54.4335 4.49458C54.8507 5.6165 55.0898 6.82504 55.042 7.72445C54.9397 9.14085 54.2395 10.4333 53.5553 11.6752C51.7218 14.7465 50.465 18.3188 47.659 20.6066Z" fill="#FF433E"/>
</g>
<defs>
<clipPath id="clip0_1817_8583">
<rect width="91" height="97" fill="white"/>
</clipPath>
</defs>
</svg>
