<svg width="49" height="52" viewBox="0 0 49 52" fill="none" xmlns="http://www.w3.org/2000/svg">
<path d="M27.9997 15.8496C26.0682 17.3497 25.4243 16.4925 21.9904 19.7783C18.5622 23.0584 19.0558 25.5556 14.3606 30.7508C14.347 30.7658 14.3334 30.7801 14.3191 30.7943C14.0916 31.0236 11.6221 33.6573 13.6702 38.0203C13.7976 38.291 13.8269 38.596 13.7611 38.8874C13.6123 39.5474 13.6631 40.9861 15.9352 42.8232C16.1706 43.0133 16.3308 43.2804 16.3916 43.5768C16.5612 44.394 17.2651 46.2033 20.1826 47.7662C20.5174 47.9455 20.7642 48.2584 20.85 48.6284C21.0768 49.6049 21.9818 51.3878 25.5896 50.0827C25.6225 50.0713 25.6547 50.0577 25.6861 50.0434L37.0281 44.9333C37.2449 44.8354 37.4845 44.7976 37.7206 44.8254C38.9125 44.9633 42.8064 45.2333 43.9532 43.0647C45.3125 40.4932 48.1025 34.5644 45.0263 26.3499C45.0263 26.3499 44.4862 24.782 45.1143 22.782C45.5028 21.5441 45.7095 20.2569 45.7503 18.9604L46.0386 9.81448C46.0558 9.27375 45.7396 8.77874 45.2431 8.56302C45.2402 8.56159 45.2374 8.56087 45.2345 8.55945C45.1665 8.53016 45.0978 8.50087 45.0292 8.47159C44.9827 8.45301 44.9362 8.43373 44.8889 8.41516C44.3252 8.19444 43.7586 8.00014 43.2027 7.75657C42.34 7.3787 41.5287 6.89726 40.6946 6.46296C39.9162 6.05723 39.6114 5.17721 39.7416 4.36719" fill="#D3B389"/>
<path d="M42.8731 5.24855C39.0671 3.12349 34.2603 4.3771 31.9525 8.07148C29.6546 11.7502 27.1786 15.516 26.2393 16.2453C24.3077 17.7453 23.6638 16.8882 20.2299 20.174C16.821 23.4355 17.2896 25.9227 12.6788 31.0593C12.6309 31.1121 12.5823 31.165 12.5329 31.2171C12.216 31.5486 10.25 33.8036 11.532 37.493C11.7903 38.2366 11.9312 39.0173 11.952 39.8038C11.9692 40.4302 12.246 41.346 13.3234 42.4496C13.9723 43.1146 14.5081 43.881 14.8765 44.7332C15.1877 45.4525 15.823 46.4082 17.12 47.3511C18.0572 48.0326 18.822 48.9147 19.4458 49.8905C19.9323 50.6519 20.9668 51.3148 23.1652 50.6934C23.5343 50.5891 23.8949 50.4534 24.2447 50.2955L33.7124 46.0304C34.8205 45.5311 36.0252 45.2818 37.24 45.3089C38.8926 45.3454 41.3264 45.0989 42.192 43.461C43.5513 40.8895 46.3413 34.9608 43.2651 26.7463C43.2651 26.7463 42.4782 24.4605 43.909 21.889C44.394 21.0176 45.4285 19.3925 46.6826 17.5625C49.4633 13.5045 48.054 7.93291 43.6772 5.6807C43.4111 5.54284 43.1428 5.39927 42.8731 5.24855Z" fill="#DEBF97"/>
<path d="M22.9474 42.7698C23.0733 43.0877 22.9539 43.4484 22.657 43.6363C22.0138 44.0427 21.2505 45.2749 22.7578 49.0043C24.6694 53.7323 27.7757 51.6672 28.3745 50.1293C28.5018 49.8022 28.8431 49.6014 29.2043 49.6493C30.1787 49.7786 31.8349 49.5807 32.5188 47.0107C32.6154 46.6485 32.9838 46.4135 33.3708 46.4692C34.4919 46.6299 36.5336 46.4414 36.2067 42.8163C36.1709 42.4205 36.4728 42.0712 36.8856 42.027C38.1776 41.8884 40.5327 40.9455 39.6134 35.7482C39.5784 35.5496 39.4625 35.3682 39.2829 35.2632C39.0783 35.1439 38.7599 35.0932 38.2957 35.3525C38.0796 35.4732 37.8149 35.4811 37.5888 35.3803C36.9578 35.0989 35.6794 34.4146 34.2751 33.0088C32.2848 31.0159 29.7259 29.3252 28.8566 29.763C28.1591 30.1145 27.6648 30.2031 27.7263 31.4217C27.7513 31.9181 27.2613 32.2974 26.7605 32.1638C25.8985 31.9338 24.7467 31.7724 24.1021 32.2845C23.2636 32.9503 23.6521 34.5532 24.0406 35.6918C24.1865 36.1189 23.8889 36.5597 23.4246 36.6297C22.6527 36.7454 21.7298 37.2147 21.938 38.8362C22.1626 40.5798 22.6384 41.9898 22.9474 42.7698Z" fill="white"/>
<path d="M23.4688 43.1316C23.5854 43.4395 23.4745 43.7888 23.1998 43.9702C22.6039 44.3638 21.8963 45.5574 23.2935 49.1675C25.0649 53.7455 27.9443 51.7462 28.4988 50.2568C28.6168 49.9404 28.933 49.7454 29.2678 49.7918C30.1707 49.9175 31.7059 49.7254 32.3398 47.2368C32.4292 46.886 32.7712 46.6589 33.1296 46.7125C34.1691 46.8682 36.0613 46.6853 35.758 43.1752C35.725 42.7924 36.0048 42.4538 36.3875 42.4109C37.5851 42.2766 39.7678 41.3637 38.9157 36.3307C38.8835 36.1386 38.7755 35.9622 38.6088 35.8607C38.4193 35.745 38.1238 35.6957 37.6938 35.9472C37.4935 36.0636 37.2489 36.0715 37.0385 35.9736C36.4533 35.7014 35.2686 35.0386 33.9673 33.6771C32.1223 31.7478 29.7507 30.1106 28.9459 30.5342C28.2992 30.8749 27.8413 30.9606 27.8986 32.1399C27.9222 32.6206 27.4679 32.9878 27.0036 32.8585C26.2045 32.6356 25.1371 32.4792 24.5397 32.9749C23.7628 33.62 24.1234 35.1721 24.4832 36.2743C24.6184 36.6879 24.3423 37.1151 23.9123 37.1822C23.1969 37.2943 22.3413 37.7486 22.5345 39.3187C22.7412 41.0109 23.1826 42.3766 23.4688 43.1316Z" fill="#B9763C"/>
<path d="M47.126 35.5668C48.0532 35.6439 49.773 35.4989 48.6091 33.0824C48.5661 32.9939 48.4982 32.9189 48.413 32.8689L47.3822 32.2581C47.0373 32.0538 46.6052 32.3188 46.631 32.7181C46.6782 33.4396 46.7226 34.4125 46.6732 35.0361C46.651 35.3061 46.8549 35.5439 47.126 35.5668Z" fill="#B9763C"/>
<path d="M11.0926 25.082C9.08734 22.094 5.78362 17.5946 0.800133 11.9702C-0.712226 10.263 0.0146222 7.57076 2.17943 6.84717C2.20876 6.83717 2.23738 6.82788 2.26671 6.81788C4.52165 6.05357 7.15361 4.75068 9.39568 2.53133C10.8809 1.06058 13.354 1.3813 14.4028 3.18921C16.3573 6.56002 19.1981 11.2066 21.5675 14.0752C22.6692 15.4088 22.4947 17.3753 21.1841 18.5053C19.7733 19.7218 18.1923 21.3626 17.3796 23.1462C17.1099 23.7383 16.8294 24.2969 16.549 24.8169C15.4093 26.9306 12.4311 27.0763 11.0926 25.082Z" fill="#985B27"/>
<path d="M12.9471 0.517141C12.5851 -0.128591 11.6701 -0.180735 11.2416 0.423567C8.72766 3.97152 5.21575 5.838 2.3241 6.81731C2.31837 6.81946 2.31337 6.82088 2.30764 6.82303C1.61728 7.05661 1.38907 7.91449 1.87554 8.45664C2.41066 9.0538 2.91788 9.67668 3.41723 10.3053C4.38374 11.5224 5.32878 12.7632 6.42621 13.8682C7.66672 15.1183 8.95659 16.314 10.1663 17.5962C12.0414 19.5834 13.8177 21.6649 15.4868 23.8285C15.9482 24.4271 16.8761 24.3271 17.203 23.6463C17.2817 23.4821 17.3604 23.3149 17.4377 23.1449C18.5923 20.6113 21.4217 18.5455 23.0665 17.5062C23.6223 17.1555 23.7089 16.3761 23.2353 15.9204C19.9845 12.7918 14.918 4.03224 12.9471 0.517141Z" fill="#B9763C"/>
<path d="M25.6626 11.0468C25.4165 11.2469 25.0459 11.1704 24.9021 10.8876C24.4729 10.0425 23.6838 9.3868 22.9727 8.72964C21.245 7.13317 19.7205 5.04025 19.7512 2.68947C19.7255 1.90874 20.1089 1.11871 20.9273 1.05871C20.9653 1.05586 21.0039 1.05228 21.0418 1.04728C22.2701 0.877994 25.5395 1.36158 24.7905 3.13091C25.0895 2.16732 25.8779 1.49158 26.8079 1.188C27.8331 0.852993 28.9327 1.40087 29.3104 2.40946C29.535 3.01091 29.6638 3.65878 29.6381 4.14094C29.583 4.90025 29.206 5.59312 28.8375 6.25886C27.8503 7.90533 27.1735 9.82038 25.6626 11.0468Z" fill="#FF433E"/>
</svg>
