<svg width="210" height="193" viewBox="0 0 210 193" fill="none" xmlns="http://www.w3.org/2000/svg">
<g clip-path="url(#clip0_1465_3191)">
<path d="M75.438 5.32758C77.5247 4.21013 79.6667 3.20679 81.9309 2.45527C97.1494 -2.56932 115.607 0.763354 130.127 6.62209C141.87 11.3594 152.335 18.7999 163.925 23.8993C174.761 28.6642 187.699 32.3667 192.819 43.0179C198.965 55.7977 190.192 71.4066 194.192 85.0088C196.496 92.8467 202.729 98.8943 206.247 106.272C210.701 115.617 210.507 126.63 207.833 136.624C205.158 146.618 200.184 155.825 195.253 164.926C193.62 167.936 191.94 171.013 189.36 173.272C186.185 176.049 181.972 177.312 177.83 178.143C162.816 181.149 147.314 179.437 132.064 178.048C112.088 176.226 91.6309 175.007 72.2389 180.13C64.5665 182.156 57.0716 185.174 49.1586 185.803C30.9539 187.255 12.6783 174.094 8.32732 156.4C5.53844 145.064 7.98808 133.209 9.08076 121.586C10.2129 109.549 9.86574 97.3755 8.0512 85.4219C5.85796 70.9817 1.67267 55.5026 8.04725 42.3529C13.1635 31.8001 24.1178 25.2725 35.1826 21.3221C42.8905 18.5717 51.7779 16.6555 59.7619 13.6966C65.3988 11.6073 70.2547 8.10547 75.4419 5.32365" fill="#2E5E64"/>
<path d="M4.38244 175.231C6.23249 172.85 7.9997 170.376 10.3547 168.585C13.7865 165.977 18.7134 165.174 22.879 166.047C25.1551 166.523 27.4469 167.59 28.6777 169.557C29.7861 171.336 29.8611 173.563 29.6599 175.644C29.2733 179.638 28.0031 183.486 26.7448 187.295C26.2004 188.939 25.6126 190.659 24.3504 191.851C23.0881 193.043 20.9303 193.48 19.6286 192.331C18.5122 191.343 18.4373 189.62 18.7686 188.168C19.1 186.716 19.7548 185.323 19.81 183.836C19.9244 180.739 16.9186 177.907 13.826 178.198C10.7767 178.481 8.58351 181.149 5.90508 182.632C4.71379 183.289 3.30555 183.726 1.99197 183.368C-0.445834 182.699 -0.528672 180.519 1.08075 179.004C2.28388 177.871 3.34499 176.569 4.38244 175.239" fill="#4DB4A8"/>
<path d="M69.7774 58.5245C80.996 57.3126 92.1555 49.3291 93.6111 38.1743C93.9464 35.6128 93.7807 32.831 92.2975 30.7142C90.8143 28.5934 87.6941 27.4838 85.5087 28.8688C83.2327 30.3128 82.9842 33.4488 82.6844 36.1204C82.3846 38.796 81.2248 41.9949 78.5503 42.349C76.0139 42.6834 74.0298 40.1062 73.3592 37.6431C72.6925 35.18 72.6965 32.4612 71.3237 30.3089C69.5092 27.4641 65.2726 26.4922 62.4206 28.3022C59.5686 30.1082 58.6653 34.397 60.5903 37.167C62.0064 39.2091 64.4679 40.2007 66.5941 41.4952C68.7202 42.7897 70.7833 44.9183 70.4598 47.3815C70.0456 50.5567 65.884 51.8985 62.8111 50.9738C59.7382 50.0492 57.3201 47.7198 54.5115 46.1696C52.4603 45.0403 49.0363 44.9223 48.6103 47.2201C48.4367 48.1566 48.918 49.0812 49.4387 49.876C54.0421 56.8955 61.9236 59.3626 69.7695 58.5166" fill="white"/>
<path d="M176.358 111.407C176.358 111.407 191.285 110.989 190.33 103.529C190.33 103.529 192.381 101.668 186.551 100.677C186.551 100.677 200.05 98.7841 199.312 93.2873C198.574 87.7906 191.73 89.7067 191.73 89.7067C191.73 89.7067 201.762 88.243 201.659 82.825C201.557 77.4069 191.517 78.6621 191.517 78.6621C191.517 78.6621 202.988 71.4734 201.348 65.3275C199.707 59.1776 192.291 67.9794 192.291 67.9794C192.291 67.9794 195.19 52.8545 186.796 53.2047C178.401 53.5549 184.733 69.5691 184.733 69.5691L185.245 71.7685C185.245 71.7685 181.967 65.4927 177.052 65.1032C172.137 64.7137 182.567 81.7075 182.567 81.7075C182.567 81.7075 175.419 77.0292 174.784 80.1061C174.149 83.183 179.04 93.7359 179.04 93.7359C179.04 93.7359 171.837 88.3099 171.175 92.5318C170.508 96.7538 172.832 102.628 172.832 102.628C172.832 102.628 171.411 100.055 168.484 101.318C165.558 102.585 168.536 108.015 168.536 108.015L176.362 111.407H176.358Z" fill="#4DB6A9"/>
<path d="M188.476 60.6846C190.682 62.585 193.253 98.5205 172.043 107.492" stroke="#2D5D63" stroke-width="2.92" stroke-miterlimit="10"/>
<path d="M35.2261 120.803C30.812 124.1 25.317 125.941 19.8024 125.965C18.2837 125.973 16.5638 125.741 15.6644 124.517C14.5284 122.971 15.4238 120.645 16.9701 119.508C18.5164 118.367 20.4967 118.052 22.3546 117.564C24.2165 117.08 26.173 116.27 27.1079 114.598C27.4353 114.011 27.6128 113.303 27.4117 112.662C26.9659 111.257 25.1198 110.978 23.6445 111.045C20.0982 111.202 16.5757 111.898 13.2345 113.094C11.0097 113.893 8.33524 114.861 6.46547 113.413C4.08289 111.572 5.57397 107.429 8.26029 106.063C10.9466 104.698 14.1378 105.052 17.1437 104.816C18.4375 104.714 19.9562 104.316 20.3941 103.096C20.7964 101.963 19.9681 100.7 18.8951 100.149C17.8222 99.5985 16.5717 99.5592 15.3725 99.4254C12.8401 99.15 10.3589 98.426 8.08278 97.2928C5.64892 96.0848 3.16772 93.4211 4.39057 90.9973C5.09667 89.6005 6.83627 88.9828 8.39441 89.1283C9.95256 89.2739 11.3805 90.0254 12.7612 90.7652C15.0175 91.9731 17.2699 93.1771 19.5263 94.3851C20.2363 94.7667 21.1594 95.1327 21.7905 94.629C22.1258 94.3615 22.2599 93.9129 22.3033 93.488C22.6938 89.4903 16.7453 86.8029 17.4948 82.8565C17.9523 80.4366 21.0489 79.2051 23.3605 80.0589C25.676 80.9127 27.1631 83.2342 27.8022 85.6107C28.4452 87.9873 28.4057 90.4858 28.6345 92.9371C28.7528 94.1765 29.3603 95.7701 30.6068 95.6442C31.5812 95.5419 32.0585 94.3811 32.09 93.4053C32.1413 91.7488 31.5141 90.1514 31.2498 88.5145C30.9855 86.8777 31.1867 84.9694 32.4884 83.9385C34.587 82.2781 37.8966 84.3044 38.5869 86.8856C39.2772 89.4667 38.3226 92.158 37.6678 94.7471C37.4035 95.7897 37.3364 97.1747 38.3029 97.6508C39.7506 98.363 40.8117 96.1557 42.2081 95.3491C43.5848 94.5543 45.4349 95.3018 46.3895 96.5688C47.3441 97.8358 47.6281 99.4687 47.8805 101.035L35.2261 120.806V120.803Z" fill="#4DB4A8"/>
<path d="M175.325 84.1943C150.229 68.9317 130.565 45.6935 106.77 28.4793C106.029 27.9442 105.22 27.3815 104.305 27.3894C103.504 27.3933 102.782 27.83 102.104 28.2589C78.3175 43.2737 47.8686 60.846 29.4785 82.105L29.6639 105.815L176.8 98.4182L175.329 84.1943H175.325Z" fill="#F0E4DA"/>
<path d="M40.7168 125.489C41.0481 110.179 41.0836 90.7534 41.415 75.4436C41.49 71.9378 41.6083 68.1919 42.7444 65.3786C43.9909 62.286 46.1565 61.0623 48.1841 60.1455C79.5836 45.9531 112.537 61.621 144.832 58.9651C148.41 58.67 152.276 58.2883 155.258 61.9476C159.589 67.2673 160.106 78.426 160.185 88.0227C160.315 104.033 160.449 120.039 160.583 136.049" fill="white"/>
<path d="M109.472 94.5149C106.739 94.3969 103.749 94.3575 101.315 95.8094C99.2161 97.0646 97.6343 99.3861 98.0012 101.9C98.3049 103.97 100.033 105.524 101.977 106.103C104.111 106.736 106.403 106.114 107.902 104.466C109.602 102.601 110.194 99.8858 109.539 97.462C109.413 96.9938 108.932 96.6869 108.458 96.7577C107.938 96.8364 107.662 97.222 107.602 97.7256C107.366 99.7362 108.029 101.829 109.397 103.333C110.809 104.883 112.971 105.556 115.026 105.225C119.385 104.521 120.58 99.508 120.458 95.774C120.198 88.0227 114.644 80.9167 107.038 79.0988C103.196 78.1821 99.0504 78.5126 95.4056 80.0235C91.737 81.5462 88.6957 84.2061 86.6957 87.6332C84.755 90.958 83.7846 94.9005 84.041 98.7447C84.183 100.854 84.6642 102.927 85.5321 104.855C86.463 106.925 87.9541 108.625 89.7213 110.029C93.1689 112.768 97.228 115.097 101.603 115.912C105.555 116.647 109.882 116.112 113.255 113.807C114.06 113.256 114.802 112.622 115.452 111.902C116.3 110.966 114.908 109.569 114.056 110.509C111.689 113.126 108.171 114.306 104.695 114.263C100.79 114.216 97.0781 112.611 93.8356 110.545C92.1433 109.467 90.4629 108.275 89.1099 106.783C87.7647 105.296 86.9364 103.451 86.4551 101.519C85.6346 98.2293 85.8989 94.7353 87.031 91.5521C88.1592 88.3729 90.2499 85.4573 93.0388 83.5254C95.8908 81.5501 99.3345 80.5271 102.798 80.5468C106.226 80.5665 109.65 81.6367 112.348 83.7693C114.94 85.8193 116.869 88.6798 117.827 91.8354C118.312 93.4368 118.545 95.0855 118.494 96.7577C118.442 98.4142 118.151 100.173 117.227 101.586C116.356 102.923 114.774 103.584 113.2 103.274C111.575 102.955 110.328 101.782 109.812 100.22C109.543 99.4018 109.48 98.5716 109.579 97.7178C108.932 97.8043 108.289 97.8909 107.642 97.9774C108.072 99.567 107.776 101.29 106.841 102.656C105.965 103.927 104.494 104.572 103.094 104.336C101.685 104.1 100.348 103.195 99.9972 101.837C99.5554 100.134 100.806 98.4417 102.186 97.5761C104.328 96.2344 107.05 96.3682 109.472 96.4705C110.742 96.5255 110.738 94.5582 109.472 94.5031" fill="#2E5E64"/>
<path d="M31.853 156.726C33.2179 159.217 36.5235 159.732 39.3637 159.937C85.1652 163.25 131.168 160.968 177.025 158.528C165.838 148.322 140.801 122.479 137.803 121.692C135.456 121.074 95.7448 124.466 80.8064 122.223L31.853 156.73V156.726Z" fill="#F0E4DA"/>
<path d="M137.803 121.688C148.099 107.901 161.739 94.7708 175.325 84.1943C177.893 107.358 179.636 130.608 180.556 153.893C180.634 155.916 177.98 159.126 176.027 158.576L137.803 121.684V121.688Z" fill="#DEBF97"/>
<path d="M31.8532 156.726C48.7088 146.653 65.3987 134.527 80.8066 122.219C62.9254 110.116 45.6675 97.0922 29.1235 83.2224C29.1235 83.2224 29.877 133.5 31.8493 156.726" fill="#DEBF97"/>
</g>
<defs>
<clipPath id="clip0_1465_3191">
<rect width="209.734" height="193" fill="white"/>
</clipPath>
</defs>
</svg>
