<svg width="19" height="16" viewBox="0 0 19 16" fill="none" xmlns="http://www.w3.org/2000/svg">
<path d="M1.3144 5.94515L1.14254 6.41469L1.3144 5.94515ZM1.3144 10.0548L1.48626 10.5244L1.3144 10.0548ZM18.1856 10.0548L18.3575 9.58531L18.1856 10.0548ZM18.1856 5.94515L18.3575 6.41469L18.1856 5.94515ZM5 0.5C2.51472 0.5 0.5 2.51472 0.5 5H1.5C1.5 3.067 3.067 1.5 5 1.5V0.5ZM14.5 0.5H5V1.5H14.5V0.5ZM19 5C19 2.51472 16.9853 0.5 14.5 0.5V1.5C16.433 1.5 18 3.067 18 5H19ZM19 5.5293V5H18V5.5293H19ZM17.25 8C17.25 7.27261 17.7105 6.6515 18.3575 6.41469L18.0137 5.47562C16.9853 5.85205 16.25 6.83952 16.25 8H17.25ZM18.3575 9.58531C17.7105 9.3485 17.25 8.72739 17.25 8H16.25C16.25 9.16048 16.9853 10.1479 18.0137 10.5244L18.3575 9.58531ZM19 11V10.4707H18V11H19ZM14.5 15.5C16.9853 15.5 19 13.4853 19 11H18C18 12.933 16.433 14.5 14.5 14.5V15.5ZM5 15.5H14.5V14.5H5V15.5ZM0.5 11C0.5 13.4853 2.51472 15.5 5 15.5V14.5C3.067 14.5 1.5 12.933 1.5 11H0.5ZM0.5 10.4707V11H1.5V10.4707H0.5ZM1.48626 10.5244C2.51472 10.1479 3.25 9.16047 3.25 8H2.25C2.25 8.72739 1.78953 9.3485 1.14254 9.58531L1.48626 10.5244ZM3.25 8C3.25 6.83953 2.51472 5.85205 1.48626 5.47562L1.14254 6.41469C1.78953 6.6515 2.25 7.27261 2.25 8H3.25ZM0.5 5V5.5293H1.5V5H0.5ZM1.48626 5.47562C1.48051 5.47351 1.48033 5.47124 1.48419 5.47618C1.48656 5.47922 1.49057 5.48529 1.49405 5.49489C1.49766 5.50483 1.5 5.51674 1.5 5.5293H0.5C0.5 5.97111 0.809089 6.29264 1.14254 6.41469L1.48626 5.47562ZM1.5 10.4707C1.5 10.4833 1.49766 10.4952 1.49405 10.5051C1.49057 10.5147 1.48656 10.5208 1.48419 10.5238C1.48033 10.5288 1.48051 10.5265 1.48626 10.5244L1.14254 9.58531C0.809089 9.70736 0.5 10.0289 0.5 10.4707H1.5ZM18.0137 10.5244C18.0195 10.5265 18.0197 10.5288 18.0158 10.5238C18.0134 10.5208 18.0094 10.5147 18.0059 10.5051C18.0023 10.4952 18 10.4833 18 10.4707H19C19 10.0289 18.6909 9.70736 18.3575 9.58531L18.0137 10.5244ZM18 5.5293C18 5.51674 18.0023 5.50483 18.0059 5.49489C18.0094 5.48529 18.0134 5.47922 18.0158 5.47618C18.0197 5.47124 18.0195 5.47351 18.0137 5.47562L18.3575 6.41469C18.6909 6.29264 19 5.97111 19 5.5293H18Z" fill="#2D5D63"/>
<path d="M9.351 5.02831C9.55106 4.76342 9.94894 4.76342 10.149 5.02831L10.9543 6.0946C11.0141 6.17381 11.0962 6.23343 11.19 6.26585L12.4529 6.70223C12.7667 6.81063 12.8896 7.18905 12.6995 7.46116L11.9343 8.55655C11.8774 8.63793 11.8461 8.73438 11.8443 8.83364L11.8195 10.1696C11.8134 10.5015 11.4915 10.7354 11.1739 10.6387L9.89567 10.2494C9.80071 10.2204 9.69929 10.2204 9.60433 10.2494L8.32608 10.6387C8.00854 10.7354 7.68664 10.5015 7.68049 10.1696L7.65574 8.83364C7.6539 8.73438 7.62256 8.63793 7.56571 8.55655L6.80046 7.46116C6.61035 7.18905 6.73331 6.81063 7.04705 6.70223L8.31 6.26585C8.40383 6.23343 8.48588 6.17381 8.54571 6.0946L9.351 5.02831Z" stroke="#D5B582"/>
</svg>
