<svg width="41" height="40" viewBox="0 0 41 40" fill="none" xmlns="http://www.w3.org/2000/svg">
<path d="M10.5 0C11.1137 0 11.6111 0.497461 11.6111 1.11111C11.6111 1.72476 11.1137 2.22222 10.5 2.22222H6.05556C4.21461 2.22222 2.72222 3.71461 2.72222 5.55556V10.0692C2.72222 10.6828 2.22476 11.1803 1.61111 11.1803C0.997461 11.1803 0.5 10.6828 0.5 10.0692V5.55556C0.5 2.48731 2.98731 0 6.05556 0H10.5ZM30.5 2.22222C29.8864 2.22222 29.3889 1.72476 29.3889 1.11111C29.3889 0.497461 29.8864 0 30.5 0H34.9444C38.0127 0 40.5 2.48731 40.5 5.55556V10C40.5 10.6137 40.0025 11.1111 39.3889 11.1111C38.7752 11.1111 38.2778 10.6137 38.2778 10V5.55556C38.2778 3.71461 36.7854 2.22222 34.9444 2.22222H30.5ZM38.2778 30C38.2778 29.3864 38.7752 28.8889 39.3889 28.8889C40.0025 28.8889 40.5 29.3864 40.5 30V34.4444C40.5 37.5127 38.0127 40 34.9444 40H30.5C29.8864 40 29.3889 39.5025 29.3889 38.8889C29.3889 38.2752 29.8864 37.7778 30.5 37.7778H34.9444C36.7854 37.7778 38.2778 36.2854 38.2778 34.4444V30ZM0.5 30C0.5 29.3864 0.997461 28.8889 1.61111 28.8889C2.22476 28.8889 2.72222 29.3864 2.72222 30V34.4444C2.72222 36.2854 4.21461 37.7778 6.05556 37.7778H10.5C11.1137 37.7778 11.6111 38.2752 11.6111 38.8889C11.6111 39.5025 11.1137 40 10.5 40H6.05556C2.98731 40 0.5 37.5127 0.5 34.4444V30ZM11.6111 12.2222C11.6111 11.6086 12.1086 11.1111 12.7222 11.1111C13.3359 11.1111 13.8333 11.6086 13.8333 12.2222V14.4444C13.8333 15.0581 13.3359 15.5556 12.7222 15.5556C12.1086 15.5556 11.6111 15.0581 11.6111 14.4444V12.2222ZM29.3889 12.2222C29.3889 11.6086 29.8864 11.1111 30.5 11.1111C31.1137 11.1111 31.6111 11.6086 31.6111 12.2222V14.4444C31.6111 15.0581 31.1137 15.5556 30.5 15.5556C29.8864 15.5556 29.3889 15.0581 29.3889 14.4444V12.2222ZM20.5 12.2222C20.5 11.6086 20.9975 11.1111 21.6111 11.1111C22.2248 11.1111 22.7222 11.6086 22.7222 12.2222V21.1111C22.7222 22.9521 21.2298 24.4444 19.3889 24.4444C18.7752 24.4444 18.2778 23.947 18.2778 23.3333C18.2778 22.7197 18.7752 22.2222 19.3889 22.2222C20.0025 22.2222 20.5 21.7248 20.5 21.1111V12.2222ZM11.8333 28.4444C11.4651 27.9535 11.5646 27.2571 12.0556 26.8889C12.5465 26.5207 13.2429 26.6202 13.6111 27.1111C15.6355 29.8103 17.9119 31.1111 20.5 31.1111C23.0881 31.1111 25.3645 29.8103 27.3889 27.1111C27.7571 26.6202 28.4535 26.5207 28.9444 26.8889C29.4354 27.2571 29.5349 27.9535 29.1667 28.4444C26.7466 31.6712 23.8379 33.3333 20.5 33.3333C17.1621 33.3333 14.2534 31.6712 11.8333 28.4444Z" fill="#2D5D63"/>
</svg>
