<svg width="40" height="39" viewBox="0 0 40 39" fill="none" xmlns="http://www.w3.org/2000/svg">
<path d="M30.2391 5.73431C30.0966 5.73467 29.9567 5.69679 29.8339 5.62462C26.4534 3.81478 23.5306 3.04697 20.0267 3.04697C16.5404 3.04697 13.2299 3.90618 10.2188 5.62462C9.79305 5.86533 9.26822 5.69775 9.02143 5.25595C8.91127 5.04271 8.88642 4.79554 8.95192 4.56464C9.01743 4.33375 9.16838 4.13645 9.3741 4.01283C12.6216 2.17097 16.2933 1.20795 20.0267 1.21884C23.7767 1.21884 27.0521 2.07806 30.6443 3.99759C30.8539 4.11283 31.01 4.30562 31.0791 4.53461C31.1481 4.7636 31.1247 5.01053 31.0138 5.22243C30.9471 5.37288 30.8387 5.50106 30.7014 5.59178C30.5641 5.68251 30.4037 5.73197 30.2391 5.73431ZM5.04221 15.332C4.85926 15.3307 4.68112 15.2732 4.53186 15.1674C4.33766 15.0231 4.20706 14.8091 4.16756 14.5704C4.12806 14.3316 4.18275 14.0869 4.3201 13.8877C6.06367 11.3284 8.28104 9.31743 10.9234 7.90978C16.452 4.95126 23.5306 4.92993 29.0767 7.8915C31.7184 9.29915 33.9365 11.2918 35.6801 13.8329C35.8168 14.0323 35.8712 14.2768 35.8317 14.5154C35.7922 14.7539 35.662 14.9679 35.4683 15.1126C35.3743 15.1828 35.2669 15.2331 35.1527 15.2601C35.0386 15.2872 34.9201 15.2906 34.8045 15.27C34.689 15.2494 34.5789 15.2054 34.4811 15.1406C34.3833 15.0758 34.2998 14.9916 34.2358 14.8932C32.6515 12.5898 30.6443 10.7799 28.267 9.51853C23.2138 6.83118 16.7513 6.83118 11.7156 9.53681C9.32078 10.8165 7.31365 12.6446 5.72928 14.945C5.66096 15.0661 5.56082 15.1661 5.43971 15.2343C5.3186 15.3025 5.18114 15.3363 5.04221 15.332ZM16.0468 37.4005C15.9304 37.4016 15.8151 37.3777 15.7088 37.3304C15.6025 37.2831 15.5076 37.2135 15.4305 37.1263C13.8987 35.5327 13.0684 34.506 11.8916 32.297C10.6728 30.0484 10.0429 27.3062 10.0429 24.3629C10.0429 18.9334 14.5149 14.5093 20.0092 14.5093C25.5035 14.5093 29.9786 18.9334 29.9786 24.3629C29.9821 24.4807 29.9619 24.5979 29.9192 24.7077C29.8765 24.8176 29.8122 24.9177 29.7302 25.0022C29.6481 25.0867 29.5499 25.1539 29.4414 25.1998C29.3329 25.2457 29.2162 25.2693 29.0984 25.2693C28.9806 25.2693 28.864 25.2457 28.7555 25.1998C28.647 25.1539 28.5488 25.0867 28.4667 25.0022C28.3846 24.9177 28.3203 24.8176 28.2777 24.7077C28.235 24.5979 28.2148 24.4807 28.2183 24.3629C28.2183 19.9388 24.5376 16.3374 20.013 16.3374C15.4884 16.3374 11.804 19.9388 11.804 24.3629C11.804 26.9954 12.3669 29.4268 13.4409 31.4012C14.5683 33.5035 15.3452 34.3993 16.6988 35.8252C16.8593 36.0027 16.9482 36.2334 16.9482 36.4727C16.9482 36.712 16.8593 36.9427 16.6988 37.1202C16.526 37.2945 16.2922 37.395 16.0468 37.4005ZM28.6722 34.0185C26.5768 34.0185 24.7281 33.47 23.2138 32.3914C21.9236 31.4871 20.8697 30.2861 20.1406 28.8895C19.4115 27.4928 19.0287 25.9414 19.0243 24.3659C19.0194 24.2472 19.0385 24.1287 19.0805 24.0176C19.1225 23.9065 19.1866 23.805 19.2689 23.7192C19.3511 23.6335 19.4499 23.5653 19.5592 23.5186C19.6685 23.472 19.786 23.448 19.9049 23.448C20.0237 23.448 20.1413 23.472 20.2506 23.5186C20.3599 23.5653 20.4586 23.6335 20.5409 23.7192C20.6231 23.805 20.6872 23.9065 20.7292 24.0176C20.7712 24.1287 20.7903 24.2472 20.7854 24.3659C20.7884 25.6457 21.1005 26.9057 21.6952 28.0388C22.2898 29.172 23.1495 30.1446 24.201 30.8741C25.4509 31.7516 26.9127 32.169 28.6738 32.169C29.2871 32.1581 29.8985 32.097 30.5019 31.9862C30.9772 31.8948 31.435 32.2238 31.5226 32.7357C31.5672 32.9719 31.5164 33.2162 31.3811 33.415C31.2459 33.6138 31.0374 33.7508 30.8012 33.796C30.0999 33.9346 29.3872 34.008 28.6722 34.0154V34.0185ZM25.1325 37.7813C25.0552 37.7781 24.9785 37.7659 24.904 37.7448C22.1039 36.9404 20.2728 35.8618 18.3532 33.9057C15.8876 31.3646 14.5325 27.9826 14.5325 24.3629C14.5325 21.4013 16.9623 18.9882 19.9551 18.9882C22.9479 18.9882 25.3786 21.4013 25.3786 24.3629C25.3786 26.319 27.0163 27.9095 29.0409 27.9095C31.0656 27.9095 32.7033 26.319 32.7033 24.3629C32.7033 17.4709 26.9805 11.8768 19.9376 11.8768C14.9369 11.8768 10.359 14.7652 8.29932 19.2442C7.61377 20.7249 7.26033 22.4617 7.26033 24.3629C7.26033 25.7888 7.38297 28.0374 8.43948 30.9624C8.61619 31.4377 8.38692 31.9679 7.92912 32.1324C7.82033 32.1739 7.70428 32.1929 7.58795 32.1883C7.47162 32.1838 7.35741 32.1558 7.25218 32.106C7.14696 32.0562 7.05288 31.9856 6.97561 31.8985C6.89834 31.8114 6.83947 31.7096 6.80254 31.5992C5.95297 29.2812 5.51775 26.8317 5.51676 24.3629C5.51676 22.1692 5.92199 20.1735 6.71418 18.4398C9.05647 13.3363 14.2506 10.0304 19.9376 10.0304C27.9494 10.0304 34.4644 16.4471 34.4644 24.3446C34.4644 27.3062 32.0345 29.7193 29.0409 29.7193C26.0474 29.7193 23.6175 27.3062 23.6175 24.3446C23.6182 22.3885 21.9805 20.795 19.9559 20.795C17.9313 20.795 16.2936 22.3855 16.2936 24.3416C16.2936 27.4646 17.4559 30.3927 19.5865 32.5864C21.2622 34.3049 22.8619 35.2524 25.3443 35.9685C25.8196 36.0964 26.0839 36.6083 25.9605 37.0836C25.9221 37.2766 25.8192 37.4507 25.6687 37.5775C25.5183 37.7043 25.3292 37.7762 25.1325 37.7813Z" fill="#2D5D63"/>
</svg>
