<svg width="198" height="189" viewBox="0 0 198 189" fill="none" xmlns="http://www.w3.org/2000/svg">
<path d="M71.0128 5.85727C72.977 4.80543 74.9932 3.861 77.1245 3.1536C91.4495 -1.57598 108.823 1.56102 122.491 7.07577C133.544 11.535 143.395 18.5386 154.304 23.3386C164.504 27.8237 176.683 31.3088 181.502 41.3347C187.287 53.3641 179.03 68.0566 182.795 80.8601C184.963 88.2378 190.83 93.9304 194.142 100.875C198.334 109.671 198.152 120.037 195.634 129.445C193.117 138.852 188.435 147.519 183.793 156.085C182.256 158.919 180.674 161.815 178.246 163.941C175.257 166.555 171.292 167.744 167.393 168.526C153.261 171.355 138.669 169.744 124.314 168.437C105.511 166.722 86.2549 165.574 68.0015 170.396C60.7796 172.304 53.7247 175.144 46.2763 175.737C29.1405 177.104 11.9379 164.715 7.84238 148.059C5.21724 137.389 7.52306 126.23 8.55158 115.289C9.61723 103.96 9.29048 92.5007 7.58247 81.249C5.518 67.6566 1.57844 53.0864 7.57875 40.7087C12.3946 30.7755 22.7058 24.6311 33.1209 20.9127C40.3763 18.3238 48.7418 16.5201 56.257 13.735C61.563 11.7683 66.1338 8.47206 71.0165 5.85357" fill="#2E5E64"/>
<path d="M4.12927 165.785C5.8707 163.544 7.53415 161.215 9.75085 159.529C12.9812 157.074 17.6188 156.318 21.5398 157.141C23.6823 157.589 25.8396 158.592 26.998 160.444C28.0414 162.118 28.112 164.215 27.9226 166.174C27.5587 169.933 26.3631 173.555 25.1786 177.14C24.6662 178.688 24.113 180.307 22.9248 181.429C21.7366 182.551 19.7056 182.962 18.4803 181.881C17.4295 180.951 17.3589 179.329 17.6708 177.963C17.9827 176.596 18.5991 175.285 18.6511 173.885C18.7587 170.97 15.9294 168.303 13.0183 168.577C10.1481 168.844 8.08368 171.355 5.56251 172.751C4.44117 173.37 3.1156 173.781 1.87915 173.444C-0.415521 172.814 -0.493496 170.763 1.02143 169.337C2.15392 168.27 3.15273 167.044 4.12927 165.792" fill="#4DB4A8"/>
<path d="M166.008 105.708C166.008 105.708 180.058 105.316 179.16 98.2934C179.16 98.2934 181.09 96.5416 175.602 95.6083C175.602 95.6083 188.309 93.8268 187.614 88.6528C186.92 83.4788 180.478 85.2825 180.478 85.2825C180.478 85.2825 189.92 83.9047 189.823 78.8048C189.727 73.7048 180.277 74.8863 180.277 74.8863C180.277 74.8863 191.075 68.1197 189.53 62.3346C187.986 56.5458 181.005 64.8309 181.005 64.8309C181.005 64.8309 183.734 50.594 175.833 50.9236C167.931 51.2532 173.891 66.3271 173.891 66.3271L174.373 68.3975C174.373 68.3975 171.288 62.4901 166.661 62.1235C162.035 61.7568 171.852 77.7529 171.852 77.7529C171.852 77.7529 165.124 73.3493 164.526 76.2455C163.929 79.1418 168.533 89.075 168.533 89.075C168.533 89.075 161.753 83.9677 161.129 87.9417C160.501 91.9157 162.688 97.4453 162.688 97.4453C162.688 97.4453 161.352 95.0231 158.597 96.212C155.842 97.4046 158.645 102.516 158.645 102.516L166.012 105.708H166.008Z" fill="#4DB6A9"/>
<path d="M177.414 57.9639C179.49 59.7527 181.911 93.5783 161.946 102.023" stroke="#2D5D63" stroke-width="2.92" stroke-miterlimit="10"/>
<path d="M33.1618 114.552C29.0069 117.656 23.8346 119.389 18.6437 119.411C17.2142 119.419 15.5953 119.2 14.7487 118.049C13.6794 116.593 14.5222 114.404 15.9778 113.334C17.4333 112.26 19.2972 111.963 21.0461 111.504C22.7987 111.049 24.6403 110.286 25.5203 108.712C25.8285 108.16 25.9956 107.493 25.8062 106.889C25.3867 105.567 23.6489 105.304 22.2603 105.367C18.9222 105.515 15.6064 106.171 12.4615 107.297C10.3673 108.049 7.84986 108.96 6.08986 107.597C3.84717 105.863 5.25071 101.964 7.77931 100.678C10.3079 99.3932 13.3118 99.7265 16.1411 99.5043C17.359 99.408 18.7885 99.0339 19.2007 97.8858C19.5794 96.8191 18.7997 95.6303 17.7897 95.1118C16.7798 94.5932 15.6027 94.5562 14.474 94.4303C12.0902 94.171 9.75466 93.4895 7.61222 92.4229C5.32126 91.2859 2.98574 88.7785 4.13679 86.497C4.80143 85.1822 6.43889 84.6008 7.90555 84.7378C9.37221 84.8748 10.7163 85.5822 12.0159 86.2785C14.1398 87.4155 16.2599 88.5489 18.3838 89.6859C19.0522 90.0451 19.921 90.3896 20.5151 89.9155C20.8307 89.6637 20.957 89.2414 20.9978 88.8415C21.3654 85.0785 15.7661 82.5489 16.4716 78.8342C16.9023 76.5564 19.8171 75.3972 21.9929 76.2009C24.1725 77.0045 25.5723 79.1897 26.1738 81.4267C26.7791 83.6637 26.7419 86.0156 26.9573 88.3229C27.0687 89.4896 27.6405 90.9896 28.8138 90.8711C29.7309 90.7748 30.1802 89.6822 30.2099 88.7637C30.2582 87.2044 29.6678 85.7007 29.4191 84.16C29.1703 82.6193 29.3596 80.823 30.585 79.8527C32.5603 78.2897 35.6756 80.1971 36.3254 82.6267C36.9751 85.0563 36.0766 87.5896 35.4602 90.0266C35.2114 91.0081 35.1483 92.3118 36.058 92.7599C37.4207 93.4303 38.4195 91.3525 39.7339 90.5933C41.0298 89.8451 42.7712 90.5488 43.6698 91.7414C44.5684 92.934 44.8357 94.471 45.0733 95.9451L33.1618 114.556V114.552Z" fill="#4DB4A8"/>
<path d="M48.7776 88.3511C51.9308 87.5371 55.3211 87.8617 58.8247 87.9853C67.4239 88.2842 76.018 88.5675 84.6224 88.7273C102.161 89.0467 119.71 88.99 137.248 88.5572C143.72 88.3975 150.959 88.4645 155.606 92.9676C159.228 96.4712 160.3 101.799 160.939 106.797C162.706 120.625 162.516 134.619 161.511 148.5C160.893 157.027 163.355 180.156 154.308 184.777C147.12 188.451 136.316 187.781 128.495 187.879C107.035 188.142 85.5653 188.405 64.1161 187.74C56.2845 187.498 47.5462 186.715 42.3835 180.825C37.6125 175.385 37.53 167.404 37.7 160.17L38.5708 123.403C38.8026 113.716 35.4279 98.6146 43.5583 91.1849C45.2019 89.6856 46.9485 88.8303 48.7776 88.3563V88.3511Z" fill="#DEBF97"/>
<path d="M98.9095 168.331C100.538 169.825 101.918 171.608 104.237 170.243C106.004 169.202 107.421 166.821 107.705 164.807C108.756 157.253 108.725 149.551 107.601 142.003C114.433 138.875 119.287 131.502 118.798 124.005C118.308 116.509 112.063 109.61 104.577 108.986C91.8199 107.925 85.4464 117.312 85.8947 128.787C86.0029 131.543 86.1677 134.387 87.3682 136.876C88.5687 139.365 93.0358 142.77 95.7923 142.616C95.7923 142.616 94.2054 164.013 98.9095 168.331V168.331Z" fill="white"/>
<path d="M63.9303 84.6466C64.8577 76.6141 63.7911 68.5455 63.9045 60.4924C63.9354 58.2512 64.0642 56.0099 64.3631 53.7841L64.1776 55.1546C64.5589 52.4136 65.2132 49.724 66.2746 47.1685L65.7542 48.3999C66.5992 46.4059 67.6812 44.5305 69.0053 42.8147L68.2016 43.8555C69.5154 42.1758 71.0353 40.6868 72.715 39.3781L71.6742 40.1819C73.8485 38.5125 76.2495 37.1832 78.7742 36.1167L77.5428 36.6371C81.6543 34.9213 86.0235 33.9063 90.4339 33.3087L89.0634 33.4941C92.2218 33.0768 95.4008 32.8707 98.5849 32.8192C102.666 32.7574 106.746 32.8759 110.796 33.4066L109.425 33.2211C113.357 33.7518 117.242 34.6689 120.91 36.2043L119.679 35.6839C122.306 36.8019 124.795 38.2137 127.067 39.9552L126.026 39.1514C127.845 40.5683 129.494 42.1758 130.916 43.9946L130.112 42.9538C131.395 44.6232 132.441 46.4368 133.265 48.3741L132.745 47.1427C134.363 51.0327 135.084 55.201 135.646 59.3538L135.46 57.9832C136.743 67.5305 137.068 77.186 136.429 86.8003C136.346 88.0678 137.063 89.5671 137.939 90.443C138.814 91.3189 140.298 92.0093 141.581 91.9526C142.864 91.896 144.297 91.4529 145.224 90.443C146.151 89.4332 146.641 88.2223 146.734 86.8003C147.182 80.061 147.161 73.2909 146.661 66.5516C146.383 62.8213 145.945 59.1064 145.409 55.4071C144.971 52.3826 144.42 49.3634 143.446 46.4626C142.473 43.5618 141.061 40.4807 139.124 37.9149C138.103 36.5649 137.052 35.2614 135.842 34.0764C134.631 32.8913 133.301 31.8454 131.952 30.8304C127.165 27.234 121.312 24.9825 115.469 23.8335C109.121 22.5866 102.588 22.3187 96.1376 22.5866C90.7791 22.8082 85.3537 23.4574 80.1756 24.8691C77.4552 25.6111 74.8069 26.6158 72.2513 27.8111C69.6957 29.0065 67.5266 30.4594 65.3626 32.1494C60.7976 35.7148 57.5671 40.6714 55.6968 46.1225C53.8265 51.5737 53.5122 57.7359 53.6101 63.5529C53.708 69.3699 54.182 74.8159 53.9502 80.4475C53.8935 81.8489 53.7905 83.2503 53.6307 84.6415C53.4916 85.8626 54.3057 87.4546 55.1404 88.2842C56.0317 89.1755 57.5001 89.8505 58.7831 89.7938C60.066 89.7371 61.4984 89.294 62.4258 88.2842L63.2295 87.2434C63.6933 86.4396 63.9303 85.574 63.9354 84.6415L63.9303 84.6466Z" fill="#E8F5F5"/>
</svg>
