<svg width="22" height="22" viewBox="0 0 22 22" fill="none" xmlns="http://www.w3.org/2000/svg">
<path d="M1.06407 15.8897C0.727012 16.1305 0.648943 16.5989 0.8897 16.9359C1.13046 17.273 1.59887 17.3511 1.93593 17.1103L1.06407 15.8897ZM20.5199 15.5762C20.8381 15.8413 21.311 15.7983 21.5762 15.4801C21.8413 15.1619 21.7983 14.689 21.4801 14.4238L20.5199 15.5762ZM6.07822 15.0782L5.54789 15.6085L6.07822 15.0782ZM1.93593 17.1103L4.19512 15.4966L3.32327 14.276L1.06407 15.8897L1.93593 17.1103ZM5.54789 15.6085L6.62114 16.6818L7.6818 15.6211L6.60855 14.5479L5.54789 15.6085ZM9.37886 16.6818L14.368 11.6927L13.3073 10.632L8.3182 15.6211L9.37886 16.6818ZM15.7827 11.6285L20.5199 15.5762L21.4801 14.4238L16.7429 10.4762L15.7827 11.6285ZM14.368 11.6927C14.752 11.3087 15.3655 11.2808 15.7827 11.6285L16.7429 10.4762C15.7297 9.63184 14.2399 9.69942 13.3073 10.632L14.368 11.6927ZM6.62114 16.6818C7.38266 17.4433 8.61734 17.4433 9.37886 16.6818L8.3182 15.6211C8.14246 15.7969 7.85754 15.7969 7.6818 15.6211L6.62114 16.6818ZM4.19512 15.4966C4.6128 15.1983 5.18494 15.2456 5.54789 15.6085L6.60855 14.5479C5.72711 13.6664 4.33762 13.5515 3.32327 14.276L4.19512 15.4966Z" fill="#D5B582"/>
<circle r="2" transform="matrix(-1 0 0 1 7 7)" stroke="#D5B582" stroke-width="1.5"/>
<rect x="1" y="1" width="20" height="20" rx="5" stroke="#2D5D63" stroke-width="1.5"/>
</svg>
