<svg width="51" height="53" viewBox="0 0 51 53" fill="none" xmlns="http://www.w3.org/2000/svg">
<path d="M42.7935 18.3417C43.6704 18.8272 44.7586 19.4753 44.6526 20.4823C44.5724 21.2441 43.8189 21.7226 43.1274 22.0314C39.0845 23.8342 35.2304 25.2772 31.2578 23.3211C31.2982 22.6335 31.2543 20.9784 31.9214 20.847C32.8004 20.6731 33.5832 20.1261 34.1395 19.4145C34.5019 18.9509 34.7745 18.4216 35.1209 17.9453C36.0006 16.7375 37.3055 15.9354 38.577 15.1644C39.9641 14.3235 39.8554 14.9482 40.3817 15.8386C41.0327 16.9404 41.6371 17.7008 42.7949 18.3417H42.7935Z" fill="#E3C1B1"/>
<path d="M35.0266 18.4724C35.9411 19.0809 37.2105 18.8441 38.1027 18.2024C38.9949 17.5608 39.5944 16.5926 40.1709 15.6499C40.5048 15.1036 40.8401 14.5545 41.0827 13.9609C41.6515 12.5701 41.6814 11.0196 41.6333 9.51505C41.5971 8.3907 41.4159 7.08261 40.4553 6.51938C40.0601 6.28758 39.5923 6.2268 39.1392 6.17027C37.5039 5.96745 35.7648 5.77947 34.2758 6.49535C33.7935 6.72714 33.3564 7.04657 32.9444 7.39144C32.2801 7.94761 31.6514 8.61048 31.3997 9.4465C30.8979 11.1129 31.8194 12.9291 32.5938 14.3503C33.2804 15.611 33.8046 17.6597 35.0266 18.4724Z" fill="#E3C1B1"/>
<path d="M50.7591 28.9126C50.3687 27.0717 49.9791 25.2307 49.5887 23.3891C49.4702 22.8287 49.344 22.2513 49.0206 21.7821C48.7529 21.3941 48.3681 21.1065 47.982 20.84C46.4624 19.7934 44.8013 18.9581 43.0593 18.3652C42.9067 18.3129 42.7484 18.2627 42.5881 18.2754C42.3232 18.2966 42.1043 18.4825 41.8945 18.6479C39.6876 20.3842 37.1942 20.7093 35.0452 19.3404C33.3708 18.274 30.708 21.3227 29.4847 22.734C28.6573 23.688 28.9124 25.2003 28.9507 26.4703C28.9981 28.0469 29.1543 29.6207 29.4157 31.1754C29.6227 32.403 29.9935 33.7612 31.0614 34.3768C31.8575 34.8361 32.8829 34.7725 33.6406 35.2941C34.7552 36.0615 34.8019 37.6883 34.6569 39.0466C34.4276 41.1985 34.0135 43.3263 33.4363 45.409C34.2554 45.3489 35.0779 45.3475 35.9033 45.3701C37.0227 45.4012 38.1332 45.4387 39.2512 45.3581C39.5545 45.3362 39.857 45.3086 40.1588 45.2761C40.2871 45.262 40.416 45.2471 40.5443 45.2316C40.5931 45.2259 40.6412 45.2196 40.69 45.2132C41.2288 45.1305 41.7656 45.0436 42.3009 44.939C44.3586 44.5362 46.3759 43.9546 48.3905 43.3737C47.9158 41.1299 47.5414 38.8636 47.2703 36.5852C47.2278 36.2255 47.1887 35.8502 47.3121 35.5096C47.4487 35.1308 47.7652 34.8531 48.0684 34.5923C48.5787 34.1542 49.0896 33.7153 49.5999 33.2771C49.9986 32.9344 50.4057 32.5825 50.6636 32.1217C51.1968 31.1684 50.9849 29.9839 50.7584 28.9126H50.7591ZM34.5391 33.027C34.5279 33.0736 34.4868 33.1054 34.4422 33.1153C34.3446 33.374 33.9919 33.4517 33.7688 33.328C33.5667 33.2164 33.4377 33.056 33.3109 32.8666C33.2098 32.822 33.1101 32.7754 33.0083 32.7323C33.0021 32.7323 32.9944 32.7309 32.9874 32.7302C32.9393 32.9542 32.7693 33.1471 32.4765 33.1471C32.0548 33.1471 31.8875 32.7485 31.9732 32.4305C31.9098 32.3952 31.8498 32.3563 31.7934 32.3146C31.7146 32.2814 31.6372 32.2447 31.5626 32.203C31.4086 32.1168 31.3019 31.9747 31.2817 31.7959C31.2636 31.6355 31.3131 31.4737 31.3723 31.3267C31.5347 30.9224 31.7216 30.5239 31.9049 30.1288C31.9133 30.1104 31.9223 30.0921 31.9307 30.0744C31.937 30.0596 31.9432 30.0454 31.9509 30.032C32.1433 29.6264 32.3573 29.2313 32.6243 28.8716C32.6647 28.8172 32.7316 28.7882 32.7943 28.8264C32.8285 28.8469 32.8536 28.8893 32.8564 28.9317C32.8682 28.9493 32.8752 28.9706 32.8752 28.9953C32.8752 29.0158 32.8752 29.0363 32.8752 29.0568C32.8884 29.0843 32.8968 29.1161 32.8961 29.1543C32.8933 29.2561 32.8982 29.3557 32.9073 29.4532C32.9358 29.702 33.0104 29.9444 33.1004 30.1832C33.1275 30.2384 33.154 30.2935 33.1819 30.3479C33.2209 30.362 33.2558 30.3917 33.2802 30.4426C33.4259 30.7528 33.6768 31.0857 33.8351 31.4348C33.8553 31.4708 33.8748 31.5076 33.8943 31.5436C33.9145 31.5606 33.9326 31.5846 33.9473 31.6164C33.987 31.7069 34.0302 31.7952 34.0742 31.8828C34.1104 31.9507 34.1473 32.0185 34.185 32.0864C34.2512 32.1683 34.3153 32.2524 34.3725 32.3415C34.5028 32.5443 34.5983 32.7832 34.5391 33.027Z" fill="#DEBF97"/>
<path d="M30.1215 30.2567C29.9681 30.003 29.8838 29.697 29.805 29.4051C29.0675 26.6603 28.1125 23.9763 26.9512 21.3863C26.5009 20.3821 26.013 19.3814 25.3131 18.5369C23.2561 16.0557 19.7701 15.3645 16.5733 15.3758C16.7964 16.1292 16.4367 16.9871 15.8059 17.4465C15.1757 17.9051 14.3302 17.9941 13.5787 17.7984C12.5527 17.5383 11.9469 16.826 11.3941 15.9744C10.6302 14.7956 10.3534 15.0621 8.99902 15.5165C7.56238 15.9984 6.07554 16.5101 4.97418 17.5616C4.2088 18.2924 3.68112 19.2365 3.16529 20.1651C2.7833 20.8527 2.40062 21.541 2.01862 22.2287C0.717206 24.5713 -0.622552 27.3133 0.312211 29.8292C0.602887 30.6108 1.09501 31.2955 1.58157 31.9697L2.69547 33.5132L7.27797 39.8635C7.44945 40.101 7.63069 40.3469 7.8893 40.4805C8.1019 40.59 8.34587 40.6119 8.58357 40.6324C11.0386 40.8423 13.4937 41.0529 15.9495 41.2628C16.4897 41.3087 17.039 41.3582 17.5555 41.5151C17.6175 41.5037 17.681 41.4939 17.7416 41.479C17.8399 41.455 17.9375 41.4274 18.0337 41.3956C18.0455 41.3914 18.063 41.3857 18.0818 41.3787C18.1278 41.3568 18.1794 41.3313 18.2058 41.3165C18.2714 41.2797 18.3348 41.2402 18.3975 41.1992C18.4442 41.1553 18.4958 41.1151 18.5411 41.0705C18.5913 41.0204 18.6373 40.9674 18.6847 40.9151C18.751 40.814 18.8179 40.7137 18.8771 40.6077C18.9385 40.4974 18.9921 40.3836 19.0458 40.2699C19.0695 40.2041 19.0939 40.1384 19.1162 40.072C19.3497 39.378 19.4864 38.6536 19.6014 37.9314C19.7889 36.7597 19.9032 35.5576 20.2085 34.4071C20.2733 34.1619 20.3117 33.9103 20.3166 33.6566C20.3166 33.6439 20.3166 33.6312 20.318 33.6184C20.3305 33.2863 20.3967 32.9294 20.4873 32.6065C20.5536 32.3697 20.6351 32.1379 20.7041 31.9026C20.7209 31.8468 20.7355 31.7902 20.7494 31.7337L20.8177 31.3047C20.8951 30.4857 21.4925 29.827 22.306 29.7161C23.0951 29.6087 24.0354 30.1168 24.1992 30.9691C24.2717 31.3457 24.3309 31.7224 24.3797 32.0998C24.9827 31.8934 25.709 32.0828 26.1559 32.5252C26.3643 32.7323 26.5839 32.9259 26.7916 33.1308C27.0544 33.2531 27.2823 33.4397 27.4559 33.6778C27.8581 33.417 28.284 33.1994 28.7273 33.0163C28.5998 32.7111 28.5245 32.3711 28.5112 31.9987C28.4778 31.0553 29.2606 30.3571 30.1222 30.2595L30.1215 30.2567Z" fill="#2D5D63"/>
<path d="M14.0732 15.1206C14.6183 16.011 15.261 16.8675 16.1191 17.4513C16.9772 18.0357 18.0841 18.3163 19.067 17.9926C20.0582 17.6661 20.7685 16.8018 21.4119 15.9707C21.6775 15.6273 21.9445 15.2761 22.0999 14.869C22.2651 14.4351 22.2937 13.9623 22.3808 13.5058C22.5014 12.8782 22.7335 12.279 22.9643 11.6839C23.6307 9.96313 24.2782 7.96531 23.4076 6.34062C22.5983 4.83182 20.6932 4.22477 19.0112 4.42901C16.7276 4.70603 14.7821 6.29044 13.6822 8.28897C12.3201 10.7624 12.6212 12.7482 14.0739 15.1213L14.0732 15.1206Z" fill="#E3C1B1"/>
<path d="M16.4744 8.01917C17.3318 7.42343 18.4777 7.15277 19.4271 7.58244C19.9179 7.80434 20.3312 8.19797 20.8492 8.34213C21.4584 8.51174 22.099 8.30962 22.725 8.22835C23.8486 8.08278 24.9807 8.33082 26.1099 8.42764C27.2391 8.52446 28.4618 8.44178 29.3603 7.74215C30.5383 6.82486 30.6387 4.65672 29.338 3.92953C28.5908 3.51187 27.6776 3.65321 26.8251 3.69208C25.9726 3.73095 24.9807 3.57548 24.5443 2.83133C24.3331 2.47091 24.2954 2.03488 24.1463 1.64479C23.6479 0.345883 22.0307 -0.144563 20.6679 0.0391771C19.3052 0.222918 18.0525 0.890037 16.7128 1.20098C15.4609 1.49143 13.9775 1.5621 13.2282 2.62003C12.872 3.12319 12.7639 3.75922 12.6796 4.37263C12.3659 6.66515 12.2551 8.98664 12.3485 11.2989C12.9465 11.4318 13.4024 10.7315 13.4903 10.1159C13.5223 9.89333 13.7991 7.38456 14.4606 8.50326C14.7812 9.04529 13.7733 9.59086 14.4153 10.3188C15.0531 9.50182 15.6038 8.62269 16.4737 8.01776L16.4744 8.01917Z" fill="black"/>
<path d="M12.8418 13.1406L11.3389 14.9483C11.1786 15.1413 11.0092 15.3554 11.0022 15.6077C10.9967 15.7886 11.0768 15.9596 11.1549 16.1229C11.3605 16.5533 11.5668 16.9829 11.7725 17.4133C11.884 17.6458 11.9976 17.8818 12.1698 18.0719C12.3789 18.303 12.6626 18.4521 12.9547 18.5553C14.284 19.0239 15.8886 18.5101 16.7119 17.3525C16.3069 15.3533 14.7594 13.7646 12.8425 13.1406H12.8418Z" fill="#E3C1B1"/>
<path d="M31.4203 31.8868C31.8259 32.1313 32.3425 32.3715 32.3961 32.8472C32.4345 33.1864 32.1947 33.5044 31.904 33.6775C31.6133 33.8507 31.2746 33.9157 30.9525 34.0153C30.383 34.1906 29.8526 34.4775 29.2893 34.6754C28.0193 35.1206 26.6426 35.0937 25.2993 35.0619C24.9689 35.0542 24.6211 35.0414 24.3395 34.8655C23.7337 34.4874 23.7456 33.6054 23.8299 32.8896C23.8557 32.6698 23.901 32.4189 24.0899 32.3072C24.2063 32.2387 24.3492 32.2422 24.4838 32.2366C25.4171 32.1949 26.2229 31.5991 27.0002 31.0734C27.6275 30.6493 28.7303 29.9299 29.5382 30.1963C30.2645 30.4352 30.7392 31.4776 31.4203 31.8882V31.8868Z" fill="#E3C1B1"/>
<path d="M20.5074 45.4998L20.2516 49.0665C20.2356 49.2877 20.2209 49.5187 20.3053 49.7237C20.3896 49.9293 20.5653 50.0855 20.7597 50.1901C21.5063 50.5908 22.5596 50.1767 22.8447 49.3703C22.9213 49.1541 22.9471 48.9237 22.9736 48.6961C23.097 47.6071 23.2211 46.5167 23.2552 45.4206C23.2929 44.1994 23.219 42.9776 23.1444 41.7585C23.1263 41.4546 23.1012 41.1338 22.9269 40.8858C22.6279 40.4617 21.988 40.4285 21.5286 40.661C20.7814 41.0398 20.6378 41.7182 20.644 42.4666C20.6531 43.4786 20.5806 44.4842 20.5081 45.4998H20.5074Z" fill="#E3C1B1"/>
<path d="M34.4566 45.4998L34.2008 49.0665C34.1848 49.2877 34.1701 49.5187 34.2545 49.7237C34.3388 49.9293 34.5145 50.0855 34.709 50.1901C35.4555 50.5908 36.5088 50.1767 36.7939 49.3703C36.8706 49.1541 36.8964 48.9237 36.9228 48.6961C37.0462 47.6071 37.1703 46.5167 37.2045 45.4206C37.2421 44.1994 37.1682 42.9776 37.0936 41.7585C37.0755 41.4546 37.0504 41.1338 36.8761 40.8858C36.5771 40.4617 35.9372 40.4285 35.4778 40.661C34.7306 41.0398 34.587 41.7182 34.5933 42.4666C34.6023 43.4786 34.5298 44.4842 34.4573 45.4998H34.4566Z" fill="#E3C1B1"/>
<path d="M31.6907 31.6648L34.8582 32.71C35.2367 32.8351 35.6291 32.968 35.9163 33.2478C36.1665 33.4916 36.3115 33.8238 36.4412 34.1503C37.2616 36.2216 37.6931 38.4505 37.705 40.6823C36.582 41.5812 35.0143 41.8759 33.6487 41.4448C33.6048 43.8179 33.563 46.2114 33.9973 48.5442C34.1513 49.3704 34.3096 50.3732 33.6829 50.9237C33.4996 51.0848 33.2709 51.1802 33.0444 51.2671C31.8427 51.7293 30.6367 52.0268 29.352 52C27.716 51.9668 26.0863 51.6537 24.5521 51.0777C24.3248 50.9922 24.0948 50.8989 23.9108 50.7399C23.2792 50.1951 23.4291 49.1909 23.5762 48.3633C23.9909 46.027 23.9282 43.6341 23.8641 41.261C22.502 41.7041 20.9315 41.4229 19.8009 40.5339C19.7939 38.3021 20.2059 36.0697 21.0089 33.9913C21.1357 33.6634 21.2779 33.3305 21.5261 33.0846C21.8105 32.8026 22.2023 32.6662 22.5794 32.5376L25.7378 31.4648C25.5851 31.9178 25.9573 32.4125 26.3282 32.7086C26.8433 33.1192 27.4853 33.363 28.1392 33.3969C28.8801 33.4351 29.6093 33.2118 30.3001 32.9376C30.5991 32.8189 30.8988 32.6867 31.1491 32.4825C31.3993 32.2775 31.6572 31.9892 31.6921 31.6655L31.6907 31.6648Z" fill="#4DB6A9"/>
<path d="M25.3651 29.833C25.5568 30.5799 25.7945 31.3403 26.288 31.9269C26.7822 32.5135 27.5929 32.8887 28.3186 32.6562C28.6796 32.5403 28.9843 32.2894 29.2429 32.0089C30.6391 30.4916 30.7771 28.2033 30.6718 26.1306C30.6572 25.8408 30.637 25.5433 30.5171 25.2797C30.3665 24.9483 30.0724 24.7052 29.7601 24.5229C28.3109 23.6741 26.1361 23.9667 25.1427 25.426C24.3725 26.5581 25.0591 28.6394 25.3651 29.8323V29.833Z" fill="#E3C1B1"/>
<path d="M8.32327 25.2969L7.94964 25.8997L7.00442 27.4254C6.83991 27.6912 6.67192 27.9646 6.6057 28.2714C6.4405 29.0374 6.93471 29.7787 7.4366 30.3759C8.14691 31.2218 8.93041 32.0147 9.50618 32.9596C9.8345 33.4988 10.1203 34.1129 10.6647 34.4238L9.72367 32.2069C9.60308 31.9221 9.48039 31.6338 9.29497 31.3872C9.10258 31.1306 8.84955 30.9285 8.60558 30.7222C8.08487 30.2819 7.57392 29.7879 7.32507 29.1484C7.07622 28.5088 7.15778 27.6905 7.68127 27.2544C7.98449 26.5958 8.07023 25.9393 8.32396 25.2969H8.32327Z" fill="#1F4649"/>
<path d="M23.9866 29.5458C24.2773 30.1281 24.478 30.7564 24.5791 31.4002L24.7659 31.3973C24.8342 30.4991 24.6112 29.5804 24.14 28.8172C24.0396 28.6554 23.9266 28.4978 23.7775 28.3804C23.3432 28.0398 22.6238 28.1649 22.3506 28.6398C23.1829 28.6285 23.5649 28.7006 23.9859 29.5451L23.9866 29.5458Z" fill="#1F4649"/>
<path d="M9.8905 38.3514C9.56985 38.4864 9.17671 38.656 9.14534 39.0065C9.13001 39.1818 9.21714 39.3465 9.26314 39.5161C9.30915 39.6857 9.29521 39.9033 9.14395 39.9895L9.54127 40.0058C9.45693 39.5302 9.77967 39.0157 10.2404 38.8928C10.453 38.8362 10.704 38.8433 10.8531 38.68C11.0218 38.4956 10.9835 38.1917 11.1661 38.02C11.3732 37.8249 11.7914 38.0582 11.8897 37.6794C12.1016 36.861 10.6503 37.5642 10.4781 37.6045C10.4753 37.9797 10.216 38.2143 9.88911 38.3521L9.8905 38.3514Z" fill="#1F4649"/>
<path d="M10.9739 42.0002C11.4046 42.8609 11.9135 43.7945 12.8085 44.1238C13.2512 44.2864 13.7349 44.2765 14.2061 44.2651C14.4731 44.2581 14.7499 44.2496 14.991 44.133C15.4609 43.9054 15.6644 43.3436 15.7669 42.8256C15.8533 42.386 15.8763 41.8659 15.5543 41.5585C15.0956 41.1197 14.1455 41.3204 13.9266 40.7211C13.896 40.637 13.8883 40.5359 13.9406 40.4638C14.0695 40.2857 14.3351 40.4568 14.5073 40.5917C14.7966 40.8186 15.1758 40.9246 15.5389 40.8815C15.7237 40.613 15.6065 40.2207 15.3682 39.9995C15.1298 39.7783 14.8056 39.6872 14.4933 39.6024L12.8239 39.1487C12.6036 39.0886 12.3729 39.0236 12.2077 38.8646C12.0376 38.7013 11.9609 38.4625 11.8152 38.2759C11.6695 38.0893 11.383 37.9657 11.2067 38.1219C11.1007 38.2158 11.0791 38.3727 11.008 38.4964C10.6107 39.1847 9.55603 38.6731 9.71915 39.6674C9.82719 40.3246 10.6602 41.3755 10.9732 42.0016L10.9739 42.0002Z" fill="#E3C1B1"/>
<path d="M15.6296 16.5704C15.7858 16.7556 16.0242 16.957 16.2368 16.8432L16.2298 16.598C15.6784 16.4107 15.4484 15.7697 15.2044 15.2348C14.9082 14.5853 14.4976 13.9974 14.0891 13.4136C13.9211 13.1733 13.7657 13.015 13.4764 13.0059C13.015 13.9691 15.0595 15.8913 15.6303 16.5697L15.6296 16.5704Z" fill="#C4A497"/>
<path d="M43.2948 33.5561C43.444 33.4042 43.5562 33.219 43.7012 33.0629C43.9298 32.8169 44.2296 32.6537 44.5147 32.4784C45.126 32.1025 45.6927 31.653 46.1995 31.1414C46.3438 30.9958 46.486 30.8417 46.5696 30.653C46.6756 30.4149 46.6777 30.1442 46.6742 29.8834C46.6519 28.4319 46.4769 26.9825 46.1549 25.5684C46.0852 27.1365 45.9374 28.7004 45.7136 30.253C45.6844 30.458 45.6523 30.6657 45.5659 30.853C45.4822 31.0353 45.3505 31.1901 45.2166 31.3392C44.2505 32.4148 43.0899 33.3109 41.8108 33.9703C41.6316 34.0621 41.4497 34.1505 41.2845 34.2671C41.0851 34.4084 40.9422 34.5709 40.9199 34.8049C41.6072 34.2084 42.6549 34.2091 43.2955 33.5561H43.2948Z" fill="#AF8F6D"/>
<path d="M33.3921 30.249C33.6012 30.6943 33.9421 31.0589 34.2781 31.4158C34.1296 31.0314 33.8215 30.731 33.6479 30.3572C33.206 29.4067 33.7211 28.2286 33.3405 27.252C33.0673 28.1487 32.9857 29.3855 33.3921 30.249Z" fill="#AF8F6D"/>
<path d="M46.2572 37.5498L46.5158 38.5688C46.642 39.0656 46.7682 39.5667 46.7919 40.079C46.8058 40.3822 46.7828 40.6868 46.8072 40.9892C46.872 41.792 47.2638 42.5397 47.3272 43.3425C47.2666 42.2323 47.2059 41.1221 47.1453 40.0119C47.1097 39.3554 47.0714 38.6875 46.849 38.0706C46.6671 37.5653 46.3695 37.0692 46.0195 36.6699C46.0718 36.9639 46.1819 37.2537 46.2572 37.5498Z" fill="#AF8F6D"/>
<path d="M37.3425 17.8516C37.2233 17.993 37.0413 18.147 36.8789 18.0601L36.8845 17.8728C37.3055 17.7301 37.4812 17.241 37.6673 16.8319C37.8931 16.3358 38.2068 15.887 38.5184 15.4418C38.6467 15.2588 38.7652 15.1372 38.9861 15.1309C39.3381 15.8658 37.7774 17.3336 37.3418 17.8509L37.3425 17.8516Z" fill="#C4A497"/>
<path d="M28.5833 32.2694C28.4969 32.3585 28.3673 32.4532 28.2627 32.3867L28.2752 32.2617C28.5645 32.186 28.7053 31.8659 28.8496 31.6009C29.0246 31.2787 29.256 30.9924 29.4867 30.7083C29.5815 30.5917 29.6666 30.5161 29.8158 30.5218C30.0179 31.0327 28.9005 31.9429 28.584 32.2694H28.5833Z" fill="#C4A497"/>
<path d="M35.5642 9.65056C36.5478 9.11489 37.861 9.29085 38.6738 10.0675C39.7626 11.1085 39.803 12.8088 39.9571 14.3183C40.0728 15.4568 40.2952 16.5804 40.5161 17.7026C40.597 18.1139 40.7378 18.5952 41.1323 18.721C41.7179 18.9076 42.1354 18.1726 42.6248 17.7959C43.0611 17.4602 43.6508 17.3959 44.1046 17.0857C44.7808 16.6228 45.0122 15.7055 44.9571 14.8801C44.9021 14.0547 44.6177 13.2639 44.488 12.447C44.3075 11.3078 44.4295 10.1262 44.1548 9.00606C43.6111 6.78845 41.6036 5.22171 39.4935 4.41678C38.8007 4.15248 38.0736 3.94895 37.3333 3.95319C35.9009 3.96167 34.5841 4.74257 33.4591 5.64148C32.3723 6.51001 31.3497 7.57853 30.9922 8.93397C30.6631 10.1799 31.2668 10.6223 32.3347 10.5587C32.8484 10.5283 33.4521 10.635 33.9568 10.5431C34.5772 10.4308 35.0268 9.94313 35.5642 9.65056Z" fill="black"/>
<path d="M24.8087 26.8448C24.8819 27.0441 25.1168 27.1303 25.326 27.1352C25.5351 27.1402 25.7463 27.0886 25.9533 27.1211C26.3479 27.1833 26.6741 27.5402 27.0721 27.5176C27.6123 27.4879 27.9434 26.784 28.4844 26.7727C28.7806 26.7664 29.0769 26.9777 29.3557 26.8752C29.4637 26.8356 29.569 26.7487 29.6805 26.7791C29.8157 26.8158 29.8492 26.989 29.9182 27.1126C29.9872 27.2363 30.2214 27.2808 30.2277 27.1395C30.6411 27.3685 30.2884 28.1741 30.692 28.4193L30.8913 26.7861C30.9617 26.2109 31.03 25.613 30.8474 25.0632C30.5114 24.0519 29.3773 23.4845 28.3247 23.5212C27.2729 23.5587 26.297 24.0767 25.4159 24.6604C25.2235 24.7876 25.0297 24.9233 24.8959 25.1134C24.7648 25.3 24.7021 25.5254 24.6421 25.7459C24.5899 25.9374 24.4881 26.2137 24.5341 26.4144C24.5871 26.6441 24.7279 26.6264 24.8073 26.8434L24.8087 26.8448Z" fill="black"/>
<path d="M41.5828 36.1846C41.6177 36.3513 41.6972 36.5054 41.7752 36.6566C41.8596 36.8192 41.946 36.9852 42.0805 37.1082C42.1426 37.1647 42.2137 37.2107 42.266 37.2764C42.3761 37.4149 42.3796 37.6093 42.4451 37.7746C42.5106 37.94 42.717 38.0834 42.8529 37.9718C42.8717 38.1032 42.9149 38.2629 43.0425 38.2926C43.1735 38.3237 43.2913 38.1718 43.2774 38.0354C43.2635 37.899 43.1624 37.7902 43.0571 37.7054C42.9519 37.6199 42.8341 37.5442 42.7609 37.4297C42.6619 37.275 42.6598 37.0722 42.5608 36.9181C42.4897 36.8072 42.3761 36.733 42.2729 36.6503C42.0227 36.4503 41.8219 36.1881 41.693 35.892C41.6114 35.704 41.5389 35.5309 41.3389 35.4531C41.3849 35.6899 41.5285 35.9231 41.5828 36.1846Z" fill="#AF8F6D"/>
<path d="M45.5733 37.0222C45.5106 37.0752 45.4674 37.1437 45.4283 37.2172C45.3879 37.2943 45.353 37.3769 45.3084 37.4512C45.1586 37.6985 44.8721 37.8858 44.5911 37.9147C44.5549 37.4462 45.2882 37.2632 45.5733 37.0215V37.0222Z" fill="#C18E57"/>
<path d="M31.4978 21.3927C31.585 21.2732 31.6484 21.1361 31.7446 21.0238C32.0374 20.6817 32.5427 20.6436 32.9289 20.416C33.1478 20.2867 33.3304 20.0945 33.5646 19.9977C33.8393 19.8839 34.208 19.8789 34.3391 19.609C34.2875 19.5496 34.2045 19.5291 34.1265 19.5235C33.8295 19.503 33.5479 19.6457 33.2837 19.7856L32.2918 20.3086C31.9732 20.4768 31.6456 20.652 31.4163 20.9326C31.2804 21.0994 31.1835 21.298 31.0343 21.452C30.9318 21.5587 30.807 21.6414 30.7081 21.751C30.577 21.8958 30.4934 22.0824 30.4982 22.2753C30.7959 22.1637 31.295 21.6718 31.4971 21.3927H31.4978Z" fill="#AF8F6D"/>
<path d="M43.7807 19.3065C43.8692 19.4019 43.9508 19.5128 44.0714 19.5588C44.1912 19.604 44.3258 19.5757 44.4513 19.6026C44.6185 19.6386 44.7482 19.7673 44.8827 19.8747C45.0675 20.0224 45.2759 20.1369 45.4829 20.2499L46.6658 20.8987C46.3305 20.5178 45.9799 20.1255 45.5199 19.9171C45.3651 19.8471 45.1978 19.7976 45.064 19.693C44.949 19.6033 44.8639 19.4768 44.7384 19.4026C44.6241 19.3355 44.4882 19.3192 44.3662 19.2697C44.1696 19.1899 44.017 19.0295 43.8364 18.9157C43.5249 18.7199 43.1031 18.6584 42.749 18.7517C42.9519 19.0076 43.5074 19.0111 43.7814 19.3065H43.7807Z" fill="#AF8F6D"/>
<path d="M41.2268 39.3201C40.796 39.9413 40.2962 40.6105 39.5629 40.7646C39.2004 40.8409 38.8247 40.778 38.4594 40.7158C38.2517 40.6805 38.0377 40.6416 37.8627 40.5236C37.5219 40.2932 37.4257 39.8325 37.4034 39.4176C37.3846 39.0657 37.4243 38.6579 37.7087 38.4551C38.1144 38.1661 38.8324 38.4297 39.0687 37.988C39.1021 37.9258 39.1189 37.8481 39.0861 37.7859C39.0052 37.6325 38.7801 37.7357 38.6309 37.8212C38.3807 37.9647 38.074 38.005 37.7958 37.9293C37.6822 37.699 37.816 37.4071 38.0259 37.2622C38.2357 37.1173 38.4985 37.0827 38.7508 37.0523L40.101 36.8891C40.2795 36.8679 40.4656 36.8431 40.6127 36.7378C40.7632 36.6297 40.8497 36.4523 40.9835 36.3244C41.1173 36.1958 41.3543 36.1322 41.4742 36.2736C41.5467 36.3591 41.546 36.4834 41.5879 36.588C41.8207 37.1689 42.699 36.8905 42.462 37.6459C42.3051 38.1456 41.5405 38.8692 41.2275 39.3208L41.2268 39.3201Z" fill="#E3C1B1"/>
</svg>
