<svg width="102" height="103" viewBox="0 0 102 103" fill="none" xmlns="http://www.w3.org/2000/svg">
<path d="M85.7497 36.3272C87.4866 37.2888 89.642 38.5724 89.4321 40.5672C89.2733 42.0761 87.7807 43.0238 86.4111 43.6355C78.4028 47.2064 70.7688 50.0648 62.9 46.1902C62.9801 44.8282 62.8931 41.5498 64.2145 41.2895C65.9556 40.9451 67.5061 39.8617 68.6079 38.4521C69.3259 37.5338 69.8658 36.4853 70.552 35.5419C72.2945 33.1496 74.8792 31.5608 77.3977 30.0336C80.1453 28.3679 79.9299 29.6053 80.9724 31.369C82.262 33.5513 83.4591 35.0575 85.7524 36.3272H85.7497Z" fill="#E3C1B1"/>
<path d="M70.3651 36.5856C72.1766 37.7909 74.6909 37.3219 76.4582 36.0509C78.2255 34.7799 79.413 32.8622 80.5548 30.9948C81.2162 29.9128 81.8803 28.8251 82.3608 27.6493C83.4875 24.8945 83.5469 21.8233 83.4516 18.8431C83.3798 16.616 83.0208 14.025 81.1182 12.9094C80.3353 12.4502 79.4088 12.3298 78.5113 12.2179C75.2722 11.8161 71.8272 11.4438 68.878 12.8618C67.9225 13.3209 67.0568 13.9536 66.2408 14.6367C64.925 15.7384 63.6796 17.0514 63.1811 18.7073C62.187 22.0081 64.0123 25.6056 65.5463 28.4206C66.9063 30.9178 67.9446 34.9759 70.3651 36.5856Z" fill="#E3C1B1"/>
<path d="M101.528 57.2657C100.754 53.6192 99.9826 49.9727 99.2094 46.3248C98.9747 45.2148 98.7248 44.0711 98.0841 43.1417C97.5539 42.3732 96.7918 41.8035 96.0268 41.2757C93.0169 39.2026 89.7266 37.5481 86.2761 36.3736C85.9738 36.27 85.6603 36.1707 85.3428 36.1959C84.8181 36.2378 84.3846 36.606 83.969 36.9335C79.5976 40.3729 74.6587 41.0168 70.4019 38.3054C67.0854 36.1931 61.811 42.2318 59.3879 45.0272C57.7489 46.9169 58.2543 49.9125 58.3302 52.428C58.4241 55.5509 58.7334 58.6683 59.2512 61.7478C59.6613 64.1793 60.3958 66.8697 62.5111 68.089C64.0879 68.9988 66.1189 68.8728 67.6198 69.9059C69.8275 71.4261 69.9201 74.6484 69.6329 77.3389C69.1786 81.6013 68.3585 85.8161 67.2152 89.9413C68.8376 89.8223 70.4668 89.8195 72.1016 89.8643C74.3191 89.9259 76.5185 90.0001 78.7332 89.8405C79.3339 89.7971 79.9331 89.7425 80.5309 89.6781C80.785 89.6501 81.0404 89.6207 81.2945 89.5899C81.3911 89.5787 81.4864 89.5661 81.5831 89.5535C82.6504 89.3898 83.7135 89.2176 84.7739 89.0104C88.8498 88.2125 92.8456 87.0605 96.8359 85.9098C95.8957 81.4655 95.1542 76.9763 94.6171 72.4633C94.5329 71.7508 94.4556 71.0075 94.7 70.3328C94.9706 69.5825 95.5974 69.0324 96.198 68.5159C97.2087 67.648 98.2208 66.7787 99.2315 65.9109C100.021 65.232 100.828 64.5349 101.338 63.6222C102.395 61.7339 101.975 59.3878 101.526 57.2657H101.528ZM69.3995 65.4153C69.3774 65.5077 69.296 65.5707 69.2076 65.5903C69.0143 66.1026 68.3156 66.2566 67.8738 66.0117C67.4734 65.7905 67.218 65.4727 66.9667 65.0976C66.7665 65.0094 66.569 64.917 66.3674 64.8316C66.355 64.8316 66.3398 64.8288 66.326 64.8274C66.2308 65.2712 65.8939 65.6533 65.314 65.6533C64.4786 65.6533 64.1472 64.8638 64.3171 64.2339C64.1914 64.1639 64.0727 64.0869 63.9608 64.0043C63.8048 63.9385 63.6516 63.8658 63.5038 63.7832C63.1987 63.6124 62.9874 63.331 62.9474 62.9769C62.9115 62.6591 63.0095 62.3386 63.1269 62.0474C63.4486 61.2467 63.8186 60.4572 64.1818 59.6747C64.1983 59.6383 64.2163 59.602 64.2328 59.567C64.2453 59.5376 64.2577 59.5096 64.2729 59.483C64.654 58.6795 65.0778 57.897 65.6067 57.1845C65.6867 57.0767 65.8193 57.0193 65.9436 57.0949C66.0112 57.1355 66.0609 57.2195 66.0664 57.3035C66.0899 57.3385 66.1037 57.3805 66.1037 57.4295C66.1037 57.4701 66.1037 57.5106 66.1037 57.5512C66.13 57.6058 66.1465 57.6688 66.1451 57.7444C66.1396 57.946 66.1493 58.1434 66.1672 58.3365C66.2239 58.8293 66.3716 59.3094 66.5497 59.7825C66.6035 59.8917 66.656 60.0009 66.7112 60.1087C66.7886 60.1367 66.8576 60.1955 66.9059 60.2963C67.1945 60.9108 67.6916 61.5701 68.005 62.2616C68.045 62.333 68.0837 62.4058 68.1223 62.4771C68.1624 62.5107 68.1983 62.5583 68.2273 62.6213C68.306 62.8005 68.3916 62.9755 68.4786 63.1491C68.5504 63.2834 68.6236 63.4178 68.6981 63.5522C68.8293 63.7146 68.9563 63.8811 69.0695 64.0575C69.3277 64.4593 69.5169 64.9324 69.3995 65.4153Z" fill="#DEBF97"/>
<path d="M60.6492 59.9277C60.3454 59.4252 60.1784 58.819 60.0223 58.2409C58.5615 52.8041 56.6699 47.4876 54.3696 42.3574C53.4777 40.3682 52.5112 38.3861 51.1249 36.7134C47.0504 31.7986 40.1454 30.4296 33.8134 30.452C34.2552 31.9442 33.5428 33.6436 32.2932 34.5535C31.045 35.4619 29.3702 35.6383 27.8818 35.2506C25.8493 34.7354 24.6495 33.3244 23.5546 31.6377C22.0413 29.3028 21.4931 29.8305 18.8104 30.7306C15.9647 31.6853 13.0196 32.6987 10.8381 34.7816C9.32204 36.229 8.27683 38.0992 7.25509 39.9385C6.49845 41.3005 5.74043 42.6639 4.98379 44.0259C2.40597 48.6663 -0.247783 54.0975 1.60377 59.0808C2.17954 60.629 3.15433 61.9854 4.11808 63.3208L6.32448 66.378L15.4014 78.9566C15.741 79.4269 16.1 79.9141 16.6123 80.1786C17.0334 80.3956 17.5167 80.439 17.9875 80.4796C22.8504 80.8953 27.7133 81.3125 32.5776 81.7282C33.6477 81.8192 34.7357 81.9172 35.7588 82.2279C35.8817 82.2056 36.0074 82.186 36.1275 82.1566C36.3222 82.109 36.5155 82.0544 36.706 81.9914C36.7295 81.983 36.764 81.9718 36.8013 81.9578C36.8924 81.9144 36.9946 81.864 37.047 81.8346C37.1768 81.7618 37.3025 81.6834 37.4267 81.6022C37.5192 81.5154 37.6214 81.4357 37.7112 81.3475C37.8106 81.2481 37.9017 81.1431 37.9956 81.0395C38.1268 80.8393 38.2593 80.6406 38.3767 80.4306C38.4982 80.2122 38.6045 79.9869 38.7108 79.7615C38.7578 79.6313 38.8061 79.5011 38.8503 79.3696C39.3128 77.9949 39.5834 76.5601 39.8113 75.1295C40.1827 72.8087 40.4091 70.4276 41.0139 68.1487C41.1423 67.663 41.2182 67.1647 41.2279 66.6621C41.2279 66.6369 41.2279 66.6117 41.2306 66.5866C41.2555 65.9286 41.3867 65.2217 41.5662 64.582C41.6973 64.1131 41.8589 63.654 41.9956 63.1878C42.0287 63.0772 42.0577 62.9653 42.0853 62.8533L42.2206 62.0036C42.3739 60.3812 43.5572 59.0766 45.1685 58.8568C46.7315 58.6441 48.5941 59.6505 48.9185 61.3387C49.0621 62.0848 49.1795 62.8309 49.2761 63.5784C50.4705 63.1696 51.9092 63.5448 52.7942 64.4211C53.2071 64.8312 53.642 65.2147 54.0535 65.6207C54.574 65.8629 55.0255 66.2324 55.3693 66.7041C56.166 66.1876 57.0096 65.7565 57.8877 65.3939C57.6351 64.7892 57.4859 64.1159 57.4597 63.3782C57.3934 61.5095 58.944 60.1265 60.6506 59.9333L60.6492 59.9277Z" fill="#2D5D63"/>
<path d="M28.8612 29.9465C29.941 31.7103 31.214 33.4068 32.9137 34.5631C34.6133 35.7207 36.8059 36.2764 38.7528 35.6353C40.7162 34.9886 42.1231 33.2766 43.3975 31.6305C43.9236 30.9502 44.4524 30.2545 44.7603 29.4482C45.0875 28.5887 45.1441 27.6522 45.3167 26.748C45.5556 25.5049 46.0154 24.3179 46.4724 23.1393C47.7924 19.7308 49.0751 15.7735 47.3505 12.5554C45.7475 9.56679 41.974 8.36435 38.6423 8.7689C34.119 9.31762 30.2654 12.456 28.0866 16.4146C25.3887 21.3139 25.9852 25.2474 28.8626 29.9479L28.8612 29.9465Z" fill="#E3C1B1"/>
<path d="M33.6174 15.8803C35.3157 14.7003 37.5856 14.1641 39.4661 15.0152C40.4382 15.4548 41.2569 16.2345 42.2828 16.52C43.4896 16.856 44.7585 16.4556 45.9983 16.2946C48.2241 16.0063 50.4664 16.4976 52.7032 16.6894C54.9399 16.8812 57.3617 16.7174 59.1415 15.3316C61.4749 13.5146 61.6737 9.22004 59.0973 7.77965C57.6172 6.95236 55.8084 7.23232 54.1198 7.30931C52.4312 7.3863 50.4664 7.07835 49.602 5.60435C49.1837 4.89045 49.1091 4.02678 48.8137 3.25408C47.8264 0.681247 44.6231 -0.290216 41.9238 0.0737324C39.2245 0.437681 36.7433 1.75909 34.0896 2.37501C31.6098 2.95033 28.6716 3.09031 27.1873 5.18581C26.4818 6.18247 26.2678 7.44229 26.1007 8.65732C25.4794 13.1983 25.2598 17.7966 25.4448 22.3768C26.6295 22.64 27.5325 21.2527 27.7065 20.0335C27.77 19.5926 28.3181 14.6233 29.6284 16.8392C30.2636 17.9128 28.267 18.9935 29.5387 20.4353C30.8021 18.8171 31.8928 17.0757 33.616 15.8775L33.6174 15.8803Z" fill="black"/>
<path d="M26.422 26.0249L23.4451 29.6056C23.1276 29.9877 22.7921 30.4119 22.7783 30.9116C22.7672 31.27 22.926 31.6087 23.0806 31.9321C23.4879 32.7846 23.8966 33.6356 24.304 34.4881C24.5249 34.9486 24.7499 35.4162 25.091 35.7927C25.5052 36.2505 26.0671 36.5458 26.6457 36.7502C29.2787 37.6783 32.4572 36.6606 34.0878 34.3677C33.2856 30.4077 30.2204 27.2609 26.4234 26.0249H26.422Z" fill="#E3C1B1"/>
<path d="M63.2219 63.1564C64.0254 63.6407 65.0486 64.1167 65.1549 65.0587C65.2308 65.7306 64.7558 66.3606 64.1801 66.7035C63.6043 67.0465 62.9333 67.1752 62.2954 67.3726C61.1673 67.7198 60.1166 68.2881 59.001 68.68C56.4853 69.5619 53.7583 69.5087 51.0977 69.4457C50.4432 69.4303 49.7542 69.4051 49.1964 69.0566C47.9966 68.3077 48.02 66.5607 48.1871 65.1427C48.2382 64.7074 48.3279 64.2105 48.7021 63.9893C48.9327 63.8535 49.2158 63.8605 49.4822 63.8493C51.331 63.7667 52.9271 62.5867 54.4667 61.5452C55.7093 60.7054 57.8936 59.2804 59.4939 59.8081C60.9326 60.2812 61.8729 62.3459 63.2219 63.1592V63.1564Z" fill="#E3C1B1"/>
<path d="M41.6059 90.121L41.0991 97.1858C41.0674 97.624 41.0384 98.0817 41.2055 98.4877C41.3725 98.895 41.7205 99.2044 42.1057 99.4115C43.5844 100.205 45.6707 99.3849 46.2354 97.7878C46.3873 97.3594 46.4384 96.9031 46.4909 96.4523C46.7353 94.2952 46.981 92.1354 47.0487 89.9643C47.1232 87.5454 46.9769 85.1251 46.8292 82.7105C46.7933 82.1086 46.7435 81.4731 46.3984 80.9817C45.806 80.1418 44.5385 80.0761 43.6286 80.5366C42.1485 81.2869 41.8641 82.6307 41.8765 84.1131C41.8944 86.1176 41.7508 88.1095 41.6072 90.121H41.6059Z" fill="#E3C1B1"/>
<path d="M69.2362 90.121L68.7295 97.1858C68.6977 97.624 68.6688 98.0817 68.8358 98.4877C69.0029 98.895 69.3508 99.2044 69.7361 99.4115C71.2148 100.205 73.3011 99.3849 73.8658 97.7878C74.0177 97.3594 74.0688 96.9031 74.1212 96.4523C74.3656 94.2952 74.6114 92.1354 74.6791 89.9643C74.7536 87.5454 74.6073 85.1251 74.4595 82.7105C74.4236 82.1086 74.3739 81.4731 74.0287 80.9817C73.4364 80.1418 72.1689 80.0761 71.259 80.5366C69.7789 81.2869 69.4944 82.6307 69.5069 84.1131C69.5248 86.1176 69.3812 88.1095 69.2376 90.121H69.2362Z" fill="#E3C1B1"/>
<path d="M63.7575 62.7169L70.0316 64.7873C70.7813 65.035 71.5587 65.2982 72.1275 65.8525C72.6232 66.3354 72.9104 66.9933 73.1672 67.6401C74.7923 71.7429 75.647 76.1579 75.6705 80.5784C73.4461 82.359 70.3408 82.9427 67.636 82.0888C67.549 86.7894 67.4662 91.5305 68.3264 96.1512C68.6315 97.7876 68.9449 99.7739 67.7037 100.864C67.3405 101.184 66.8876 101.373 66.4389 101.545C64.0585 102.46 61.6699 103.049 59.1252 102.996C55.8846 102.93 52.6565 102.31 49.6175 101.17C49.1674 101 48.7118 100.815 48.3472 100.5C47.0963 99.4212 47.3932 97.4321 47.6845 95.7929C48.506 91.1651 48.3818 86.4254 48.2547 81.7249C45.5568 82.6025 42.446 82.0454 40.2065 80.2845C40.1927 75.8639 41.0087 71.4419 42.5993 67.3251C42.8506 66.6756 43.1322 66.0163 43.6238 65.5292C44.1871 64.9706 44.9631 64.7005 45.7101 64.4457L51.9661 62.3208C51.6637 63.2181 52.4011 64.1979 53.1356 64.7845C54.156 65.5977 55.4276 66.0807 56.7227 66.1479C58.1904 66.2235 59.6347 65.7811 61.003 65.238C61.5953 65.0028 62.189 64.7411 62.6847 64.3365C63.1804 63.9306 63.6913 63.3595 63.7603 62.7183L63.7575 62.7169Z" fill="#4DB6A9"/>
<path d="M51.2279 59.0884C51.6076 60.568 52.0785 62.0742 53.056 63.2361C54.035 64.3979 55.6407 65.1412 57.0781 64.6807C57.7933 64.4511 58.3967 63.9542 58.9089 63.3984C61.6745 60.3931 61.9479 55.8605 61.7394 51.7549C61.7104 51.181 61.6704 50.5916 61.4329 50.0695C61.1347 49.413 60.552 48.9315 59.9334 48.5703C57.0629 46.8892 52.755 47.4687 50.7875 50.3593C49.2618 52.6018 50.6218 56.7242 51.2279 59.0871V59.0884Z" fill="#E3C1B1"/>
<path d="M17.4719 50.1035L16.7318 51.2975L14.8596 54.3197C14.5337 54.846 14.201 55.3878 14.0698 55.9953C13.7426 57.5127 14.7215 58.9811 15.7156 60.1639C17.1226 61.8395 18.6745 63.41 19.815 65.2816C20.4653 66.3496 21.0314 67.5661 22.1098 68.182L20.2458 63.7908C20.0069 63.2267 19.7639 62.6555 19.3966 62.167C19.0156 61.6589 18.5143 61.2585 18.0311 60.8498C16.9997 59.9777 15.9876 58.9993 15.4947 57.7324C15.0018 56.4656 15.1633 54.8446 16.2002 53.981C16.8009 52.6764 16.9707 51.3759 17.4733 50.1035H17.4719Z" fill="#1F4649"/>
<path d="M48.4974 58.5196C49.0732 59.673 49.4708 60.9174 49.671 62.1926L50.0411 62.187C50.1764 60.4079 49.7345 58.5882 48.8012 57.0764C48.6023 56.7558 48.3787 56.4437 48.0832 56.2113C47.223 55.5366 45.7981 55.7844 45.2568 56.725C46.9054 56.7026 47.6621 56.8454 48.496 58.5182L48.4974 58.5196Z" fill="#1F4649"/>
<path d="M20.5762 75.9617C19.9411 76.229 19.1624 76.565 19.1002 77.2593C19.0698 77.6064 19.2424 77.9326 19.3336 78.2685C19.4247 78.6045 19.3971 79.0356 19.0975 79.2064L19.8845 79.2386C19.7174 78.2965 20.3567 77.2775 21.2693 77.0339C21.6905 76.9219 22.1875 76.9359 22.483 76.6126C22.8171 76.2472 22.7412 75.6453 23.1029 75.3051C23.513 74.9188 24.3415 75.3807 24.5361 74.6304C24.9559 73.0095 22.0812 74.4023 21.7402 74.4821C21.7346 75.2254 21.221 75.6901 20.5735 75.9631L20.5762 75.9617Z" fill="#1F4649"/>
<path d="M22.7221 83.1891C23.5754 84.8941 24.5833 86.7432 26.3562 87.3955C27.2329 87.7175 28.1912 87.6979 29.1245 87.6755C29.6534 87.6615 30.2015 87.6447 30.6792 87.4137C31.6098 86.963 32.013 85.8501 32.216 84.8241C32.3872 83.9534 32.4328 82.9231 31.7949 82.3142C30.8863 81.445 29.0044 81.8425 28.5709 80.6555C28.5101 80.4889 28.4949 80.2887 28.5985 80.1459C28.8539 79.7932 29.38 80.1319 29.721 80.3993C30.294 80.8486 31.0451 81.0586 31.7645 80.9732C32.1304 80.4413 31.8984 79.6644 31.4262 79.2263C30.954 78.7881 30.312 78.6075 29.6934 78.4396L26.3866 77.5409C25.9502 77.4219 25.4932 77.2931 25.166 76.9782C24.8291 76.6548 24.6772 76.1817 24.3886 75.8121C24.1001 75.4426 23.5326 75.1976 23.1833 75.507C22.9734 75.6932 22.9306 76.0039 22.7898 76.2489C22.0027 77.6123 19.9137 76.5988 20.2368 78.5684C20.4508 79.8702 22.1008 81.9517 22.7207 83.1919L22.7221 83.1891Z" fill="#E3C1B1"/>
<path d="M31.9441 32.8184C32.2534 33.1852 32.7256 33.5841 33.1468 33.3587L33.133 32.873C32.0408 32.5021 31.5852 31.2324 31.1019 30.1728C30.5151 28.8864 29.7018 27.7217 28.8927 26.5655C28.56 26.0896 28.2521 25.776 27.6791 25.7578C26.765 27.6657 30.8147 31.4732 31.9455 32.817L31.9441 32.8184Z" fill="#C4A497"/>
<path d="M86.7426 66.4631C87.0381 66.1621 87.2604 65.7954 87.5476 65.486C88.0004 64.9989 88.5941 64.6755 89.1589 64.3284C90.3698 63.5837 91.4923 62.6934 92.4961 61.68C92.7819 61.3916 93.0636 61.0864 93.2293 60.7127C93.4391 60.241 93.4433 59.7048 93.4364 59.1883C93.3922 56.3131 93.0456 53.4421 92.4077 50.6411C92.2696 53.7473 91.9769 56.845 91.5337 59.9204C91.4757 60.3264 91.4122 60.7379 91.241 61.1088C91.0753 61.47 90.8144 61.7765 90.5493 62.0719C88.6356 64.2024 86.3367 65.9774 83.803 67.2834C83.4482 67.4653 83.0878 67.6403 82.7606 67.8713C82.3657 68.1512 82.0826 68.4732 82.0385 68.9365C83.3998 67.7551 85.4751 67.7565 86.744 66.4631H86.7426Z" fill="#AF8F6D"/>
<path d="M67.1276 59.9126C67.5418 60.7945 68.217 61.5168 68.8825 62.2237C68.5884 61.4622 67.9781 60.8673 67.6343 60.1268C66.7589 58.2441 67.7793 55.9106 67.0254 53.9761C66.4842 55.7524 66.3226 58.2021 67.1276 59.9126Z" fill="#AF8F6D"/>
<path d="M92.6105 74.3736L93.1227 76.3921C93.3726 77.3762 93.6225 78.3686 93.6695 79.3835C93.6971 79.984 93.6515 80.5873 93.6999 81.1865C93.8283 82.7766 94.6042 84.2576 94.7299 85.8478C94.6098 83.6487 94.4896 81.4496 94.3695 79.2505C94.2991 77.9501 94.2232 76.6273 93.7827 75.4053C93.4223 74.4044 92.8328 73.4217 92.1396 72.6309C92.2432 73.2132 92.4614 73.7871 92.6105 74.3736Z" fill="#AF8F6D"/>
<path d="M74.9524 35.356C74.7163 35.636 74.3559 35.9412 74.0342 35.769L74.0452 35.398C74.8792 35.1153 75.2271 34.1466 75.5958 33.3361C76.0431 32.3535 76.6645 31.4646 77.2817 30.5827C77.5357 30.2202 77.7704 29.9794 78.2081 29.9668C78.9054 31.4226 75.8139 34.33 74.951 35.3546L74.9524 35.356Z" fill="#C4A497"/>
<path d="M57.6025 63.9144C57.4313 64.0908 57.1745 64.2784 56.9674 64.1468L56.9923 63.899C57.5653 63.7493 57.8442 63.1152 58.13 62.5902C58.4765 61.9519 58.9349 61.385 59.392 60.8223C59.5797 60.5913 59.7482 60.4415 60.0437 60.4527C60.4441 61.4648 58.2308 63.2677 57.6039 63.9144H57.6025Z" fill="#C4A497"/>
<path d="M71.43 19.1115C73.3782 18.0505 75.9795 18.399 77.5894 19.9374C79.7461 21.9993 79.8262 25.3672 80.1313 28.3572C80.3605 30.6123 80.801 32.838 81.2387 35.0609C81.3988 35.8755 81.6778 36.8288 82.4593 37.078C83.6191 37.4475 84.4461 35.9917 85.4154 35.2456C86.2797 34.5807 87.4478 34.4533 88.3467 33.8388C89.686 32.922 90.1444 31.105 90.0353 29.4701C89.9262 27.8351 89.3629 26.2687 89.1061 24.6505C88.7485 22.394 88.9901 20.0536 88.4461 17.8349C87.3691 13.4423 83.3926 10.3389 79.2132 8.74457C77.8407 8.22104 76.4006 7.8179 74.9343 7.8263C72.0969 7.8431 69.4887 9.38988 67.2602 11.1704C65.1077 12.8908 63.0821 15.0073 62.3738 17.6921C61.7221 20.16 62.9178 21.0362 65.0331 20.9103C66.0507 20.8501 67.2464 21.0614 68.246 20.8795C69.4749 20.6569 70.3655 19.691 71.43 19.1115Z" fill="black"/>
<path d="M50.1259 53.1696C50.2709 53.5644 50.7362 53.7351 51.1504 53.7449C51.5646 53.7547 51.983 53.6525 52.393 53.7169C53.1745 53.8401 53.8207 54.547 54.6091 54.5022C55.6792 54.4434 56.335 53.0492 57.4065 53.0268C57.9933 53.0142 58.5801 53.4328 59.1324 53.2298C59.3464 53.1514 59.5549 52.9792 59.7758 53.0394C60.0436 53.1122 60.1099 53.4552 60.2466 53.7001C60.3833 53.9451 60.8472 54.0333 60.8597 53.7533C61.6784 54.2069 60.9798 55.8026 61.7792 56.2884L62.1741 53.0534C62.3136 51.914 62.4489 50.7298 62.0871 49.6407C61.4216 47.6376 59.1752 46.5135 57.0903 46.5863C55.0068 46.6605 53.0737 47.6866 51.3285 48.8428C50.9474 49.0948 50.5636 49.3635 50.2985 49.7401C50.0389 50.1096 49.9146 50.5562 49.7959 50.9929C49.6923 51.3723 49.4908 51.9196 49.5819 52.3171C49.6868 52.7721 49.9657 52.7371 50.1231 53.1668L50.1259 53.1696Z" fill="black"/>
<path d="M83.3517 71.6695C83.4207 71.9999 83.5781 72.305 83.7327 72.6046C83.8998 72.9265 84.071 73.2555 84.3375 73.499C84.4604 73.611 84.6012 73.702 84.7048 73.8322C84.9229 74.1066 84.9298 74.4915 85.0596 74.8191C85.1894 75.1466 85.5981 75.4308 85.8674 75.2096C85.9046 75.47 85.9902 75.7863 86.2429 75.8451C86.5025 75.9067 86.7358 75.6057 86.7082 75.3356C86.6806 75.0654 86.4804 74.8499 86.2719 74.6819C86.0634 74.5125 85.8301 74.3627 85.6851 74.136C85.489 73.8294 85.4849 73.4277 85.2888 73.1225C85.148 72.9027 84.9229 72.7558 84.7186 72.592C84.2229 72.1958 83.8253 71.6765 83.5698 71.09C83.4083 70.7176 83.2647 70.3747 82.8684 70.2207C82.9595 70.6896 83.244 71.1516 83.3517 71.6695Z" fill="#AF8F6D"/>
<path d="M91.2559 73.3285C91.1316 73.4335 91.046 73.5693 90.9687 73.7149C90.8886 73.8675 90.8196 74.0312 90.7312 74.1782C90.4343 74.6682 89.8669 75.0391 89.3104 75.0965C89.2386 74.1684 90.6912 73.8059 91.2559 73.3271V73.3285Z" fill="#C18E57"/>
<path d="M63.3755 42.37C63.5481 42.1334 63.6737 41.8618 63.8643 41.6393C64.4442 40.9618 65.4452 40.8862 66.2101 40.4354C66.6437 40.1793 67.0054 39.7985 67.4694 39.6068C68.0134 39.3814 68.7438 39.3716 69.0034 38.8369C68.9012 38.7193 68.7369 38.6787 68.5822 38.6675C67.994 38.6269 67.4362 38.9097 66.9129 39.1868L64.9482 40.2227C64.3172 40.5558 63.6682 40.903 63.214 41.4587C62.9447 41.789 62.7528 42.1824 62.4573 42.4875C62.2544 42.6989 62.0072 42.8627 61.8111 43.0797C61.5516 43.3666 61.3859 43.7362 61.3955 44.1183C61.9851 43.8971 62.9737 42.9229 63.3741 42.37H63.3755Z" fill="#AF8F6D"/>
<path d="M87.705 38.2377C87.8803 38.4267 88.0419 38.6465 88.2807 38.7374C88.5182 38.827 88.7847 38.771 89.0332 38.8242C89.3646 38.8956 89.6214 39.1504 89.8879 39.3632C90.2538 39.6557 90.6666 39.8825 91.0767 40.1065L93.4198 41.3915C92.7557 40.637 92.0612 39.8601 91.1499 39.4471C90.8434 39.3086 90.512 39.2106 90.2469 39.0034C90.0191 38.8256 89.8506 38.5751 89.6021 38.4281C89.3757 38.2951 89.1064 38.2629 88.8648 38.1649C88.4754 38.0068 88.173 37.689 87.8154 37.4636C87.1982 37.0759 86.3629 36.9541 85.6615 37.1389C86.0633 37.6456 87.1637 37.6526 87.7064 38.2377H87.705Z" fill="#AF8F6D"/>
<path d="M82.6463 77.8804C81.793 79.1108 80.8031 80.4364 79.3505 80.7416C78.6326 80.8928 77.8883 80.7682 77.1648 80.645C76.7534 80.575 76.3295 80.498 75.9829 80.2643C75.3078 79.8079 75.1172 78.8953 75.073 78.0736C75.0358 77.3765 75.1145 76.5688 75.6778 76.167C76.4814 75.5945 77.9035 76.1167 78.3716 75.2418C78.4379 75.1186 78.471 74.9646 78.4061 74.8414C78.246 74.5377 77.8 74.742 77.5045 74.9114C77.0088 75.1956 76.4013 75.2754 75.8504 75.1256C75.6253 74.6693 75.8904 74.0911 76.306 73.8042C76.7216 73.5172 77.2422 73.4486 77.742 73.3884L80.4165 73.0651C80.7699 73.0231 81.1386 72.9741 81.4299 72.7655C81.7281 72.5514 81.8994 72.2 82.1645 71.9466C82.4296 71.6919 82.899 71.5659 83.1365 71.8459C83.2801 72.0152 83.2787 72.2616 83.3615 72.4688C83.8227 73.6194 85.5624 73.0679 85.093 74.5643C84.7823 75.5539 83.2677 76.9873 82.6477 77.8818L82.6463 77.8804Z" fill="#E3C1B1"/>
</svg>
