<svg width="20" height="20" viewBox="0 0 20 20" fill="none" xmlns="http://www.w3.org/2000/svg">
<path d="M19 17V10C19 5.02944 14.9706 1 10 1V1C5.02944 1 1 5.02944 1 10V17" stroke="#D5B582" stroke-width="1.5" stroke-linecap="round"/>
<path d="M14 13C14 11.8954 14.8954 11 16 11H17C18.1046 11 19 11.8954 19 13V17C19 18.1046 18.1046 19 17 19H16C14.8954 19 14 18.1046 14 17V13Z" stroke="#2E5E64" stroke-width="1.5"/>
<path d="M6 13C6 11.8954 5.10457 11 4 11H3C1.89543 11 1 11.8954 1 13V17C1 18.1046 1.89543 19 3 19H4C5.10457 19 6 18.1046 6 17V13Z" stroke="#2E5E64" stroke-width="1.5"/>
</svg>
