<svg width="25" height="24" viewBox="0 0 25 24" fill="none" xmlns="http://www.w3.org/2000/svg">
<path d="M19.9644 4.46436L4.96436 19.4644" stroke="#D5B582" stroke-width="1.5" stroke-linecap="round" stroke-linejoin="round"/>
<path fill-rule="evenodd" clip-rule="evenodd" d="M6.4642 16.9037C6.10982 16.6639 5.77058 16.4036 5.44816 16.1244C4.47944 15.2858 3.66202 14.2771 3.04254 13.1443C2.65248 12.431 2.65249 11.5688 3.04256 10.8556C4.86847 7.51686 8.41882 5.25 12.5 5.25C13.4668 5.25 14.405 5.37739 15.2981 5.6167C15.9207 5.78351 16.5209 6.0046 17.0934 6.27451L15.9543 7.4136C15.6156 7.27773 15.267 7.16127 14.9099 7.06559C14.1423 6.85991 13.3346 6.75 12.5 6.75C8.9879 6.75 5.93153 8.69919 4.3586 11.5753C4.2138 11.8401 4.2138 12.1598 4.3586 12.4246C4.88561 13.3883 5.57974 14.2485 6.4023 14.9663L7.57499 15.7929L6.4642 16.9037ZM20.0236 8.30907C19.727 8.0199 19.2522 8.0259 18.963 8.32247C18.6738 8.61904 18.6798 9.09387 18.9764 9.38304C19.6347 10.0249 20.1974 10.7635 20.6414 11.5754C20.7862 11.8402 20.7862 12.1599 20.6414 12.4247C19.0685 15.3008 16.0121 17.25 12.5 17.25C11.7002 17.25 10.9251 17.1491 10.1863 16.9596C9.78505 16.8567 9.37638 17.0986 9.2735 17.4998C9.17062 17.9011 9.41249 18.3097 9.81372 18.4126C10.6732 18.633 11.5735 18.75 12.5 18.75C16.5812 18.75 20.1315 16.4831 21.9574 13.1444C22.3475 12.4312 22.3475 11.569 21.9575 10.8557C21.4413 9.91179 20.7876 9.05403 20.0236 8.30907Z" fill="#2D5D63"/>
<path opacity="0.3" d="M8.75 12C8.75 12.4142 9.08579 12.75 9.5 12.75C9.91421 12.75 10.25 12.4142 10.25 12H8.75ZM12.5 9.75C12.9142 9.75 13.25 9.41421 13.25 9C13.25 8.58579 12.9142 8.25 12.5 8.25V9.75ZM10.25 12C10.25 10.7574 11.2574 9.75 12.5 9.75V8.25C10.4289 8.25 8.75 9.92893 8.75 12H10.25Z" fill="#2D5D63"/>
</svg>
