<svg width="19" height="19" viewBox="0 0 19 19" fill="none" xmlns="http://www.w3.org/2000/svg">
<path d="M2.13757 13.7233L2.609 13.8899L2.68545 13.6736L2.57128 13.4745L2.13757 13.7233ZM0.855724 17.3509L0.38429 17.1843H0.38429L0.855724 17.3509ZM1.49374 17.9889L1.66033 18.4604H1.66033L1.49374 17.9889ZM5.04855 16.7328L5.3117 16.3077L5.10793 16.1816L4.88197 16.2614L5.04855 16.7328ZM1.51579 9.5C1.51579 5.08172 5.09751 1.5 9.51579 1.5V0.5C4.54523 0.5 0.515788 4.52944 0.515788 9.5H1.51579ZM2.57128 13.4745C1.89984 12.304 1.51579 10.9476 1.51579 9.5H0.515788C0.515788 11.1268 0.947863 12.6542 1.70386 13.9721L2.57128 13.4745ZM1.32716 17.5175L2.609 13.8899L1.66613 13.5567L0.38429 17.1843L1.32716 17.5175ZM1.32716 17.5175L1.32716 17.5175L0.38429 17.1843C0.104215 17.977 0.867713 18.7405 1.66033 18.4604L1.32716 17.5175ZM4.88197 16.2614L1.32716 17.5175L1.66033 18.4604L5.21514 17.2043L4.88197 16.2614ZM9.51579 17.5C7.97265 17.5 6.53298 17.0636 5.3117 16.3077L4.78541 17.158C6.16022 18.0089 7.78142 18.5 9.51579 18.5V17.5ZM17.5158 9.5C17.5158 13.9183 13.9341 17.5 9.51579 17.5V18.5C14.4864 18.5 18.5158 14.4706 18.5158 9.5H17.5158ZM9.51579 1.5C13.9341 1.5 17.5158 5.08172 17.5158 9.5H18.5158C18.5158 4.52944 14.4864 0.5 9.51579 0.5V1.5Z" fill="#2D5D63"/>
<circle cx="5.30859" cy="9.54224" r="1.0625" fill="#D5B582"/>
<circle cx="9.55859" cy="9.54199" r="1.0625" fill="#D5B582"/>
<circle cx="13.8086" cy="9.54199" r="1.0625" fill="#D5B582"/>
</svg>
