<svg width="19" height="22" viewBox="0 0 19 22" fill="none" xmlns="http://www.w3.org/2000/svg">
<rect x="5.67773" y="1" width="8" height="13" rx="4" stroke="#D5B582" stroke-width="1.5"/>
<path d="M18.4277 10.5C18.4277 10.0858 18.0919 9.75 17.6777 9.75C17.2635 9.75 16.9277 10.0858 16.9277 10.5H18.4277ZM2.42773 10.5C2.42773 10.0858 2.09195 9.75 1.67773 9.75C1.26352 9.75 0.927734 10.0858 0.927734 10.5H2.42773ZM16.9277 10.5C16.9277 14.5041 13.6818 17.75 9.67773 17.75V19.25C14.5102 19.25 18.4277 15.3325 18.4277 10.5H16.9277ZM9.67773 17.75C5.67367 17.75 2.42773 14.5041 2.42773 10.5H0.927734C0.927734 15.3325 4.84524 19.25 9.67773 19.25V17.75Z" fill="#2E5E64"/>
<path d="M8.92773 21C8.92773 21.4142 9.26352 21.75 9.67773 21.75C10.0919 21.75 10.4277 21.4142 10.4277 21H8.92773ZM10.4277 19C10.4277 18.5858 10.0919 18.25 9.67773 18.25C9.26352 18.25 8.92773 18.5858 8.92773 19H10.4277ZM10.4277 21V19H8.92773V21H10.4277Z" fill="#2E5E64"/>
</svg>
