<svg width="25" height="23" viewBox="0 0 25 23" fill="none" xmlns="http://www.w3.org/2000/svg">
<path d="M23.9166 5.53799C22.2231 4.0991 20.2736 2.99261 18.1701 2.27626L19.1143 0.645396C19.2327 0.439048 19.1616 0.175795 18.9554 0.0574015C18.7493 -0.0611979 18.486 0.00988571 18.3674 0.216235L17.3288 2.01455V2.01436C14.1749 1.1104 10.8308 1.1104 7.67652 2.01436C7.56502 2.04272 7.4696 2.11437 7.41136 2.21362C7.3533 2.31286 7.33759 2.43127 7.36748 2.54221C7.39852 2.65237 7.47209 2.74549 7.57191 2.80105C7.67193 2.85661 7.78976 2.87022 7.89974 2.83841C10.8281 2.00096 13.9303 1.98006 16.8697 2.77825L15.9941 4.34054C13.6936 3.78683 11.2947 3.78644 8.99391 4.3392C6.69324 4.89198 4.55634 5.98233 2.75837 7.52064C2.6093 7.65245 2.41579 7.72296 2.21692 7.71817C2.01804 7.71338 1.82817 7.63367 1.68543 7.49496L1.57814 7.38345C1.42754 7.22577 1.34841 7.0131 1.35934 6.79546C1.36528 6.58566 1.45858 6.38813 1.61684 6.25038C2.27919 5.68289 2.98368 5.16631 3.72402 4.70535C3.92558 4.57967 3.98708 4.3145 3.86139 4.11314C3.7359 3.91158 3.47073 3.85008 3.26918 3.97577C2.49151 4.46012 1.7525 5.00387 1.05895 5.60241C0.718679 5.89326 0.516378 6.31381 0.501026 6.76118C0.484932 7.22025 0.658708 7.66588 0.981741 7.99274L1.09325 8.10004C1.39137 8.40046 1.79469 8.5729 2.21774 8.58075C2.61664 8.57826 3.00153 8.4338 3.30352 8.17304C4.96465 6.74793 6.93444 5.72846 9.05692 5.19505C11.1796 4.66185 13.3973 4.62928 15.5348 5.10021L14.6636 6.66673C13.9549 6.54468 13.2369 6.48432 12.5177 6.48643C9.70853 6.48222 6.98256 7.43945 4.79254 9.19887C4.42506 9.48588 4.19724 9.91601 4.16619 10.3812C4.13496 10.8466 4.30356 11.303 4.62947 11.6365L4.73255 11.7438H4.73236C5.01266 12.023 5.38475 12.191 5.77964 12.2163C6.17433 12.2416 6.56481 12.1224 6.87823 11.8812C8.47633 10.5979 10.4681 9.90528 12.5178 9.91985H12.7581L11.7496 11.6752C10.6266 11.7896 9.5462 12.1659 8.59515 12.7738C8.17383 13.0419 7.89679 13.4864 7.84161 13.9828C7.78662 14.479 7.95963 14.9735 8.31198 15.3274L8.41927 15.4305C8.66566 15.6667 8.98181 15.8171 9.32054 15.8597L5.92143 21.7396C5.8446 21.8726 5.84479 22.0366 5.92181 22.1693C5.99902 22.3023 6.14119 22.3839 6.29485 22.3834C6.4487 22.3839 6.59125 22.3019 6.66827 22.1688L10.4364 15.6453L10.4835 15.6196V15.6194C11.0968 15.247 11.8004 15.05 12.5179 15.05C13.2354 15.05 13.939 15.247 14.5523 15.6194C14.8694 15.8233 15.2462 15.9134 15.6212 15.8752C15.9961 15.8369 16.347 15.6727 16.6165 15.4093L16.7238 15.3062C17.0746 14.9536 17.2481 14.4618 17.1959 13.9671C17.1402 13.4703 16.8645 13.0244 16.4449 12.7526C15.3394 12.0578 14.0678 11.6725 12.7626 11.6367L13.7068 9.99722C15.3311 10.2085 16.8656 10.8649 18.1402 11.8942C18.4231 12.1195 18.7742 12.2422 19.1359 12.2418C19.5739 12.2414 19.9937 12.0668 20.3033 11.7568L20.4064 11.6496H20.4062C20.739 11.3187 20.9141 10.8609 20.8871 10.3925C20.8599 9.92384 20.6334 9.48931 20.2646 9.19904C18.8794 8.0851 17.2684 7.28555 15.5437 6.85564L16.4277 5.32347V5.32366C18.3573 5.87565 20.1477 6.83092 21.6808 8.12614C22.0079 8.41047 22.4338 8.55417 22.8662 8.526C23.2986 8.49803 23.7023 8.3003 23.9897 7.97592L24.0884 7.86001C24.3796 7.52836 24.5264 7.09421 24.4961 6.6541C24.4608 6.21937 24.252 5.81723 23.9167 5.53825L23.9166 5.53799ZM9.02449 14.8337L8.92141 14.7264H8.9216C8.7505 14.5601 8.66659 14.3238 8.69418 14.0868C8.72023 13.8491 8.85282 13.636 9.05457 13.5075C9.71158 13.0929 10.4389 12.802 11.2004 12.6491L9.8313 15.0182H9.8315C9.69297 15.0652 9.54429 15.0728 9.40194 15.0402C9.25939 15.0075 9.12872 14.936 9.0245 14.8337L9.02449 14.8337ZM12.5181 12.4946C13.7454 12.4952 14.9471 12.8466 15.9815 13.5074C16.1833 13.636 16.3159 13.849 16.3419 14.0868C16.3695 14.3238 16.2856 14.56 16.1145 14.7263L16.0114 14.8336H16.0116C15.8777 14.9595 15.7053 15.0363 15.5223 15.052C15.3391 15.0675 15.1561 15.0208 15.0031 14.9194C13.8437 14.2149 12.4405 14.0341 11.1405 14.4217L12.2648 12.4946L12.5181 12.4946ZM12.5181 9.06124C10.2814 9.05818 8.10983 9.81478 6.35953 11.2071C6.2099 11.3209 6.02366 11.3759 5.83628 11.3617C5.6489 11.3474 5.47302 11.265 5.34237 11.1299L5.22224 11.0441C5.06417 10.8854 4.9814 10.6668 4.99481 10.4432C5.00784 10.2183 5.11552 10.0094 5.29083 9.86803C7.33959 8.22319 9.89104 7.33227 12.5181 7.34453C13.074 7.34683 13.629 7.38841 14.1791 7.46907L13.2435 9.0913C13.0031 9.06122 12.7628 9.06122 12.5181 9.06122L12.5181 9.06124ZM19.7326 9.86804C19.9081 10.0094 20.0156 10.2183 20.0288 10.4432C20.0421 10.6668 19.9595 10.8854 19.8014 11.0441L19.6941 11.1472V11.147C19.5629 11.2813 19.3872 11.3633 19.2 11.3775C19.0128 11.3916 18.827 11.3372 18.6769 11.2244C17.3704 10.1796 15.8197 9.48393 14.1706 9.20284L15.0933 7.63632C16.7891 8.01856 18.3755 8.78171 19.7326 9.86803L19.7326 9.86804ZM23.4277 7.29299L23.3291 7.4045L23.3293 7.40469C23.19 7.56008 22.9949 7.65396 22.7867 7.66603C22.5784 7.6781 22.3738 7.60721 22.2176 7.46907C20.6464 6.14285 18.8208 5.15113 16.8527 4.5549L17.711 3.03552C19.7738 3.71146 21.6848 4.78288 23.3374 6.18993C23.4924 6.32156 23.5869 6.51067 23.5993 6.71357C23.6237 6.92203 23.5616 7.13144 23.4276 7.29294L23.4277 7.29299Z" fill="white"/>
<path d="M5.22175 3.82083C5.28517 3.82026 5.34801 3.80723 5.40625 3.78213C5.681 3.65338 5.95996 3.52884 6.24312 3.41312C6.35885 3.37787 6.45445 3.29529 6.50618 3.18589C6.55791 3.07668 6.56098 2.95042 6.5148 2.83872C6.46863 2.72683 6.37743 2.63965 6.26362 2.59865C6.14962 2.55765 6.02394 2.56665 5.91702 2.62337C5.62082 2.7435 5.32903 2.87225 5.03719 3.00962C4.85747 3.09661 4.76149 3.29587 4.80555 3.49053C4.84962 3.68519 5.02206 3.82391 5.2217 3.82506L5.22175 3.82083Z" fill="white"/>
<path d="M12.5177 16.7877C11.9486 16.7877 11.4028 17.0138 11.0002 17.4161C10.5979 17.8187 10.3718 18.3645 10.3718 18.9336C10.3718 19.5027 10.5979 20.0485 11.0002 20.4511C11.4028 20.8534 11.9486 21.0795 12.5177 21.0795C13.0868 21.0795 13.6326 20.8534 14.0352 20.4511C14.4375 20.0485 14.6636 19.5027 14.6636 18.9336C14.6636 18.3645 14.4375 17.8187 14.0352 17.4161C13.6326 17.0138 13.0868 16.7877 12.5177 16.7877ZM12.5177 20.2211C12.1763 20.2211 11.8486 20.0855 11.6073 19.8441C11.3659 19.6026 11.2302 19.275 11.2302 18.9336C11.2302 18.5922 11.3659 18.2645 11.6073 18.0232C11.8487 17.7818 12.1763 17.6461 12.5177 17.6461C12.8591 17.6461 13.1868 17.7818 13.4281 18.0232C13.6695 18.2646 13.8052 18.5922 13.8052 18.9336C13.8052 19.275 13.6696 19.6027 13.4281 19.8441C13.1867 20.0854 12.8591 20.2211 12.5177 20.2211Z" fill="white"/>
</svg>
