<svg width="302" height="302" viewBox="0 0 302 302" fill="none" xmlns="http://www.w3.org/2000/svg">
<mask id="mask0_2414_22832" style="mask-type:alpha" maskUnits="userSpaceOnUse" x="0" y="0" width="302" height="302">
<circle cx="151" cy="151" r="151" fill="#D9D9D9"/>
</mask>
<g mask="url(#mask0_2414_22832)">
<path d="M324 179L27.5 213L-10 332H324V179Z" fill="#E8F5F5"/>
<path d="M141.372 182.917C135.218 180.586 128.275 181.827 122.068 184.022C115.862 186.214 109.958 189.328 103.545 190.812C97.1314 192.296 89.8064 191.886 84.7664 187.658C82.975 186.154 81.4303 184.161 79.1771 183.537C71.016 181.266 60.7012 194.268 55.088 198.425C49.3275 202.685 41.6282 203.154 34.4743 202.693C30.6526 202.446 26.783 201.985 23.021 202.693C19.2589 203.401 15.5128 205.521 14 209.033L14.8121 274.475L284 259.75V163.268L141.372 182.921V182.917Z" fill="#DEBF97"/>
<path d="M282.718 236.674C264.867 229.777 245.006 228.182 226.279 232.131C211.486 235.254 197.433 241.733 182.405 243.376C172.026 244.513 161.56 243.296 151.317 241.57C143.351 240.23 136.981 234.279 128.613 235.242C122.96 235.894 117.61 239.009 111.945 238.476C105.412 237.863 100.424 232.664 95.5431 228.277C84.5954 218.437 77.2544 221.317 67.9428 230.604C59.2005 239.327 46.2861 243.28 34.3789 238.822C32.8542 238.253 31.3732 237.557 29.8087 237.115C27.4002 236.431 24.8683 236.356 22.3682 236.296C19.6691 236.236 16.8664 236.212 14.4102 237.33L15.063 297.148C14.9595 294.467 18.4389 293.306 21.1221 293.306C29.8007 293.306 39.4189 296.428 46.5767 291.524C48.5075 290.203 50.0601 288.385 52.0068 287.093C57.6519 283.35 65.1242 284.742 71.7208 286.277C82.1988 288.712 99.7988 295.831 110.181 292.785C117.861 290.529 123.247 284.79 130.417 281.64C139.306 277.734 149.557 277.133 159.072 278.561C173.575 280.745 187.063 287.081 200.948 291.798C214.834 296.52 230.073 299.63 244.059 295.215C256.993 291.134 269.29 280.745 282.404 284.209L282.718 236.666V236.674Z" fill="#4DB4A8"/>
<path d="M263.474 146.872C253.967 118.62 244.11 90.4867 233.907 62.481C232.784 59.4024 231.606 56.2402 229.384 53.8338C224.711 48.7744 216.932 48.4562 210.049 48.7386C184.909 49.7807 159.912 54.16 135.918 61.7332C134.234 62.2622 132.518 62.831 131.137 63.9328C126.81 67.3892 127.67 74.0754 128.94 79.465C141.87 134.351 154.8 189.237 167.734 244.126C168.355 246.756 169.056 249.532 170.987 251.421C173.73 254.102 178.029 254.166 181.867 253.979C215.59 252.356 249.015 244.743 280.11 231.613L263.482 146.872H263.474Z" fill="#E8F5F5"/>
<path d="M153.319 244.009C147.085 243.205 140.644 244.08 134.851 246.523C122.761 251.622 124.967 274.282 134.33 280.821C142.794 286.731 153.371 289.547 163.658 288.629L153.319 244.005V244.009Z" fill="#F0E4DA"/>
<path d="M150.544 232.653C141.746 232.792 132.925 231.07 124.823 227.633C120.221 225.684 115.727 223.075 112.729 219.077C109.731 215.08 108.525 209.456 110.758 204.989C113.207 200.097 118.864 197.845 124.095 196.246C129.051 194.731 134.226 193.422 139.37 194.067L150.541 232.657L150.544 232.653Z" fill="#F0E4DA"/>
<path d="M193.512 84.4292C209.583 82.5598 222.872 98.5057 224.193 113.672C225.507 128.719 212.29 143.328 197.182 143.897C182.074 144.466 167.922 131.257 167.094 116.174C166.246 100.749 177.018 87.2572 192.246 84.6122C192.672 84.5366 193.094 84.477 193.516 84.4292H193.512Z" fill="#DEBF97"/>
<path d="M283.999 150.249L279.935 136.737C268.509 106.659 257.088 76.5814 245.662 46.4994C243.274 40.2109 240.734 33.6878 235.813 29.0977C227.127 20.9876 213.774 21.1467 201.935 22.2683C177.32 24.5991 152.901 28.9625 129.003 35.2987C123.799 36.6789 118.433 38.25 114.384 41.79C104.85 50.1269 106.414 65.1181 108.934 77.5201C115.837 106.826 121.805 136.264 129.576 165.38C133.473 179.989 137.594 194.539 141.933 209.021C145.42 220.667 156.969 269.054 160.811 280.982C162.28 285.536 164.207 290.441 168.411 292.74C171.301 294.319 174.76 294.359 178.057 294.303C212.496 293.746 251.462 287.458 283.892 275.863L283.995 150.249H283.999ZM181.859 253.983C178.025 254.166 173.725 254.106 170.978 251.425C169.048 249.536 168.347 246.76 167.726 244.13C154.796 189.245 141.865 134.359 128.935 79.469C127.665 74.0795 126.805 67.3933 131.133 63.9368C132.51 62.835 134.23 62.2663 135.914 61.7373C159.907 54.168 184.904 49.7848 210.044 48.7427C216.927 48.4563 224.706 48.7785 229.38 53.8379C231.605 56.2443 232.784 59.4104 233.902 62.485C244.106 90.4908 253.963 118.624 263.469 146.876L280.098 231.617C249.002 244.747 215.578 252.36 181.855 253.983H181.859Z" fill="#2E5E64"/>
<path d="M223.564 267.027C232.988 265.893 242.825 271.565 246.563 280.28C250.301 288.995 247.618 300.024 240.297 306.058L223.564 267.027Z" fill="#F0E4DA"/>
<path d="M213.369 290.929C212.736 300.801 218.222 306.226 226.307 311.934C234.393 317.642 244.349 319.002 254.246 319.002C264.147 319.002 273.661 316.878 283.343 314.814L284 268.428L213.369 290.929Z" fill="#F0E4DA"/>
<path d="M219.583 296.368C223.799 298.162 226.55 295.565 229.341 292.566C231.889 289.829 232.932 286.031 232.195 282.363C231.323 278.028 230.073 274.83 227.565 271.385C226.586 270.041 225.229 266.97 223.564 267.022C221.996 267.07 220.005 269.635 219.169 270.964C216.781 274.766 212.72 287.256 213.369 290.923L216.363 294.077C217.278 295.044 218.361 295.847 219.583 296.368Z" fill="#DEBF97"/>
<path d="M139.573 101.7C136.679 96.0801 130.298 92.7032 123.976 92.4605C117.654 92.2179 111.424 94.8948 106.67 99.0632C99.2138 105.602 95.2488 116.131 97.2711 125.832C99.2935 135.533 107.574 143.818 117.403 145.155C127.232 146.491 137.762 140.27 140.7 130.804L150.565 128.807C146.07 125.864 141.217 120.335 141.217 120.335C141.213 119.897 143.192 108.733 139.573 101.696V101.7Z" fill="#4DB4A8"/>
<path d="M158.116 202.629C157.125 194.046 160.262 185.319 165.465 178.418C170.672 171.517 177.806 166.283 185.354 162.067C200.979 153.34 218.822 148.615 236.721 148.468C247.832 148.376 260.038 150.599 267.116 159.163L280.102 231.614C243.473 248.26 206.194 258.386 173.299 252.977C165.986 248.462 162.308 227.012 158.116 202.629Z" fill="#4DB4A8"/>
<path d="M237.004 210.398C237.004 210.398 236.554 198.437 250.683 179.043L261.344 190.574L253.246 208.584L242.701 215.04L237 210.398H237.004Z" fill="#DEBF97"/>
<path d="M301.771 130C301.771 130 273.215 138.842 266.376 145.274C259.536 151.705 254.305 155.727 250.683 179.039C250.683 179.039 257.032 185.105 253.951 196.783C252.124 203.719 246.503 209.157 239.397 210.211C238.62 210.326 237.82 210.39 237 210.39C237 210.39 238.608 224.86 259.13 216.42C279.649 207.979 290.111 201.146 290.915 185.065L301.767 183.458" fill="#F0E4DA"/>
<path d="M170.84 34.8813C173.177 34.2211 175.956 35.108 177.556 37.5343C180.761 42.3909 175.96 48.4208 170.525 46.1258C167.91 45.02 166.326 41.9096 166.966 39.1492C167.508 36.8104 169.045 35.3904 170.844 34.8853L170.84 34.8813Z" fill="#F0E4DA"/>
</g>
</svg>
