<svg width="302" height="302" viewBox="0 0 302 302" fill="none" xmlns="http://www.w3.org/2000/svg">
<mask id="mask0_2414_22860" style="mask-type:alpha" maskUnits="userSpaceOnUse" x="0" y="0" width="302" height="302">
<circle cx="151" cy="151" r="151" fill="#D9D9D9"/>
</mask>
<g mask="url(#mask0_2414_22860)">
<path d="M71.5449 110.99C79.8363 106.231 89.519 101.318 98.5259 104.523C102.071 105.785 105.086 108.208 108.528 109.729C117.552 113.716 128.113 111.057 137.763 113.107C151.842 116.096 168.571 133.96 177.262 145.434L173.158 152.337L160.583 161.075L82.8486 136.067L71.5449 110.994V110.99Z" fill="#F0E4DA"/>
<path d="M212.552 147.714C227.37 148.077 242.089 139.05 251.582 129.29C261.92 118.663 274.219 104.49 288.319 98.9244C293.059 97.0537 310.617 88.7158 313.732 94.594L315.762 109.03L276.143 182.008L190.3 171.759L176.623 157.137C174.09 157.21 208.464 147.614 212.552 147.714V147.714Z" fill="#DEBF97"/>
<path d="M159.444 153.808C155.387 150.486 151.815 146.642 148.523 142.561C142.285 134.822 130.659 131.95 120.284 131.414C108.075 130.781 94.9472 131.76 84.6021 125.246C73.3417 118.156 68.7716 104.383 62.747 92.5167C60.2173 87.5372 57.2183 82.6376 52.8446 79.1627C48.471 75.6877 42.4763 73.8437 37.1673 75.5812C32.9434 76.9658 29.7181 80.3443 26.8156 83.7094L14.4834 203.64L146.812 224.862L180.267 219.244L190.506 221.74L218.595 205.51L217.267 190.528L239.259 182.004L221.764 176.036L173.161 165.042L159.444 153.808V153.808Z" fill="#DEBF97"/>
<path d="M324.303 79.625C313.452 93.6314 291.794 99.2267 284.205 115.104C278.576 126.877 277.105 138.753 273.933 151.281C265.901 182.999 249.561 187.516 222.567 193.337L191.315 231.026L206.067 259.478L324.15 230.281L324.307 79.6283L324.303 79.625Z" fill="#F0E4DA"/>
<path d="M250.846 51.9825C259.946 57.6943 265.747 69.4739 264.32 80.4347C262.306 95.8791 246.119 104.966 231.66 99.9965C216.482 94.7774 209.778 77.2627 216.705 63.0266C219.721 56.8322 225.332 51.9559 231.836 49.7191C238.79 47.3292 245.407 48.5741 250.846 51.9858V51.9825Z" fill="#4DB4A8"/>
<path d="M7.2311 333.766L8.2929 331.127C28.0477 316.934 50.3421 306.286 73.7949 299.838C82.7287 297.382 92.0186 295.451 99.8739 290.542C107.733 285.629 114 276.828 112.809 267.638C112.343 264.04 110.781 260.638 110.482 257.024C109.457 244.595 123.4 235.907 135.842 235.022C148.284 234.14 160.896 237.828 173.161 235.565C168.711 232.053 164.837 228.378 160.962 224.707C152.867 217.501 143.817 211.443 134.071 206.703C127.527 203.521 120.98 200.335 114.436 197.153C93.2368 186.842 70.6095 175.169 59.9816 154.126C53.8504 141.986 52.4691 128.01 47.5196 115.345C41.0622 98.8188 28.8732 85.2884 16.8872 72.2039C6.66858 61.05 -7.48763 48.8676 -21.6871 54.0701L-22 320.918C-18.0823 322.156 -14.2179 323.577 -10.4334 325.182C-4.40542 327.735 1.42283 330.734 7.2311 333.766V333.766Z" fill="#F0E4DA"/>
<path d="M160.959 224.703C164.833 228.374 168.708 232.049 173.158 235.561L160.959 224.703Z" fill="#2E5E64"/>
<path d="M264.69 174.336C263.831 172.808 262.26 171.813 260.526 171.53C246.696 169.28 232.639 171.194 218.673 170.794C211.916 170.601 205.109 169.792 198.632 167.805C195.2 166.753 184.003 163.179 186.682 158.642C188.616 155.363 194.618 152.511 198.122 151.322C202.786 149.741 207.742 148.929 212.548 147.884C212.635 147.864 212.638 147.741 212.552 147.718C201.125 144.486 189.012 143.7 177.263 145.431C170.12 146.483 162.897 148.563 157.278 153.103C149.06 159.744 157.924 166.527 164.651 169.147C175.332 173.311 186.686 175.301 197.973 177.022C203.488 177.864 208.96 179.089 214.459 180.114C219.631 181.079 223.642 181.938 230.809 183.173C230.908 183.19 230.898 183.336 230.799 183.339C225.643 183.419 220.367 183.639 215.687 185.773C210.734 188.029 206.604 193.029 207.133 198.444C207.512 202.312 210.152 206.2 205.878 209.765C203.252 211.955 199.63 212.564 196.385 211.489C183.936 207.375 168.392 207.957 155.933 211.908C151.293 213.379 152.618 217.793 155.491 220.146C158.456 222.576 161.362 225.083 164.241 227.616C165.679 228.884 167.114 230.155 168.545 231.433C169.73 232.492 172.539 235.141 169.347 236.077C167.923 236.493 166.002 236.293 164.524 236.3C161.282 236.316 158.044 236.09 154.815 235.82C148.511 235.294 142.18 234.562 135.849 235.012C123.407 235.894 109.464 244.581 110.489 257.013C110.789 260.628 112.35 264.033 112.816 267.628C114.007 276.818 107.74 285.618 99.8811 290.531C92.0225 295.444 82.7359 297.371 73.8021 299.831C50.3493 306.279 28.0549 316.926 8.30008 331.119L7.23828 333.759C11.8316 336.159 16.415 338.575 21.075 340.819C25.0858 342.753 29.1533 344.557 33.3372 346.098C42.6738 349.536 52.4064 351.59 62.2854 352.478C63.7034 352.605 65.128 352.708 66.5526 352.788L67.1817 353.001L67.3781 352.831C71.0062 353.014 74.6442 353.048 78.2856 352.934L94.5688 341.002C107.933 332.757 121.47 324.376 132.221 312.932C142.972 301.489 150.791 286.417 150.202 270.727C149.782 259.596 161.495 257.928 170.126 254.919C180.095 251.444 190.946 247.397 196.119 237.428C198.935 232.003 200.03 225.778 204.666 221.478C209.373 217.111 215.913 215.413 220.973 211.532C224.098 209.136 226.268 204.935 226.578 201.097C227.114 194.394 233.102 192.133 238.601 190.536C244.649 188.778 250.517 186.591 256.302 184.105C260.898 182.128 267.269 178.906 264.696 174.332L264.69 174.336Z" fill="#2E5E64"/>
<path d="M324.302 151.283C315.312 150.903 307.51 158.818 302.817 166.494C298.12 174.17 293.683 182.947 285.422 186.512C276.898 190.19 266.506 187.197 258.165 191.275C252.253 194.164 248.512 200.042 244.678 205.388C236.666 216.555 225.818 226.98 213.176 231.36C208.833 232.865 204.196 233.218 199.623 232.755C198.834 232.675 198.211 232.698 198.108 232.955C197.586 234.259 197.016 235.558 196.251 236.819C186.921 252.207 171.004 252.147 155.673 259.476C153.815 260.358 151.955 262.376 150.966 264.176C149.891 266.13 150.114 268.5 150.197 270.727C150.79 286.417 142.968 301.492 132.217 312.936C121.466 324.383 107.928 332.76 94.5644 341.005L78.2812 352.938C90.1042 352.572 101.94 350.718 113.364 347.722C139.579 340.842 163.931 328.25 187.267 314.464C207.658 302.414 227.682 289.273 250.046 281.478C264.712 276.365 280.03 273.706 295.527 272.947L324.309 273.36V151.283H324.302Z" fill="#DEBF97"/>
</g>
<g clip-path="url(#clip0_2414_22860)">
<path d="M121.26 70.3021C126.383 70.3772 131.398 71.9143 135.788 74.5226C136.984 75.2373 138.489 73.9621 138.334 72.7006L136.284 55.767C136.003 53.4659 132.41 53.8182 132.692 56.1264L134.742 73.06L137.288 71.2379C132.319 68.2812 126.663 66.7938 120.892 66.7036C119.919 66.6921 119.187 67.7885 119.276 68.6793C119.383 69.7425 120.271 70.2777 121.252 70.2956L121.26 70.3021Z" fill="#2E5E64"/>
</g>
<g clip-path="url(#clip1_2414_22860)">
<path d="M112.791 84.134C116.715 85.7592 120.108 88.4778 122.692 91.8304C123.395 92.747 124.945 92.2249 125.211 91.2055L128.813 77.5321C129.3 75.6733 126.424 74.8455 125.935 76.71L122.334 90.3835L124.853 89.7586C121.929 85.9605 118.027 83.084 113.608 81.2492C112.862 80.9425 111.963 81.5633 111.759 82.2769C111.515 83.1286 112.036 83.8126 112.786 84.1266L112.791 84.134Z" fill="#2E5E64"/>
</g>
<g clip-path="url(#clip2_2414_22860)">
<path d="M143.791 77.134C147.715 78.7592 151.108 81.4778 153.692 84.8304C154.395 85.747 155.945 85.2249 156.211 84.2055L159.813 70.5321C160.3 68.6733 157.424 67.8455 156.935 69.71L153.334 83.3835L155.853 82.7586C152.929 78.9605 149.027 76.084 144.608 74.2492C143.862 73.9425 142.963 74.5633 142.759 75.2769C142.515 76.1286 143.036 76.8126 143.786 77.1266L143.791 77.134Z" fill="#2E5E64"/>
</g>
<defs>
<clipPath id="clip0_2414_22860">
<rect width="18.5625" height="20.6418" fill="white" transform="translate(118 55.8477) rotate(-5.71401)"/>
</clipPath>
<clipPath id="clip1_2414_22860">
<rect width="15.3876" height="17.1113" fill="white" transform="translate(114.701 72) rotate(15.9441)"/>
</clipPath>
<clipPath id="clip2_2414_22860">
<rect width="15.3876" height="17.1113" fill="white" transform="translate(145.701 65) rotate(15.9441)"/>
</clipPath>
</defs>
</svg>
