<?xml version="1.0" encoding="UTF-8"?>
<svg id="Layer_2"
    xmlns="http://www.w3.org/2000/svg"
    xmlns:xlink="http://www.w3.org/1999/xlink" viewBox="0 0 526.39 521.89">
    <defs>
        <clipPath id="clippath">
            <ellipse cx="263.19" cy="260.94" rx="263.19" ry="260.94" style="fill:none;"/>
        </clipPath>
        <clipPath id="clippath-1">
            <path d="M316.51,542.42c-2.99-30.25,5.51-69.96,18.69-97.36,13.18-27.4,31.43-52.01,50.12-75.99,7.72-9.91,15.54-19.74,23.45-29.5,2.33-2.87,4.72-5.85,5.64-9.43,1.91-7.46-3.7-15.44-11.01-17.89s-15.51-.3-22.05,3.78-11.73,9.94-16.95,15.61c-31.7,34.39-67.73,64.79-106.96,90.26-10.35,6.72-20.97,13.13-30.29,21.22-24.75,21.47-38.81,54.7-36.98,87.42l126.33,11.89Z" style="fill:none;"/>
        </clipPath>
        <clipPath id="clippath-2">
            <path d="M297.94,212.42c2.58-2.47,6.58-2.66,9.39-.45,19.16,15.06,37.02,32.18,53.9,49.7,2.6,2.7,5.31,5.7,5.76,9.42,.65,5.3-3.41,9.89-7.18,13.68-9.19,9.25-18.38,18.5-27.56,27.75-2.7,2.71-5.76,5.6-9.58,5.8-3.9,.21-7.3-2.45-10.27-4.98-16.55-14.13-32.39-29.11-47.41-44.86-3.35-3.51-6.91-7.74-6.36-12.57,.36-3.19,2.48-5.87,4.56-8.31,8-9.41,26.28-27.09,34.76-35.19Z" style="fill:none;"/>
        </clipPath>
        <clipPath id="clippath-3">
            <path d="M237.84,279.87c3.12-2.51,7.63-2.32,10.5,.47,12.92,12.56,25.47,25.49,37.64,38.78,5.48,5.98,11.23,12.99,10.68,21.09-.52,7.64-6.51,13.63-12.11,18.86-6.6,6.16-13.2,12.31-19.81,18.47-5.61,5.23-12.63,10.87-20.09,9.08-3.83-.92-6.91-3.67-9.82-6.33-10.7-9.78-21.41-19.57-32.11-29.35-4.21-3.85-8.63-8.04-9.96-13.59-1.72-7.19,2.23-14.45,6.47-20.52,8.22-11.79,28.73-28.98,38.62-36.95Z" style="fill:none;"/>
        </clipPath>
        <clipPath id="clippath-4">
            <path d="M187.32,349.85c16.25,11.14,30.58,25.07,42.18,41,1.84,2.53,3.7,5.48,3.12,8.55-.34,1.81-1.48,3.34-2.59,4.81-9.34,12.35-18.68,24.69-28.02,37.04-1.95,2.57-4.05,5.26-7.05,6.44-6.17,2.43-12.61-2.47-17.44-7.01-3.78-3.55-7.55-7.09-11.33-10.64-10.13-9.51-20.25-19.01-30.38-28.52-1.63-1.53-3.3-3.12-4.15-5.18-1.39-3.38-.29-7.26,1.31-10.55,3.05-6.26,7.77-11.52,12.44-16.69l41.9-19.26Z" style="fill:none;"/>
        </clipPath>
    </defs>
    <g id="Layer_1-2">
        <g style="clip-path:url(#clippath);">
            <path d="M-78.21,462.12c44.84,17.34,94.73,21.35,141.77,11.42,37.16-7.85,72.46-24.14,110.21-28.27,26.07-2.86,52.36,.2,78.09,4.54,20.01,3.37,36.01,18.33,57.03,15.91,14.2-1.64,27.64-9.47,41.87-8.13,16.41,1.54,28.94,14.61,41.2,25.64,27.5,24.74,45.94,17.5,69.33-5.85,21.96-21.93,54.4-31.87,84.31-20.66,3.83,1.43,7.55,3.18,11.48,4.29,6.05,1.72,12.41,1.91,18.69,2.06,6.78,.15,13.82,.21,19.99-2.6l-1.64-150.39c.26,6.74-8.48,9.66-15.22,9.66-21.8,0-45.96-7.85-63.94,4.48-4.85,3.32-8.75,7.89-13.64,11.14-14.18,9.41-32.95,5.91-49.52,2.05-26.32-6.12-70.53-24.02-96.61-16.36-19.29,5.67-32.82,20.1-50.83,28.02-22.33,9.82-48.08,11.33-71.98,7.74-36.43-5.49-70.31-21.42-105.19-33.28-34.88-11.87-73.16-19.69-108.29-8.59-32.49,10.26-63.38,36.38-96.32,27.67l-.79,119.53Z" style="fill:#4db4a8;"/>
            <path d="M596.72,422.9c-44.84-22.12-94.73-27.25-141.77-14.57-37.16,10.01-72.46,30.81-110.21,36.08-26.07,3.64-52.36-.26-78.09-5.79-20.01-4.31-36.01-23.4-57.03-20.3-14.2,2.09-27.64,12.08-41.87,10.37-16.41-1.97-28.94-18.65-41.2-32.72-27.5-31.57-45.94-22.34-69.33,7.47-21.96,27.99-54.4,40.67-84.31,26.37-3.83-1.83-7.55-4.05-11.48-5.48-6.05-2.19-12.41-2.44-18.69-2.62-6.78-.2-13.82-.27-19.99,3.32l1.64,191.92c-.26-8.6,8.48-12.33,15.22-12.33,21.8,0,45.96,10.02,63.94-5.72,4.85-4.24,8.75-10.07,13.64-14.21,14.18-12.01,32.95-7.54,49.52-2.62,26.32,7.81,70.53,30.66,96.61,20.87,19.29-7.24,32.82-25.65,50.83-35.76,22.33-12.54,48.08-14.46,71.98-9.87,36.43,7,70.31,27.33,105.19,42.47,34.88,15.14,73.16,25.12,108.29,10.96,32.49-13.1,63.38-46.42,96.32-35.31l.79-152.53Z" style="fill:#debf97;"/>
            <g>
                <path d="M174,298.7c-4.5-4.5-9.22-9.15-15.23-11.24-6.01-2.09-13.71-.8-17.05,4.62-3.91,6.35-.3,14.5,3.3,21.02,1.41,2.55,5.91,8.27,7.32,10.81l21.66-25.21Z" style="fill:#f0e4da;"/>
                <g>
                    <path d="M196.83,265.83c-5.91-5.69-14.32-12.95-22.42-11.64-7.6,1.23-12.87,9.4-12.24,17.08s6.71,14.87,13.5,18.51l21.16-23.95Z" style="fill:#f0e4da;"/>
                    <g>
                        <path d="M275.82,177.79c-10.24-7.19-22.04-12.15-34.34-14.44-4.46-.83-9.91-.93-12.55,2.75-5.76,8.03-5.02,20.08,1.69,27.33,3.66,3.96,8.71,6.47,12.13,10.63,.16,.2,.33,.4,.49,.6l7.19,6.93,25.38-33.81Z" style="fill:#f0e4da;"/>
                        <path d="M202.01,256.55c-3.37-2.23-7.87-7.97-10.35-11.15-2.1-2.69-3.87-5.79-4.22-9.19-.86-8.32,7.36-15.32,15.66-16.31,8.3-.99,16.44,2.33,24.14,5.59l5.5,3.67-30.73,27.39Z" style="fill:#f0e4da;"/>
                    </g>
                    <path d="M315.75,139.01c-40.78,39.84-80.47,80.8-118.75,123.04-18.94,20.9-37.54,42.1-55.81,63.58-9.29,10.92-18.5,21.92-27.63,32.98-4.63,5.61-9.23,11.23-13.82,16.87-3.88,4.78-9.02,9.7-10.63,15.82-1.93,7.28,1.72,14.5,6.74,19.69,10.17,10.51,64.95,60.32,82.62,70.9,8.01,4.79,18.21,6.37,27.22,8.18,16.37,3.3,31.81-8.34,43.37-20.39l30-27.22c11.01-9.84,19.62-22.01,28.71-33.66,43.88-56.22,100.83-102.27,137.68-163.33,6.09-10.09,11.73-22.33,7.26-33.23-1.96-4.79-5.66-8.62-9.31-12.29-25.25-25.37-52.31-48.94-80.9-70.48-3.97-2.99-8.13-6.02-12.98-7.12-12.12-2.77-23.38,5.71-32.01,14.65l-1.76,2Z" style="fill:#2e5e64;"/>
                    <path d="M112.45,398.87c.32,1.22,.82,2.39,1.55,3.48,6.48,9.73,18.49,17.02,27.52,24.09,11.43,8.96,22.86,17.91,34.3,26.87,5.41,4.24,11.06,8.6,17.76,10.15,15.41,3.58,29.69-8.44,40.89-19.61,64.18-64.04,125.53-130.91,183.81-200.36,5.11-6.09,10.51-13.15,9.69-21.06-.7-6.78-5.81-12.16-10.65-16.98-14.23-14.18-28.46-28.36-42.69-42.55-7.99-7.97-18.34-16.61-29.21-13.56-4.58,1.28-8.32,4.51-11.86,7.68-49.5,44.45-90.63,97.42-138.59,143.53-15.46,14.86-31.58,29.04-46.39,44.57-9.41,9.87-40.37,37.27-36.13,53.75Z" style="fill:#fff;"/>
                    <path d="M407.79,237.05c-1.7,9.71-13.34,16.27-22.53,12.7-3.45-1.34-6.35-3.78-9.18-6.17-18.3-15.5-36.59-31-54.89-46.5-1.21-1.03-2.47-2.12-2.99-3.62-.93-2.66,.77-5.47,2.54-7.66,3.15-3.9,6.78-7.42,10.79-10.43,1.83-1.38,3.84-2.69,6.12-2.88,3.36-.28,6.37,1.93,9.01,4.04,20.02,16,39.24,33,57.56,50.91,2.57,2.51,3.87,6.04,3.57,9.62h0Z" style="fill:#e8f5f5;"/>
                    <path d="M327.87,194.86c3.12,.26,6.29-.04,9.32-.81,1.27-.32,2.16-1.81,1.75-3.09s-1.72-2.1-3.09-1.75c-1.01,.26-2.03,.45-3.07,.59l.67-.09c-1.85,.24-3.72,.28-5.58,.13-1.31-.11-2.57,1.23-2.51,2.51,.06,1.45,1.1,2.39,2.51,2.51h0Z" style="fill:#4db4a8;"/>
                    <path d="M343.61,187.74c.35,0,.69,0,1.04,.03,.11,0,.44-.01,.52,.05l-.32-.04c.12,.02,.23,.04,.35,.06,.35,.06,.7,.14,1.04,.24,.17,.05,.34,.1,.51,.16,.11,.04,.22,.08,.33,.12,.26,.1,.22,.08-.11-.05,.22,.02,.59,.29,.78,.4,.15,.09,.3,.18,.44,.28l.14,.1c.22,.16,.19,.13-.1-.08,.23,.03,.58,.56,.74,.72,.41,.41-.27-.45,.03,.04,.13,.21,.26,.41,.38,.62l.08,.17c.12,.25,.11,.22-.03-.09,.08,.09,.11,.32,.15,.44,.04,.15,.08,.29,.12,.44l.04,.18c.05,.28,.04,.24-.01-.13,.15,.19,.02,.85,.01,1.09-.01,.6,.14-.53,0,.05-.06,.24-.11,.47-.18,.7l-.06,.17c-.1,.26-.08,.23,.05-.09-.02,.15-.18,.36-.25,.49-.09,.16-.2,.31-.3,.47-.12,.19-.06,.28,.05-.06-.09,.27-.55,.56-.75,.76-.43,.4,.45-.27-.04,.03-.2,.12-.39,.25-.59,.37-.15,.08-.31,.16-.47,.24-.53,.27,.52-.16-.05,.01-.34,.1-.67,.21-1.01,.29-.12,.02-.23,.04-.35,.07-.6,.12,.57-.02-.03,0-.42,.02-.82,.04-1.24,.02-.13,0-.41,.02-.53-.05l.31,.04c-.12-.02-.23-.04-.35-.06-.35-.07-.69-.16-1.03-.28l-.17-.06c-.26-.1-.22-.08,.11,.06-.06-.06-.26-.12-.34-.16-.18-.09-.36-.18-.53-.29-.11-.07-.77-.58-.32-.18-.15-.13-.3-.26-.44-.41-.39-.41,.03-.15,.03,.08,0-.14-.31-.48-.39-.62-.03-.06-.11-.3-.16-.33,.21,.13,.22,.58,.07,.13-.08-.24-.15-.49-.2-.74-.03-.13-.04-.26-.07-.39,.17,.76,.05,.35,.03,.14-.02-.27-.03-.54-.02-.81s.05-.55,.06-.82c-.01,.85,.01-.02,.08-.28,.07-.31,.16-.62,.26-.93,.04-.13,.11-.26,.14-.38-.17,.71-.09,.21,.02-.02,.14-.28,.29-.55,.46-.81,.07-.11,.16-.21,.23-.32-.37,.61-.21,.27-.07,.11,.07-.08,.64-.55,.64-.61,.02,.17-.55,.36-.11,.1,.14-.08,.29-.16,.42-.24,.38-.25-.59,.17-.15,.06,.16-.04,.31-.1,.47-.14,.38-.09,.23,.11-.17,0,.21,.05,.56-.04,.79-.04,1.31-.04,2.57-1.13,2.51-2.51s-1.1-2.55-2.51-2.51c-1.92,.05-3.55,.61-4.99,1.89-1.2,1.07-2.01,2.57-2.52,4.08-1.04,3.03-.75,6.65,1.33,9.16,1.3,1.57,3.46,2.6,5.45,2.94s4.04,.27,5.93-.48c2.04-.81,3.86-2.18,4.9-4.16s1.35-4.35,.74-6.53c-1.34-4.74-6.24-6.95-10.84-6.9-1.31,.01-2.57,1.14-2.51,2.51s1.1,2.52,2.51,2.51Z" style="fill:#4db4a8;"/>
                    <path d="M297.94,212.42c2.58-2.47,6.58-2.66,9.39-.45,19.16,15.06,37.02,32.18,53.9,49.7,2.6,2.7,5.31,5.7,5.76,9.42,.65,5.3-3.41,9.89-7.18,13.68-9.19,9.25-18.38,18.5-27.56,27.75-2.7,2.71-5.76,5.6-9.58,5.8-3.9,.21-7.3-2.45-10.27-4.98-16.55-14.13-32.39-29.11-47.41-44.86-3.35-3.51-6.91-7.74-6.36-12.57,.36-3.19,2.48-5.87,4.56-8.31,8-9.41,26.28-27.09,34.76-35.19Z" style="fill:#e8f5f5;"/>
                    <path d="M302.28,231.37c.1,.03,.19,.06,.29,.09,1.7,.56,3.4,1.18,4.93,2.1,3.31,2,5.48,5.85,5.29,9.75-.28,5.83-5.78,10.87-11.62,10.72-5.83-.15-11.04-5.38-11.26-11.21-.11-2.93,1.05-5.8,2.93-8.01,2.66-3.12,5.48-4.64,9.43-3.44Z" style="fill:#debf97;"/>
                    <path d="M322.81,258.72c7.28,5.03,13.75,11.17,19.23,18.12,.84,1.06,2.67,.88,3.55,0,1.05-1.05,.84-2.48,0-3.55-5.76-7.29-12.61-13.63-20.25-18.9-1.12-.77-2.78-.21-3.43,.9-.73,1.24-.22,2.66,.9,3.43h0Z" style="fill:#2e5e64;"/>
                    <path d="M312.44,269.12c7.28,5.59,14.29,11.54,21.02,17.79,2.36,2.19,5.92-1.35,3.55-3.55-7.05-6.54-14.41-12.72-22.03-18.57-1.08-.83-2.81-.17-3.43,.9-.76,1.29-.18,2.6,.9,3.43h0Z" style="fill:#2e5e64;"/>
                    <path d="M303.95,279.63c5.37,5.18,10.73,10.36,16.1,15.54,.97,.94,2.58,.97,3.55,0s.98-2.6,0-3.55c-5.37-5.18-10.73-10.36-16.1-15.54-.97-.94-2.58-.97-3.55,0s-.98,2.6,0,3.55h0Z" style="fill:#2e5e64;"/>
                    <path d="M237.84,279.87c3.12-2.51,7.63-2.32,10.5,.47,12.92,12.56,25.47,25.49,37.64,38.78,5.48,5.98,11.23,12.99,10.68,21.09-.52,7.64-6.51,13.63-12.11,18.86-6.6,6.16-13.2,12.31-19.81,18.47-5.61,5.23-12.63,10.87-20.09,9.08-3.83-.92-6.91-3.67-9.82-6.33-10.7-9.78-21.41-19.57-32.11-29.35-4.21-3.85-8.63-8.04-9.96-13.59-1.72-7.19,2.23-14.45,6.47-20.52,8.22-11.79,28.73-28.98,38.62-36.95Z" style="fill:#e8f5f5;"/>
                    <path d="M234.93,300.49c.69-.16,1.4-.23,2.13-.17,12.65,.94,15.2,23.14,1.72,25.12-3.38,.5-6.92-.8-9.34-3.21-2.42-2.41-3.71-5.85-3.69-9.27,.02-4.74,4.1-11.27,9.18-12.47Z" style="fill:#debf97;"/>
                    <path d="M259.83,325.96c2.98,2.31,5.79,4.82,8.4,7.53s4.9,5.48,6.98,8.41c.78,1.1,2.19,1.63,3.43,.9,1.09-.64,1.69-2.32,.9-3.43-4.55-6.41-9.95-12.14-16.16-16.95-1.07-.83-2.5-1.04-3.55,0-.86,.86-1.08,2.71,0,3.55h0Z" style="fill:#2e5e64;"/>
                    <path d="M248.54,337.74c5.59,5.39,11.29,10.68,17.1,15.84,1.01,.9,2.55,1,3.55,0,.92-.92,1.02-2.64,0-3.55-5.8-5.17-11.5-10.45-17.1-15.84-.98-.94-2.58-.97-3.55,0s-.98,2.6,0,3.55h0Z" style="fill:#2e5e64;"/>
                    <path d="M237.53,349.57c2.64,2.59,5.24,5.23,7.79,7.91,1.24,1.31,2.46,2.62,3.67,3.95,.64,.7,1.28,1.41,1.92,2.12,.28,.32,.56,.63,.84,.95,.18,.2,.35,.4,.53,.59,.28,.32,.4,.73,.06-.18v-1.33l-.04,.17,1.75-1.75-.1,.04,1.93,.25-.1-.07,.9,.9-.04-.1-.9,3.43,.07-.05c1.08-.81,1.64-2.17,.9-3.43-.62-1.07-2.34-1.72-3.43-.9l-.07,.05c-1.16,.87-1.54,2.08-.9,3.43,.86,1.81,3.6,1.8,4.58,.12s-.1-3.05-1.16-4.25c-1.58-1.78-3.17-3.55-4.79-5.29-3.2-3.45-6.49-6.82-9.85-10.11-.97-.95-2.58-.96-3.55,0s-.97,2.6,0,3.55h0Z" style="fill:#2e5e64;"/>
                    <path d="M170.27,348.62c22.22-10.25,48.32,27.23,59.23,42.23,1.84,2.53,3.7,5.48,3.12,8.55-.34,1.81-1.48,3.34-2.59,4.81-9.34,12.35-18.68,24.69-28.02,37.04-1.95,2.57-4.05,5.26-7.05,6.44-6.17,2.43-12.61-2.47-17.44-7.01-3.78-3.55-7.55-7.09-11.33-10.64-10.13-9.51-20.25-19.01-30.38-28.52-1.63-1.53-3.3-3.12-4.15-5.18-1.39-3.38-.29-7.26,1.31-10.55,4.59-9.41,21.63-29.95,37.28-37.17Z" style="fill:#e8f5f5;"/>
                    <path d="M159.81,376.62c.27,3.06,2.27,5.96,5.94,7.27,3.16,1.13,6.89,.53,9.53-1.55,1.51-1.18,3.26-4.74,3.83-6.55,1.35-4.25-1.26-7.36-5.23-8.55-3.1-.93-6.6-.71-9.4,.92-3.41,1.98-4.96,5.31-4.68,8.46Z" style="fill:#debf97;"/>
                    <path d="M196,386.11c6.26,4.35,12.15,9.19,17.66,14.46,.98,.94,2.57,.97,3.55,0s.98-2.61,0-3.55c-5.81-5.56-12.07-10.66-18.68-15.25-1.11-.77-2.79-.2-3.43,.9-.73,1.25-.22,2.66,.9,3.43h0Z" style="fill:#2e5e64;"/>
                    <path d="M184.19,394.12c6.88,5.6,13.52,11.5,19.89,17.68,2.32,2.25,5.87-1.29,3.55-3.55-6.37-6.18-13.01-12.08-19.89-17.68-1.05-.85-2.52-1.03-3.55,0-.88,.88-1.06,2.69,0,3.55h0Z" style="fill:#2e5e64;"/>
                    <path d="M176.34,405.79c6.58,5,12.54,10.85,17.77,17.24,.86,1.05,2.66,.89,3.55,0,1.04-1.04,.86-2.5,0-3.55-5.52-6.75-11.84-12.75-18.78-18.03-1.08-.82-2.81-.17-3.43,.9-.75,1.29-.18,2.61,.9,3.43h0Z" style="fill:#2e5e64;"/>
                    <path d="M316.51,542.42c-2.99-30.25,5.51-69.96,18.69-97.36,13.18-27.4,31.43-52.01,50.12-75.99,7.72-9.91,15.54-19.74,23.45-29.5,2.33-2.87,4.72-5.85,5.64-9.43,1.91-7.46-3.7-15.44-11.01-17.89s-15.51-.3-22.05,3.78-11.73,9.94-16.95,15.61c-31.7,34.39-67.73,64.79-106.96,90.26-10.35,6.72-20.97,13.13-30.29,21.22-24.75,21.47-38.81,54.7-36.98,87.42l126.33,11.89Z" style="fill:#f0e4da;"/>
                    <g style="clip-path:url(#clippath-1);">
                        <path d="M389.21,362.28c-3.86-5.23-7.93-11.27-6.81-17.68,.79-4.52,4.04-8.16,7.16-11.53,4.13-4.47,8.26-8.94,12.39-13.41,1.64-1.78,3.31-3.58,5.38-4.85l6.52-1.89,10.79,19.49-35.42,29.87Z" style="fill:#debf97;"/>
                    </g>
                    <path d="M385.87,154.88c2.85-.95,7.35,1.43,7.6,4.65,.24,3.09-3.5,5.56-6.41,4.48-2.33-.87-3.76-3.69-3.46-6.11,.21-1.68,1.1-2.63,2.27-3.02Z" style="fill:#f0e4da;"/>
                    <g style="clip-path:url(#clippath-2);">
                        <path d="M285.72,291.37c.56,.13,1.11,.25,1.67,.38,4.07-5.13,8.31-10.69,8.79-17.22,.27-3.62-.68-7.25-2.22-10.53-4.86-10.36-16.77-17.49-27.98-15.2l-5.24,1.94-7.71,5.82,32.69,34.82Z" style="fill:#4db4a8;"/>
                    </g>
                    <g style="clip-path:url(#clippath-3);">
                        <path d="M220,362.19c2.71-4.05,5.44-8.14,7.27-12.66,1.82-4.52,2.7-9.56,1.57-14.3-1.36-5.72-5.58-10.49-10.66-13.45s-10.98-4.26-16.84-4.77l-11.32,3.14v20.48l25.41,25.67,4.57-4.11Z" style="fill:#4db4a8;"/>
                    </g>
                    <g style="clip-path:url(#clippath-4);">
                        <path d="M159.25,422.81c1.04,.58,2.16-.61,2.71-1.66,4.08-7.82,5.11-17.19,2.83-25.71-.49-1.84-1.15-3.68-2.26-5.23-1.32-1.87-3.24-3.26-5.27-4.3-6.87-3.52-14.98-3.28-22.7-2.96l-8.23,6.96,29.39,32.34,3.53,.57Z" style="fill:#4db4a8;"/>
                    </g>
                </g>
            </g>
        </g>
    </g>
</svg>