<svg width="56" height="52" viewBox="0 0 56 52" fill="none" xmlns="http://www.w3.org/2000/svg">
<path d="M34.2817 47.0462C34.2817 47.0462 32.8544 47.1993 32.2881 46.8771L33.3844 38.5594C33.3844 38.5594 33.3436 38.4363 33.7492 38.2302C34.1548 38.0241 35.4935 37.5488 35.4935 37.5488L34.2817 47.0456V47.0462Z" fill="#234E51"/>
<path d="M20.6013 51.2826C20.7869 51.1627 20.9387 50.9987 21.0885 50.8366L22.1759 49.6608C22.2811 49.5472 22.3928 49.4171 22.3921 49.262C22.3876 48.2036 18.8819 48.0977 18.2671 48.8512C17.887 49.3169 17.6293 50.7103 18.0522 51.1474C18.5432 51.6552 20.0534 51.6361 20.6006 51.2826H20.6013Z" fill="#D46E5A"/>
<path d="M43.0447 19.6387C43.4388 21.6695 44.7692 19.9494 44.3604 21.6644C47.9191 20.6883 47.8891 20.8082 47.4777 16.9897C47.7379 15.2173 45.9745 14.0855 44.257 14.5181C42.6231 15.2244 42.3157 18.2211 43.0447 19.6387Z" fill="#E3C1B1"/>
<path d="M50.7268 20.8636C50.7357 20.8624 50.7453 20.8604 50.7542 20.8592C51.9634 20.6805 53.1433 21.2994 53.9035 22.0376C55.7192 23.7997 55.959 26.2025 55.922 28.4425C55.857 32.3726 55.1695 36.2964 53.8786 40.1021C53.6267 40.8454 53.3487 41.6091 53.4826 42.3702C53.5916 42.9916 53.9679 43.5639 54.2613 44.1502C54.6675 44.9631 54.9188 45.8205 55.0043 46.6882C55.0362 47.0098 55.0189 47.3792 54.6956 47.5872C54.4564 47.7409 54.1178 47.7582 53.8053 47.7684L50.6388 47.8698C50.2727 47.8813 49.8735 47.8858 49.582 47.7167C49.3206 47.5655 49.2089 47.3109 49.1177 47.0704C48.5387 45.5551 48.1828 43.9914 48.0578 42.4161C48.0342 42.1195 48.008 41.7998 47.7606 41.5695C47.3907 41.225 46.7076 41.2314 46.126 41.2735C43.8626 41.4374 41.6107 41.6888 39.381 42.0257C39.1476 42.0608 38.9021 42.1022 38.7293 42.2266C38.5009 42.3913 38.4633 42.6541 38.4397 42.8934L37.9907 47.4717C37.9008 48.3885 37.1215 49.0827 36.2005 49.0654L35.2605 49.0482C34.9308 49.0418 34.5781 49.0303 34.314 48.8798C33.9052 48.6475 33.8797 48.1958 33.8976 47.8079C34.0462 44.5547 36.6406 40.4613 37.5232 37.2757C37.941 35.7687 40.3485 34.903 42.3588 34.732C43.6177 34.6248 45.0323 34.7683 46.0208 34.1648C47.1094 33.5 47.1343 32.2686 47.0648 31.2076C46.9124 28.8859 46.7599 26.5642 46.6075 24.2425C46.5846 23.8961 46.5705 23.5254 46.8135 23.2319C47.0106 22.9952 47.3448 22.8491 47.6656 22.7119C48.8429 22.2098 49.4079 21.0742 50.7287 20.8624L50.7268 20.8636Z" fill="#4DB6A9"/>
<path d="M4.39502 22.157C4.38737 22.1557 4.37972 22.1545 4.37143 22.1532C3.34909 21.9911 2.35164 22.5519 1.70941 23.2193C0.17432 24.8143 -0.0278498 26.9893 0.00276271 29.0162C0.0576102 32.5731 0.639248 36.1249 1.73046 39.5688C1.94347 40.2419 2.17817 40.9329 2.06528 41.622C1.97281 42.1847 1.65456 42.7021 1.40711 43.2329C1.064 43.9685 0.851623 44.745 0.778918 45.5297C0.752132 45.8207 0.766163 46.1556 1.03976 46.3438C1.24193 46.4829 1.52829 46.4989 1.79232 46.5078L4.469 46.5997C4.77832 46.6105 5.11569 46.6144 5.36251 46.4612C5.58317 46.3241 5.67756 46.0937 5.75537 45.8768C6.24453 44.5057 6.54619 43.09 6.65142 41.6641C6.67119 41.3955 6.69351 41.1064 6.9027 40.8978C7.21584 40.5858 7.79301 40.5916 8.28473 40.6299C10.198 40.7785 12.1024 41.0056 13.9869 41.3106C14.184 41.3425 14.3919 41.3795 14.538 41.4924C14.7312 41.6417 14.7631 41.8791 14.7829 42.0954L15.2975 47.7085L17.471 47.6652C17.7497 47.6594 18.0482 47.6486 18.2714 47.5133C18.6171 47.3034 18.6388 46.8944 18.6235 46.5429C18.4978 43.5985 16.3046 39.8936 15.5584 37.0104C10.8083 37.8947 9.79303 35.0313 5.52003 35.3567C6.53599 35.5137 7.68587 35.076 8.47988 34.5356C9.2739 33.9952 9.84533 33.2743 10.3785 32.5521C11.3224 31.2735 12.1974 29.9247 12.5048 28.4535C12.8645 26.7302 12.4219 24.9706 11.9806 23.2608C11.9448 23.1236 11.904 22.9775 11.7809 22.8799C11.6846 22.8033 11.5513 22.7669 11.4231 22.7331C9.13167 22.1302 6.75091 22.5609 4.39438 22.1564L4.39502 22.157Z" fill="#2D5D63"/>
<path d="M4.83349 30.3944C4.83349 30.3944 1.7193 34.8572 3.3137 37.2989L12.8419 37.3621C12.8419 37.3621 13.1014 41.2775 17.7354 48.6031C18.2839 48.8845 18.87 49.1773 19.4656 49.0765C20.0613 48.9757 20.6385 48.5252 20.8005 47.8668C20.8617 47.618 20.8623 47.3564 20.8623 47.098C20.8642 45.0807 20.8655 43.0639 20.8674 41.0465C20.8687 39.4879 20.8674 37.9044 20.4848 36.407C20.377 35.9846 20.2386 35.5705 20.0485 35.1877C19.7246 34.535 19.2584 33.9908 18.7979 33.4536C18.5326 33.1448 18.2584 32.8284 17.9101 32.6568C17.6844 32.5457 17.4388 32.5011 17.1958 32.4577C15.4777 32.1502 13.759 31.8433 12.0408 31.5358L12.2959 31.3278C11.0045 31.3603 9.75892 30.8448 8.51209 30.4614C7.26527 30.0779 5.90493 29.831 4.70657 30.3797" fill="#DEBF97"/>
<path d="M8.77255 21.251L8.83314 20.0752C8.83123 19.9827 8.86439 19.8901 8.93327 19.8289C9.10036 19.6796 9.31082 19.8346 9.50406 19.8952C9.86503 20.0088 10.2598 19.7562 10.4365 19.4212C10.6131 19.0863 10.6252 18.692 10.6342 18.313C10.6514 17.5327 10.6693 16.7524 10.6865 15.9721C10.6954 15.574 10.6992 15.1542 10.5047 14.8071C10.1463 14.1679 9.29743 14.0396 8.56655 13.9835C8.29614 13.9624 8.01872 13.9426 7.75979 14.023C7.37777 14.1417 7.09077 14.4633 6.89498 14.8116C6.42559 15.6442 6.38095 16.6414 6.34715 17.5972C6.31526 18.4993 6.82292 18.9293 6.79103 19.8321C6.77763 20.2187 6.40965 21.1285 6.71258 21.369C6.82866 21.7225 6.96705 21.7774 7.33121 21.8546C7.69537 21.9318 7.70877 22.1691 8.07739 22.1174C8.18007 22.1034 8.62905 22.1455 8.69985 22.0702C8.8325 21.9292 8.61885 21.3684 8.77319 21.2517L8.77255 21.251Z" fill="#E3C1B1"/>
<path d="M8.39431 16.1549C8.0952 16.8165 8.15324 17.5802 7.98806 18.2871C7.94214 18.4829 7.87517 18.682 7.7355 18.8268C7.49379 19.0776 7.10731 19.1031 6.75909 19.112C6.08689 19.1299 5.41405 19.1477 4.74185 19.1656C4.62961 19.1688 4.5129 19.1707 4.41213 19.1209C4.06072 18.9468 4.23037 18.4242 4.38343 18.0631C4.59453 17.5661 4.67361 17.0136 4.61111 16.477C4.56711 16.1025 4.45614 15.7338 4.47017 15.3573C4.49823 14.6319 4.99313 13.9971 5.58115 13.5722C6.59582 12.8391 8.00464 12.6075 9.13347 13.1486C9.63858 13.3904 11.1322 14.6166 10.6073 15.2585C10.1335 15.8384 8.93513 14.9592 8.39431 16.1555V16.1549Z" fill="black"/>
<path d="M12.077 30.8933C12.5872 29.8266 12.0337 28.6769 12.4195 27.5591C12.4195 27.5591 12.7531 23.9429 11.8914 22.6917C11.0298 21.44 8.72177 21.2454 8.72177 21.2454C8.72177 21.2454 8.83274 21.9689 7.72112 21.9127C6.60951 21.8566 6.63693 21.0508 6.63693 21.0508C5.52467 21.1063 4.69048 21.357 4.69048 21.357C2.605 21.9689 1.62477 28.0299 1.50168 29.0163C1.37859 30.0033 1.77464 30.9973 2.51636 31.6889C3.72109 32.8124 5.67391 32.8399 7.44178 32.6989C8.03682 32.6517 8.57253 33.0147 8.78746 33.5717C8.83019 33.6827 8.90034 33.7848 9.0196 33.8709C9.34422 34.105 9.78811 34.0521 10.0834 33.7822C10.2958 33.5876 10.408 33.335 10.4476 33.0638C10.5311 32.4864 11.0132 32.05 11.5949 32.0175L12.1548 31.9862C12.3296 31.9766 12.5101 31.9652 12.6644 31.8829C12.8187 31.8006 12.9399 31.6283 12.9036 31.4567C12.5643 31.2901 12.1752 31.227 11.8002 31.2787C11.8379 31.0949 11.9948 31.063 12.0758 30.8939L12.077 30.8933ZM3.9156 28.4478L4.51127 26.648C4.53806 28.2941 4.80337 28.578 4.80337 28.578L3.9156 28.4478Z" fill="#4DB6A9"/>
<path d="M34.7016 36.0014C34.2927 25.2038 33.8839 14.4055 33.4751 3.60787C33.4254 2.28911 33.2047 0.702391 31.9987 0.165189C31.0261 -0.268017 29.9139 0.232818 28.9694 0.724721C24.8003 2.8965 17.6319 4.4947 17.4125 9.96497C16.7837 22.9082 16.7543 35.8802 17.3258 48.826C17.357 49.531 17.3997 50.2698 17.7703 50.8701C18.3468 51.8048 19.5955 52.1423 20.6753 51.9464C21.755 51.7506 22.7034 51.1266 23.5969 50.4886C26.8686 48.1541 29.875 45.4471 32.5389 42.437C33.2647 41.6171 33.9777 40.7526 34.3565 39.7248C34.7902 38.547 34.7481 37.2544 34.7009 36.0001L34.7016 36.0014ZM32.7621 36.7823C31.7698 41.1507 28.0631 44.2916 24.572 47.0982C22.9387 48.4113 21.0885 49.797 18.998 49.6573C18.6542 36.8582 18.549 24.0534 18.6829 11.2506C18.7084 8.81784 19.0962 8.14729 21.1274 7.47611C23.343 6.74368 25.4087 6.00997 27.4113 4.74799C28.5484 4.03151 29.984 3.20146 31.1256 3.91029C32.1199 4.52788 32.1958 5.92065 32.1684 7.09139C31.9879 14.8623 32.2175 22.6422 32.8559 30.3888C33.0319 32.5223 33.236 34.6954 32.7615 36.7829L32.7621 36.7823Z" fill="#2D5D63"/>
<path d="M29.4877 49.9668C29.4756 50.4516 29.496 51.0118 29.8755 51.313C30.0643 51.4629 30.3105 51.5178 30.5477 51.5611C31.35 51.7072 32.167 51.7698 32.982 51.7487C33.4387 51.7366 33.9068 51.6951 34.3162 51.4929C34.7257 51.2906 35.0675 50.8963 35.0892 50.4402C35.1007 50.1971 35.0229 49.9597 34.9463 49.7288C34.5305 48.4764 33.66 47.2763 32.144 47.6521C31.0624 47.92 29.5171 48.7992 29.4871 49.9668H29.4877Z" fill="#2D5D63"/>
<path d="M35.7379 48.6852C35.7379 48.6852 36.9089 40.721 36.9886 39.6842C37.0683 38.6475 48.0569 37.7122 48.0569 37.7122C48.0569 37.7122 49.4402 37.5099 49.3337 35.1078C49.2272 32.7057 42.6022 33.5658 42.6022 33.5658C42.6022 33.5658 34.3011 35.386 33.0504 37.0046C32.4618 37.064 32.2048 37.8251 31.9879 38.3757C31.2111 40.3452 31.5625 42.5521 31.4739 44.6677C31.4292 45.7402 31.2685 46.8203 31.4324 47.8807C31.5963 48.9411 32.1658 50.0193 33.1557 50.434C34.1455 50.8487 35.5243 50.2822 35.655 49.2167C35.6997 48.8511 35.6232 49.0361 35.7379 48.6859V48.6852Z" fill="#DEBF97"/>
<path d="M25.3697 3.38477H25.2415C24.9808 3.38477 24.7695 3.59614 24.7695 3.85689V4.90386C24.7695 5.16461 24.9808 5.37598 25.2415 5.37598H25.3697C25.6303 5.37598 25.8416 5.16461 25.8416 4.90386V3.85689C25.8416 3.59614 25.6303 3.38477 25.3697 3.38477Z" fill="#DEBF97"/>
<path d="M43.8711 15.8347C44.1677 15.9502 44.2046 16.3777 44.4636 16.5633C44.8214 16.8198 45.3239 16.4721 45.7531 16.5704C46.1122 16.652 46.3201 17.0131 46.5312 17.3149C46.7786 17.669 47.4075 18.0933 47.7512 17.6001C47.8271 17.4916 47.8501 17.3545 47.8507 17.2218C47.8507 17.0757 47.8258 16.9289 47.7767 16.7911C47.7506 16.7177 47.7168 16.6463 47.6875 16.5742C47.4821 16.0702 47.5937 15.7518 47.6479 15.2465C47.6938 14.821 47.6543 14.3578 47.3539 14.0266C46.6205 13.2176 45.2455 13.9348 44.2059 13.6024C43.6696 13.4307 43.225 12.9726 42.6625 12.9465C42.1268 12.9216 41.6651 13.2955 41.2607 13.6477L40.3634 14.4299C40.1013 14.6583 39.8194 14.9249 39.7977 15.272C39.6816 17.1229 43.2193 15.5821 43.8717 15.8354L43.8711 15.8347Z" fill="black"/>
<path d="M37.0064 27.9903C37.2219 28.0828 37.4528 28.1702 37.6843 28.1364C38.023 28.0873 38.2679 27.7983 38.4796 27.529L41.5511 23.6276C42.421 22.5226 43.3215 21.3908 44.5409 20.6915C45.7603 19.9922 47.391 19.8193 48.5282 20.6468C49.5958 21.4233 49.9612 22.8314 50.171 24.1342C50.5664 26.5918 50.6666 29.0966 50.4689 31.5784C50.3681 32.843 50.0747 34.281 48.9708 34.9037C48.2169 35.3286 47.2864 35.2438 46.4363 35.0824C45.2386 34.8552 44.0645 34.5024 42.9401 34.0303C42.537 33.8612 42.1161 33.6558 41.891 33.2806C41.6933 32.9502 41.6818 32.5431 41.6907 32.1578C41.7194 30.9232 41.898 29.6925 42.222 28.5013C40.7672 28.9301 39.9764 30.6495 38.5166 31.0597C37.4018 31.373 36.2442 30.832 35.2123 30.3056C33.9304 29.6517 32.6485 28.9971 31.3666 28.3431C31.197 28.2563 31.0108 28.1498 30.9623 27.966C30.9151 27.7893 31.0146 27.61 31.1096 27.4537C31.9802 26.0271 32.1256 24.9585 33.7123 25.8581C34.8539 26.505 35.8004 27.3867 37.0057 27.9897L37.0064 27.9903Z" fill="#2D5D63"/>
<path d="M43.6462 19.6626C44.1979 19.2192 44.7081 18.7247 45.1692 18.1875L44.4224 19.6351C44.3274 19.8202 44.2221 20.0154 44.0397 20.1156C43.8573 20.2157 43.578 20.1647 43.5155 19.9663C43.4524 19.764 43.6386 19.5745 43.8153 19.4578" fill="#C4A497"/>
<path d="M31.2279 27.1129C30.9084 26.9547 30.673 26.6376 30.6137 26.2861C30.5831 26.1043 30.6054 25.8975 30.7368 25.768C30.8899 25.6168 31.1322 25.6181 31.3471 25.6296L32.2317 25.6768" fill="#E3C1B1"/>
<path d="M44.5218 25.7544L45.8566 24.6621C46.0549 24.9103 45.9727 25.2957 45.7648 25.5362C45.5568 25.7767 45.2552 25.9107 44.9707 26.0517C44.6863 26.1927 44.3942 26.3618 44.2373 26.6387C44.1621 26.7714 44.1225 26.9226 44.0454 27.0546C43.8502 27.3889 43.4019 27.5497 43.039 27.4164C42.8559 27.5363 42.6754 27.6588 42.4873 27.766C42.7335 26.9372 43.9089 26.2922 44.5224 25.755L44.5218 25.7544Z" fill="#1D3F42"/>
<path d="M34.1922 28.5081C35.0289 29.0963 35.9262 29.599 36.865 30.0042C36.5117 30.098 36.1265 30.068 35.7917 29.9206C35.5436 29.8115 35.3274 29.6418 35.1093 29.4804C34.4791 29.0127 33.7081 28.6752 33.1182 28.1801C33.4753 28.0072 33.886 28.2931 34.1922 28.5081Z" fill="#1D3F42"/>
<path d="M35.1789 42.3999C35.1993 41.8844 35.2848 41.3714 35.434 40.877C35.0533 42.1415 35.434 43.6523 35.0029 44.9525C34.6164 44.3573 35.1521 43.1004 35.1795 42.3992L35.1789 42.3999Z" fill="#AF8F6D"/>
<path d="M44.38 36.4164C43.7786 36.9325 42.1931 37.3109 41.4297 37.2649C42.246 36.4158 43.6963 36.1114 44.8175 36.1255C44.6064 36.1695 44.5381 36.2805 44.38 36.4164Z" fill="#AF8F6D"/>
<path d="M10.4282 26.3178C10.5073 25.6173 10.3179 24.8721 9.9346 24.3789C10.3039 24.7604 10.6272 25.2543 10.7599 25.8501C10.8868 26.4212 10.7688 27.16 10.3542 27.3884C10.2445 27.449 10.124 27.4681 10.0143 27.5294C9.73944 27.6825 9.57107 28.0245 9.26367 28.0487C9.44735 27.1638 10.3408 27.0949 10.4289 26.3178H10.4282Z" fill="#3F9E90"/>
<path d="M5.3697 29.3743L5.85439 29.6078C5.97174 29.6646 6.08973 29.7214 6.19687 29.796C6.27978 29.8541 6.35567 29.9223 6.44624 29.9676C6.59356 30.0417 6.76384 30.0487 6.92456 30.085C7.18604 30.1437 7.42839 30.2854 7.60824 30.4851C7.21984 30.5667 6.82443 30.4168 6.4558 30.2701L5.49087 29.8847C5.2938 29.8062 4.8091 29.6423 4.74342 29.4036C4.63308 29.0017 5.16498 29.276 5.3697 29.3749V29.3743Z" fill="#3F9E90"/>
<path d="M8.92419 29.2415C8.8636 29.41 8.88592 29.6001 8.82661 29.7692C8.78643 29.884 8.71117 29.9816 8.64038 30.0805C8.35913 30.4723 8.134 30.9036 7.97265 31.3578C7.83744 31.7387 7.74688 32.1483 7.81767 32.5458C7.90122 32.6147 8.03706 32.556 8.08936 32.4616C8.14165 32.3671 8.13846 32.2529 8.1442 32.1445C8.16397 31.7476 8.32023 31.3725 8.47456 31.0063C8.56768 30.7842 8.66143 30.5622 8.78324 30.3549C8.90123 30.1539 9.04472 29.9689 9.16016 29.766C9.45098 29.2537 9.59383 28.6795 9.91463 28.1837C9.59702 28.1155 9.60468 28.356 9.47266 28.5448C9.31194 28.7758 9.02176 28.9742 8.92482 29.2422L8.92419 29.2415Z" fill="#3F9E90"/>
<path d="M3.85727 27.4884C3.83558 27.3321 3.88724 27.1674 3.99438 27.0513C4.03839 27.0035 4.09132 26.9639 4.1315 26.9122C4.21058 26.8114 4.23227 26.6794 4.26352 26.5562C4.41212 25.975 4.8324 25.4455 4.77628 24.8477C4.59069 24.9038 4.47653 25.0927 4.41977 25.2783C4.36301 25.464 4.34451 25.6624 4.26161 25.8378C4.18252 26.0044 4.04987 26.1403 3.97525 26.3087C3.91147 26.4522 3.89362 26.6111 3.87066 26.7668C3.81007 27.1783 3.70867 27.5841 3.56836 27.9758" fill="#3F9E90"/>
<path d="M5.12647 21.4501C4.97214 21.535 4.82864 21.6543 4.65389 21.6753C4.52762 21.6907 4.39305 21.6536 4.27634 21.7021C4.18641 21.7398 4.12391 21.8221 4.06715 21.9012C3.62965 22.515 3.27761 23.1893 3.02441 23.8994C3.18258 23.7387 3.21319 23.493 3.3248 23.2972C3.36562 23.2257 3.41664 23.1613 3.4683 23.0968L3.87582 22.5845C4.00465 22.4224 4.14113 22.2547 4.33119 22.1717C4.51486 22.0913 4.72787 22.1009 4.91091 22.0186C5.07482 21.9452 5.18005 21.801 5.32864 21.7098C5.41602 21.6562 5.77316 21.5669 5.80952 21.5031C6.01998 21.1305 5.24382 21.385 5.12711 21.4495L5.12647 21.4501Z" fill="#3F9E90"/>
</svg>
