<svg width="131" height="121" viewBox="0 0 131 121" fill="none" xmlns="http://www.w3.org/2000/svg">
<path d="M80.1884 109.36C80.1884 109.36 76.8706 109.715 75.5541 108.967L78.1025 89.6319C78.1025 89.6319 78.0076 89.3456 78.9505 88.8666C79.8934 88.3876 83.0051 87.2827 83.0051 87.2827L80.1884 109.358V109.36Z" fill="#234E51"/>
<path d="M48.3882 119.207C48.8196 118.929 49.1724 118.547 49.5208 118.171L52.0485 115.438C52.2931 115.174 52.5525 114.871 52.551 114.511C52.5407 112.05 44.3914 111.804 42.9623 113.555C42.0787 114.638 41.4798 117.877 42.4627 118.893C43.6042 120.074 47.1147 120.029 48.3867 119.207H48.3882Z" fill="#D46E5A"/>
<path d="M100.558 45.6508C101.474 50.3714 104.567 46.3731 103.617 50.3595C111.889 48.0904 111.819 48.3693 110.863 39.4932C111.468 35.3732 107.369 32.7423 103.376 33.7478C99.5783 35.3895 98.8638 42.3555 100.558 45.6508Z" fill="#E3C1B1"/>
<path d="M118.416 48.4981C118.436 48.4951 118.459 48.4906 118.479 48.4877C121.29 48.0724 124.033 49.511 125.8 51.2269C130.021 55.3231 130.578 60.9083 130.492 66.1153C130.341 75.251 128.743 84.3718 125.742 93.2182C125.156 94.946 124.51 96.7212 124.821 98.4905C125.075 99.935 125.95 101.265 126.632 102.628C127.576 104.518 128.16 106.511 128.359 108.528C128.433 109.275 128.393 110.134 127.641 110.617C127.085 110.975 126.298 111.015 125.572 111.039L118.211 111.274C117.36 111.301 116.432 111.312 115.755 110.919C115.147 110.567 114.887 109.975 114.675 109.416C113.329 105.894 112.502 102.259 112.211 98.5973C112.157 97.9077 112.096 97.1646 111.521 96.6293C110.661 95.8284 109.073 95.8432 107.721 95.9411C102.46 96.3223 97.2249 96.9066 92.0421 97.6896C91.4996 97.7712 90.9288 97.8676 90.527 98.1568C89.9963 98.5394 89.9088 99.1505 89.854 99.7066L88.8103 110.349C88.6013 112.48 86.7897 114.094 84.649 114.054L82.4638 114.014C81.6973 113.999 80.8775 113.972 80.2638 113.622C79.3135 113.082 79.2542 112.032 79.2957 111.131C79.6411 103.568 85.6719 94.0532 87.7237 86.6483C88.6947 83.1453 94.2911 81.1328 98.9639 80.7353C101.89 80.4862 105.178 80.8198 107.476 79.4169C110.007 77.8715 110.065 75.0092 109.903 72.5429C109.549 67.146 109.195 61.7492 108.84 56.3523C108.787 55.547 108.754 54.6854 109.319 54.0032C109.777 53.453 110.554 53.1133 111.3 52.7945C114.036 51.6273 115.35 48.9875 118.42 48.4951L118.416 48.4981Z" fill="#4DB6A9"/>
<path d="M10.7164 51.5046C10.6986 51.5016 10.6809 51.4987 10.6616 51.4957C8.28516 51.119 5.96655 52.4226 4.47368 53.9739C0.905333 57.6815 0.435385 62.7373 0.506544 67.449C0.634038 75.717 1.98607 83.9732 4.5226 91.9787C5.01775 93.5434 5.56331 95.1495 5.30091 96.7512C5.08595 98.0593 4.34619 99.2621 3.77098 100.496C2.9734 102.206 2.47974 104.011 2.31073 105.835C2.24847 106.511 2.28108 107.29 2.91707 107.727C3.38702 108.051 4.05266 108.088 4.66641 108.108L10.8884 108.322C11.6074 108.347 12.3917 108.356 12.9654 108C13.4783 107.681 13.6977 107.146 13.8786 106.642C15.0157 103.455 15.7169 100.164 15.9615 96.8491C16.0074 96.2248 16.0593 95.5529 16.5456 95.068C17.2735 94.3427 18.6151 94.3561 19.7581 94.4451C24.2056 94.7906 28.6323 95.3186 33.0131 96.0275C33.4711 96.1017 33.9544 96.1877 34.2939 96.4502C34.7431 96.7972 34.8172 97.3489 34.8632 97.8517L36.0596 110.9L41.1119 110.799C41.7597 110.785 42.4535 110.76 42.9724 110.446C43.7759 109.958 43.8263 109.007 43.7907 108.19C43.4987 101.346 38.4004 92.7336 36.6659 86.0317C25.6243 88.0872 23.2642 81.4312 13.3315 82.1876C15.6932 82.5524 18.3661 81.535 20.2118 80.2789C22.0575 79.0227 23.3858 77.3469 24.6251 75.6681C26.8192 72.696 28.8532 69.5608 29.5678 66.1409C30.4039 62.1352 29.375 58.0449 28.3492 54.0703C28.2661 53.7514 28.1713 53.4118 27.8851 53.1849C27.6613 53.0069 27.3514 52.9224 27.0535 52.8438C21.7269 51.4423 16.1927 52.4434 10.715 51.5031L10.7164 51.5046Z" fill="#2D5D63"/>
<path d="M11.7357 70.6525C11.7357 70.6525 4.49667 81.0265 8.20289 86.7021L30.3513 86.849C30.3513 86.849 30.9546 95.9505 41.7264 112.979C43.0013 113.633 44.3637 114.314 45.7484 114.079C47.133 113.845 48.4747 112.798 48.8512 111.268C48.9935 110.689 48.995 110.081 48.995 109.48C48.9995 104.791 49.0024 100.103 49.0069 95.4136C49.0098 91.7905 49.0069 88.1095 48.1174 84.6288C47.8669 83.647 47.5452 82.6845 47.1034 81.7947C46.3503 80.2775 45.2666 79.0125 44.1962 77.7637C43.5795 77.0459 42.942 76.3103 42.1326 75.9114C41.6078 75.6533 41.037 75.5495 40.4722 75.4487C36.4784 74.7338 32.4831 74.0205 28.4893 73.3057L29.0822 72.8222C26.0802 72.8978 23.1849 71.6995 20.2866 70.8082C17.3884 69.9169 14.2262 69.3429 11.4406 70.6184" fill="#DEBF97"/>
<path d="M20.8921 49.3983L21.0329 46.665C21.0285 46.45 21.1055 46.2349 21.2656 46.0925C21.6541 45.7455 22.1433 46.1059 22.5925 46.2468C23.4316 46.5108 24.3492 45.9235 24.7599 45.1449C25.1705 44.3663 25.1987 43.4497 25.2194 42.5688C25.2595 40.755 25.301 38.9412 25.341 37.1274C25.3618 36.202 25.3707 35.2262 24.9185 34.4194C24.0853 32.9334 22.1122 32.6353 20.4132 32.5047C19.7846 32.4558 19.1398 32.4098 18.5379 32.5967C17.6499 32.8725 16.9827 33.62 16.5276 34.4298C15.4365 36.3652 15.3327 38.6832 15.2542 40.9048C15.18 43.0018 16.3601 44.0014 16.286 46.0999C16.2548 46.9987 15.3994 49.1135 16.1036 49.6726C16.3734 50.4943 16.6951 50.6218 17.5416 50.8012C18.3881 50.9807 18.4193 51.5324 19.2762 51.4123C19.5148 51.3796 20.5585 51.4775 20.7231 51.3025C21.0314 50.9748 20.5348 49.6712 20.8935 49.3998L20.8921 49.3983Z" fill="#E3C1B1"/>
<path d="M20.0129 37.5521C19.3176 39.09 19.4525 40.8653 19.0685 42.5085C18.9618 42.9638 18.8061 43.4265 18.4814 43.7632C17.9196 44.346 17.0212 44.4053 16.2118 44.4261C14.6492 44.4676 13.0852 44.5091 11.5226 44.5507C11.2617 44.5581 10.9904 44.5625 10.7562 44.4468C9.93935 44.042 10.3337 42.8273 10.6895 41.9879C11.1802 40.8326 11.364 39.5483 11.2187 38.301C11.1164 37.4305 10.8585 36.5733 10.8911 35.6983C10.9563 34.012 12.1067 32.5364 13.4736 31.5487C15.8322 29.8446 19.1071 29.3063 21.7311 30.5639C22.9052 31.126 26.3772 33.9764 25.1571 35.4684C24.0556 36.8165 21.27 34.7729 20.0129 37.5536V37.5521Z" fill="black"/>
<path d="M28.5734 71.8123C29.7594 69.3326 28.4726 66.6601 29.3695 64.0618C29.3695 64.0618 30.1449 55.6558 28.142 52.7475C26.1392 49.8378 20.7741 49.3854 20.7741 49.3854C20.7741 49.3854 21.032 51.0672 18.448 50.9367C15.8641 50.8062 15.9278 48.9331 15.9278 48.9331C13.3423 49.0621 11.4033 49.645 11.4033 49.645C6.55552 51.0672 4.27693 65.1563 3.99081 67.4491C3.70469 69.7434 4.62532 72.054 6.34945 73.6616C9.14987 76.2733 13.6892 76.3371 17.7987 76.0093C19.1819 75.8996 20.4272 76.7434 20.9268 78.0381C21.0261 78.2962 21.1892 78.5335 21.4664 78.7337C22.221 79.278 23.2528 79.1549 23.9392 78.5275C24.4328 78.0752 24.6938 77.4879 24.7857 76.8576C24.9799 75.5155 26.1006 74.501 27.4527 74.4254L28.7543 74.3527C29.1605 74.3305 29.58 74.3038 29.9388 74.1125C30.2976 73.9212 30.5792 73.5207 30.4947 73.1218C29.706 72.7347 28.8017 72.5879 27.93 72.708C28.0175 72.2809 28.3822 72.2067 28.5705 71.8137L28.5734 71.8123ZM9.60203 66.1277L10.9867 61.944C11.0489 65.7703 11.6657 66.4302 11.6657 66.4302L9.60203 66.1277Z" fill="#4DB6A9"/>
<path d="M81.1645 83.6859C80.2143 58.5866 79.264 33.4859 78.3137 8.38657C78.1981 5.32109 77.6851 1.63272 74.8817 0.383986C72.621 -0.623011 70.0355 0.54119 67.8399 1.68463C58.1489 6.73296 41.4857 10.448 40.9758 23.1638C39.514 53.2506 39.4458 83.4041 40.7742 113.497C40.8468 115.136 40.9461 116.853 41.8074 118.249C43.1476 120.421 46.0503 121.206 48.5602 120.751C51.07 120.295 53.2745 118.845 55.3515 117.362C62.9566 111.935 69.9451 105.643 76.1374 98.6455C77.8245 96.7398 79.4819 94.7303 80.3625 92.3411C81.3706 89.6033 81.2728 86.5986 81.163 83.683L81.1645 83.6859ZM76.6563 85.5012C74.3495 95.6557 65.7333 102.957 57.6182 109.481C53.8215 112.533 49.5208 115.754 44.6612 115.429C43.8622 85.6777 43.6176 55.9127 43.9289 26.1521C43.9882 20.4972 44.8895 18.9385 49.6113 17.3784C54.7614 15.6758 59.5632 13.9703 64.2182 11.0368C66.8615 9.37132 70.1986 7.44186 72.8522 9.08954C75.1634 10.5251 75.3398 13.7627 75.2761 16.4841C74.8565 34.5477 75.3902 52.6322 76.8742 70.6395C77.2834 75.5988 77.7578 80.6501 76.6548 85.5027L76.6563 85.5012Z" fill="#2D5D63"/>
<path d="M69.045 116.149C69.0168 117.276 69.0643 118.578 69.9463 119.278C70.3852 119.627 70.9574 119.754 71.5089 119.855C73.3738 120.195 75.2729 120.34 77.1675 120.291C78.229 120.263 79.3171 120.166 80.2689 119.696C81.2207 119.226 82.0153 118.31 82.0657 117.249C82.0924 116.684 81.9115 116.133 81.7336 115.596C80.767 112.684 78.7434 109.895 75.2195 110.768C72.7052 111.391 69.1132 113.435 69.0435 116.149H69.045Z" fill="#2D5D63"/>
<path d="M83.5741 113.17C83.5741 113.17 86.2959 94.6569 86.4813 92.2469C86.6666 89.8369 112.21 87.6628 112.21 87.6628C112.21 87.6628 115.425 87.1926 115.178 81.6089C114.93 76.0252 99.5301 78.0244 99.5301 78.0244C99.5301 78.0244 80.234 82.2555 77.3269 86.018C75.9586 86.156 75.3611 87.9253 74.8571 89.2051C73.0514 93.7833 73.8682 98.9132 73.6622 103.831C73.5584 106.324 73.1848 108.835 73.5658 111.3C73.9468 113.765 75.2707 116.271 77.5715 117.235C79.8723 118.199 83.0775 116.882 83.3814 114.405C83.4851 113.555 83.3072 113.986 83.5741 113.171V113.17Z" fill="#DEBF97"/>
<path d="M59.4724 7.86816H59.1744C58.5685 7.86816 58.0773 8.35951 58.0773 8.96563V11.3993C58.0773 12.0054 58.5685 12.4968 59.1744 12.4968H59.4724C60.0782 12.4968 60.5694 12.0054 60.5694 11.3993V8.96563C60.5694 8.35951 60.0782 7.86816 59.4724 7.86816Z" fill="#DEBF97"/>
<path d="M102.479 36.8083C103.169 37.0768 103.255 38.0704 103.857 38.502C104.688 39.0982 105.856 38.2899 106.854 38.5183C107.689 38.7081 108.172 39.5476 108.663 40.249C109.238 41.0721 110.7 42.0584 111.499 40.912C111.675 40.6598 111.729 40.341 111.73 40.0325C111.73 39.6929 111.672 39.3518 111.558 39.0314C111.497 38.8609 111.419 38.6948 111.351 38.5272C110.873 37.3556 111.133 36.6155 111.259 35.441C111.365 34.4518 111.273 33.3751 110.575 32.6054C108.87 30.7248 105.674 32.3918 103.258 31.6191C102.011 31.2202 100.978 30.1553 99.67 30.0945C98.4247 30.0367 97.3514 30.9058 96.4115 31.7244L94.3256 33.5426C93.7163 34.0736 93.0611 34.6935 93.0107 35.5003C92.7409 39.8026 100.964 36.221 102.481 36.8098L102.479 36.8083Z" fill="black"/>
<path d="M86.5221 65.0642C87.0232 65.2792 87.5599 65.4824 88.098 65.4038C88.8852 65.2896 89.4545 64.6178 89.9467 63.9919L97.0863 54.923C99.1085 52.3543 101.202 49.7234 104.036 48.098C106.871 46.4725 110.661 46.0706 113.305 47.9942C115.786 49.799 116.636 53.0721 117.124 56.1006C118.043 61.8133 118.276 67.6358 117.816 73.4049C117.582 76.3443 116.9 79.6871 114.334 81.1346C112.581 82.1223 110.418 81.9251 108.442 81.5498C105.658 81.0219 102.929 80.2017 100.315 79.1043C99.3783 78.7113 98.3998 78.2337 97.8765 77.3617C97.4169 76.5935 97.3903 75.6473 97.411 74.7515C97.4777 71.8818 97.8928 69.021 98.6459 66.2521C95.2644 67.2487 93.4261 71.2456 90.0327 72.1992C87.4413 72.9273 84.7506 71.6697 82.3519 70.4462C79.3721 68.9261 76.3923 67.4044 73.4125 65.8843C73.0182 65.6826 72.5853 65.4349 72.4726 65.0078C72.3629 64.597 72.5942 64.1803 72.8151 63.8169C74.8386 60.5008 75.1767 58.0167 78.8651 60.1078C81.5187 61.6116 83.7188 63.6612 86.5207 65.0627L86.5221 65.0642Z" fill="#2D5D63"/>
<path d="M101.956 45.7062C103.239 44.6755 104.425 43.5261 105.496 42.2773L103.76 45.6424C103.54 46.0725 103.295 46.5263 102.871 46.7591C102.447 46.992 101.798 46.8733 101.652 46.4121C101.506 45.942 101.938 45.5015 102.349 45.2301" fill="#C4A497"/>
<path d="M73.09 63.0247C72.3472 62.6569 71.8002 61.9198 71.6623 61.1026C71.5912 60.68 71.643 60.1995 71.9484 59.8984C72.3042 59.5469 72.8676 59.5499 73.3672 59.5766L75.4234 59.6863" fill="#E3C1B1"/>
<path d="M103.992 59.8666L107.095 57.3276C107.556 57.9045 107.364 58.8003 106.881 59.3594C106.398 59.9185 105.697 60.23 105.035 60.5577C104.374 60.8855 103.695 61.2785 103.331 61.9222C103.156 62.2306 103.064 62.5821 102.884 62.8891C102.431 63.6662 101.389 64.04 100.545 63.73C100.12 64.0088 99.7 64.2936 99.2627 64.5427C99.8349 62.6162 102.567 61.1169 103.993 59.8681L103.992 59.8666Z" fill="#1D3F42"/>
<path d="M79.9804 66.2672C81.9255 67.6346 84.0113 68.8033 86.1935 69.745C85.3723 69.963 84.4768 69.8933 83.6985 69.5507C83.1218 69.2971 82.6193 68.9026 82.1123 68.5274C80.6476 67.4403 78.8552 66.6558 77.4839 65.5049C78.3141 65.103 79.2689 65.7674 79.9804 66.2672Z" fill="#1D3F42"/>
<path d="M82.2742 98.5591C82.3216 97.3608 82.5203 96.1684 82.8672 95.019C81.9822 97.9585 82.8672 101.47 81.865 104.493C80.9666 103.109 82.2119 100.188 82.2757 98.5576L82.2742 98.5591Z" fill="#AF8F6D"/>
<path d="M103.662 84.651C102.264 85.8508 98.5788 86.7302 96.8042 86.6235C98.7018 84.6495 102.073 83.9421 104.679 83.9747C104.188 84.077 104.03 84.3351 103.662 84.651Z" fill="#AF8F6D"/>
<path d="M24.7407 61.176C24.9245 59.5476 24.4842 57.8153 23.5933 56.6689C24.4516 57.5558 25.2032 58.7037 25.5116 60.0889C25.8066 61.4162 25.5324 63.1336 24.5687 63.6645C24.3138 63.8054 24.0336 63.8499 23.7786 63.9923C23.1396 64.3482 22.7483 65.1431 22.0337 65.1995C22.4606 63.1425 24.5376 62.9823 24.7422 61.176H24.7407Z" fill="#3F9E90"/>
<path d="M12.9821 68.2811L14.1088 68.8239C14.3816 68.9559 14.6559 69.0879 14.9049 69.2614C15.0976 69.3964 15.2741 69.555 15.4846 69.6603C15.827 69.8324 16.2229 69.8487 16.5964 69.9332C17.2043 70.0697 17.7676 70.3989 18.1857 70.8631C17.2828 71.0529 16.3637 70.7044 15.5068 70.3633L13.2638 69.4675C12.8057 69.2851 11.679 68.904 11.5263 68.3493C11.2699 67.415 12.5063 68.0527 12.9821 68.2826V68.2811Z" fill="#3F9E90"/>
<path d="M21.2446 67.9728C21.1037 68.3643 21.1556 68.8063 21.0178 69.1993C20.9244 69.4662 20.7494 69.6932 20.5849 69.923C19.9311 70.8336 19.4078 71.8362 19.0327 72.8921C18.7184 73.7775 18.5079 74.7296 18.6725 75.6536C18.8667 75.8137 19.1824 75.6773 19.304 75.4578C19.4256 75.2383 19.4182 74.9728 19.4315 74.7207C19.4775 73.7983 19.8407 72.9262 20.1994 72.0749C20.4159 71.5588 20.6338 71.0427 20.917 70.5607C21.1912 70.0936 21.5248 69.6635 21.7931 69.1919C22.4691 68.001 22.8012 66.6662 23.5469 65.5139C22.8086 65.3552 22.8264 65.9143 22.5195 66.3533C22.1459 66.8902 21.4714 67.3514 21.2461 67.9743L21.2446 67.9728Z" fill="#3F9E90"/>
<path d="M9.46643 63.8972C9.41602 63.5338 9.5361 63.1512 9.78516 62.8813C9.88745 62.77 10.0105 62.6781 10.1039 62.558C10.2877 62.3236 10.3381 62.0167 10.4108 61.7304C10.7562 60.3794 11.7332 59.1484 11.6027 57.7588C11.1713 57.8893 10.9059 58.3283 10.774 58.7599C10.642 59.1914 10.599 59.6527 10.4063 60.0605C10.2225 60.4476 9.91414 60.7635 9.74069 61.155C9.59244 61.4887 9.55093 61.858 9.49756 62.2198C9.35672 63.1764 9.12101 64.1196 8.79486 65.0302" fill="#3F9E90"/>
<path d="M12.4167 49.8615C12.0579 50.0588 11.7244 50.3361 11.3182 50.385C11.0247 50.4206 10.7118 50.3346 10.4405 50.4473C10.2315 50.5348 10.0862 50.7261 9.95429 50.91C8.93731 52.3367 8.11897 53.9043 7.53043 55.555C7.89808 55.1812 7.96924 54.6103 8.22868 54.155C8.32356 53.9889 8.44216 53.8391 8.56224 53.6893L9.50955 52.4984C9.80901 52.1217 10.1263 51.7316 10.568 51.5388C10.995 51.352 11.4902 51.3742 11.9156 51.1829C12.2966 51.0124 12.5412 50.6772 12.8867 50.4651C13.0898 50.3405 13.9199 50.1329 14.0045 49.9846C14.4937 49.1185 12.6895 49.7102 12.4182 49.86L12.4167 49.8615Z" fill="#3F9E90"/>
</svg>
