<svg width="19" height="15" viewBox="0 0 19 15" fill="none" xmlns="http://www.w3.org/2000/svg">
<circle r="2.9714" transform="matrix(-1 0 0 1 9.91141 3.9714)" stroke="#D5B582"/>
<path d="M4.71289 11.3526C4.71289 10.7134 5.11466 10.1433 5.71655 9.92836V9.92836C8.43014 8.95922 11.3955 8.95922 14.1091 9.92836V9.92836C14.711 10.1433 15.1128 10.7134 15.1128 11.3526V12.3298C15.1128 13.2119 14.3315 13.8895 13.4583 13.7647L13.1672 13.7231C11.0086 13.4147 8.81711 13.4147 6.65851 13.7231L6.36737 13.7647C5.49415 13.8895 4.71289 13.2119 4.71289 12.3298V11.3526Z" stroke="#2D5D63"/>
<path opacity="0.3" d="M14.3733 7.02481C15.6627 7.02481 16.708 5.97955 16.708 4.69014C16.708 3.40074 15.6627 2.35547 14.3733 2.35547" stroke="#D5B582" stroke-linecap="round"/>
<path d="M16.9284 12.3518L17.1571 12.3844C17.8432 12.4825 18.4571 11.9501 18.4571 11.257V10.4892C18.4571 9.98701 18.1414 9.53906 17.6685 9.37016C17.1967 9.20169 16.7153 9.07049 16.2285 8.97656" stroke="#2D5D63" stroke-linecap="round"/>
<path opacity="0.3" d="M5.0837 7.02481C3.79429 7.02481 2.74902 5.97955 2.74902 4.69014C2.74902 3.40074 3.79429 2.35547 5.0837 2.35547" stroke="#D5B582" stroke-linecap="round"/>
<path d="M2.52867 12.3518L2.29992 12.3844C1.61381 12.4825 0.999965 11.9501 0.999965 11.257V10.4892C0.999965 9.98701 1.31564 9.53906 1.78855 9.37016C2.26028 9.20169 2.7417 9.07049 3.22852 8.97656" stroke="#2D5D63" stroke-linecap="round"/>
</svg>
