<svg width="59" height="52" viewBox="0 0 59 52" fill="none" xmlns="http://www.w3.org/2000/svg">
<path d="M46.7445 30.0253C47.0034 30.3639 47.2949 30.692 47.6715 30.8949C48.3316 31.2508 49.6554 31.2787 50.3418 30.9575C51.2337 30.5397 50.9897 30.4771 51.1802 29.43C51.512 27.6065 52.4355 25.9684 52.9033 24.1841C53.0798 23.5113 53.186 22.7941 52.9964 22.1239C52.87 21.6765 52.618 21.2735 52.3503 20.8923C51.4321 19.5815 50.2593 18.3438 48.9153 17.4551C47.3598 16.4263 46.0299 17.2384 44.6982 18.409C44.132 18.9069 43.6115 19.4692 43.2516 20.1298C42.99 20.6085 42.8179 21.129 42.6467 21.646C42.3913 22.4198 41.8225 23.3955 42.1762 24.0701C42.4598 24.6097 43.615 25.2364 44.046 25.7952C45.0424 27.0869 45.584 28.8773 46.7436 30.0271L46.7445 30.0253Z" fill="#E3C1B1"/>
<path d="M47.9645 22.6253C48.3727 22.3615 49.017 22.2083 49.2681 22.6218C49.5042 23.0117 49.1057 23.5061 48.6711 23.6532C48.2366 23.8003 47.7459 23.7724 47.3404 23.9848C47.4545 25.2852 47.7398 26.831 48.9529 27.3376C49.8948 27.731 50.9605 27.2897 51.884 26.8536C53.3921 26.1425 54.9722 25.3705 55.9036 23.9961C56.835 22.6218 56.7955 20.4562 55.3795 19.5789C54.6474 19.1254 53.6862 19.0854 53.0305 18.5274C52.3484 17.9486 52.1737 16.9607 51.5706 16.3018C50.6744 15.3218 48.8932 15.0963 48.5834 13.809C48.457 13.285 48.6167 12.6601 48.263 12.251C47.8311 11.7505 46.9278 12.0273 46.5995 12.6C46.2703 13.1728 46.3405 13.8787 46.4195 14.5332C46.531 15.4454 46.6416 16.3575 46.7531 17.2697C46.8066 17.7067 46.8672 18.1636 47.1262 18.5205C47.3974 18.8947 47.8644 19.1254 48.0426 19.551C48.3384 20.256 45.3222 24.3321 47.9654 22.6235L47.9645 22.6253Z" fill="black"/>
<path d="M25.0649 34.4634C23.7113 33.6801 22.6895 32.1752 22.8791 30.632C23.6077 30.5815 24.1941 31.1681 24.7832 31.5955C25.5513 32.1525 26.4835 32.4868 27.4333 32.5451C28.1093 32.5869 28.794 32.4929 29.462 32.5999C31.2598 32.888 31.5978 34.9509 29.8878 35.6376C28.772 36.085 25.9832 34.9952 25.0641 34.4634H25.0649Z" fill="#E3C1B1"/>
<path d="M38.1392 34.6231C38.7282 34.8024 39.3673 34.9817 39.9484 34.7781C40.4514 34.6022 40.8131 34.1714 41.1484 33.7606C41.7629 33.0068 42.3774 32.253 42.9928 31.4984C43.6002 30.7525 44.2533 29.9743 45.161 29.6445C47.0185 28.9682 49.4729 30.3181 50.9029 28.9629C51.1575 28.7218 51.3506 28.4094 51.6561 28.2353C51.9238 28.083 52.246 28.0577 52.5541 28.0786C54.4932 28.2118 55.8916 29.9743 56.7282 31.7134C59.0044 36.444 59.022 41.8918 58.9956 47.1324C58.9913 48.0925 58.9491 49.1509 58.2899 49.855C57.8352 50.3407 57.1662 50.5618 56.5237 50.7437C53.2055 51.6855 49.7363 52.1041 46.2864 51.9797C45.5516 51.9536 44.7721 51.8865 44.1831 51.4513C43.2649 50.7742 43.135 49.4834 43.0946 48.3492C42.9831 45.2245 42.9497 42.0972 42.9945 38.9716C41.7102 40.1789 40.0169 41.4827 38.3525 40.8856C37.8311 40.6985 37.3931 40.3407 36.9524 40.0056C34.9834 38.5086 32.7467 37.3596 30.3783 36.6276C29.4294 36.3343 30.9594 32.9624 32.1594 32.8797C33.9195 32.7579 36.4573 34.1113 38.1392 34.6231Z" fill="#2D5D63"/>
<path d="M30.5814 29.0254C28.4755 28.3291 26.3704 27.6336 24.2645 26.9373C24.0073 26.852 23.6851 26.7841 23.485 26.9982C23.3235 27.1714 23.3296 27.4413 23.3481 27.6754C23.4288 28.7094 23.1567 30.3318 24.189 30.774C26.6224 31.8437 29.1101 32.789 31.6409 33.6063C31.7788 33.6507 31.9245 33.695 32.0693 33.6611C32.2949 33.608 32.4608 33.3695 32.51 33.1284C32.5592 32.8873 32.5161 32.6427 32.4661 32.4086C32.2818 31.5521 32.0052 30.7235 31.6418 29.9454C31.5426 29.7339 31.4346 29.5206 31.2679 29.3666C31.0765 29.1899 30.8254 29.1055 30.5805 29.0245L30.5814 29.0254ZM30.5753 29.4893C31.3337 30.0141 31.6374 31.0212 31.8946 31.9577C32.0149 32.3964 32.1316 32.8856 31.9359 33.3147C29.4516 32.46 26.9849 31.5547 24.5384 30.5991C24.0731 30.4171 23.9757 30.2875 24.0108 29.8122C24.0486 29.2935 24.0749 28.806 23.9941 28.2934C23.9485 28.0027 23.9046 27.6406 24.1328 27.4517C24.3312 27.2872 24.6051 27.3725 24.8272 27.463C26.3046 28.0636 27.8162 28.5789 29.3542 29.0054C29.7782 29.1229 30.2118 29.2378 30.5735 29.4884L30.5753 29.4893Z" fill="#4DB6A9"/>
<path d="M23.6812 29.2859C23.6908 29.1728 23.7101 29.0457 23.6461 28.9604C23.6171 28.9221 23.5758 28.8986 23.5425 28.8646C23.4731 28.7924 23.4486 28.674 23.4837 28.5713C23.5179 28.4686 23.6092 28.3868 23.7093 28.3694C23.7295 28.3659 23.7514 28.3642 23.769 28.352C23.812 28.3224 23.8032 28.2554 23.7909 28.2057C23.74 27.996 23.7189 27.7749 23.7303 27.5547C23.7725 27.5625 23.7953 27.6113 23.7988 27.6565C23.8023 27.7018 23.7927 27.7488 23.7971 27.794C23.8085 27.9298 23.9366 28.0247 23.9375 28.1622C23.9375 28.2623 23.869 28.3668 23.9041 28.4573C23.9164 28.4886 23.9401 28.513 23.9577 28.5408C24.013 28.6261 24.0121 28.741 24.0095 28.8481C24.0095 28.8803 24.0069 28.9142 23.9911 28.943C23.9656 28.9865 23.9147 29.0022 23.8787 29.0361C23.8251 29.0866 23.8137 29.171 23.8216 29.2433C23.8313 29.3277 23.9059 29.7664 23.7681 29.7777C23.6443 29.7881 23.6759 29.3573 23.6821 29.2868L23.6812 29.2859Z" fill="#3F9E90"/>
<path d="M23.5698 28.619L23.5557 28.6556C23.5357 28.7078 23.5621 28.7661 23.6147 28.7859L23.8067 28.8583C23.8593 28.8782 23.9181 28.852 23.9381 28.7999L23.9521 28.7633C23.9721 28.7111 23.9457 28.6528 23.8932 28.633L23.7012 28.5606C23.6486 28.5407 23.5898 28.5669 23.5698 28.619Z" fill="black"/>
<path d="M26.0632 27.7571C26.1387 27.7702 26.2159 27.7763 26.2905 27.7937C26.4494 27.8311 26.5907 27.9164 26.7347 27.9913C27.1227 28.1932 27.5458 28.3255 27.9821 28.3821C27.9154 28.255 27.7539 28.2385 27.6152 28.2211C27.3422 28.1854 27.0788 28.0896 26.8479 27.9408C26.7698 27.8912 26.6952 27.8355 26.6109 27.7989C26.4564 27.7319 26.2809 27.7336 26.1141 27.7023C25.8999 27.6631 25.7041 27.5691 25.5057 27.4856C25.3548 27.422 25.1019 27.2732 24.9316 27.3385C24.972 27.4673 25.2819 27.483 25.3916 27.5282C25.6102 27.6179 25.827 27.7171 26.0623 27.7571H26.0632Z" fill="#3F9E90"/>
<path d="M27.1285 31.8376L26.4377 31.5591C26.2516 31.4842 26.0663 31.4094 25.8732 31.3554C25.6309 31.2875 25.3553 31.2388 25.2148 31.0212C25.3325 30.9959 25.4571 31.0586 25.5089 31.1692C26.3007 31.3981 27.0723 31.6931 27.815 32.05C27.8589 32.0709 27.9098 32.1118 27.8905 32.1614C27.8641 32.2284 27.2224 31.875 27.1285 31.8376Z" fill="#3F9E90"/>
<path d="M0.257191 6.49593C0.278259 6.76662 0.30635 7.04689 0.442414 7.28363C0.784768 7.8816 1.61432 7.94165 2.30693 7.9286L7.67751 7.83111C7.92067 7.82676 8.17436 7.81893 8.38592 7.70055C8.71511 7.51603 8.84766 7.11913 8.94159 6.7553C9.45073 4.7708 9.59996 2.69491 9.37787 0.659058C9.36821 0.567667 9.35592 0.471923 9.30677 0.393588C9.21986 0.255195 9.0443 0.205583 8.88277 0.172508C7.36061 -0.139964 5.7849 0.0341148 4.2408 0.209064C2.73795 0.381402 0.903276 0.102006 0.272114 1.47375C-0.275653 2.66445 0.15624 5.21732 0.256313 6.49593H0.257191Z" fill="#4DB6A9"/>
<path d="M14.5131 6.59215C14.5333 6.87503 14.5631 7.17705 14.7448 7.39639C14.9151 7.6018 15.1855 7.6932 15.4427 7.76718C17.9305 8.4809 20.6324 8.44174 23.0974 7.65577C23.5995 5.80792 23.7128 3.8565 23.4266 1.96339C23.3353 1.36194 23.1685 0.709148 22.6673 0.359249C22.1546 0.00151707 21.4655 0.0763711 20.8458 0.166022C19.4289 0.371435 15.9448 0.218245 14.8554 1.17133C13.6984 2.1836 14.5096 5.21518 14.5122 6.59215H14.5131Z" fill="#4DB6A9"/>
<path d="M28.0453 5.58714C28.1568 6.02494 28.2736 6.47494 28.5422 6.83963C28.9188 7.35056 29.5412 7.62299 30.1574 7.78749C32.093 8.30364 34.5079 7.73788 35.3787 5.94748C35.9809 4.70978 35.7106 3.24925 35.4279 1.90449C35.3752 1.65382 35.3173 1.39183 35.1496 1.19599C34.9468 0.960115 34.6247 0.867854 34.3201 0.798222C32.8558 0.466602 29.463 -0.0739136 28.1612 0.958375C26.8076 2.03244 27.681 4.15534 28.0453 5.58626V5.58714Z" fill="#4DB6A9"/>
<path d="M1.02634 17.7184C1.17118 18.4878 1.43892 19.4 2.27111 19.7029C2.9883 19.964 3.73884 19.6211 4.48763 19.5715C5.50592 19.5036 6.63306 19.9806 7.53196 19.5985C8.22545 19.3034 8.52479 18.5923 8.69245 17.9221C9.18667 15.9472 9.01286 13.8051 8.19911 11.8267C7.59692 10.3645 2.70476 10.5646 1.72158 11.2018C-0.211403 12.4534 0.662918 15.7748 1.0281 17.7184H1.02634Z" fill="#4DB6A9"/>
<path d="M15.4812 18.1916C15.8534 18.8044 16.5767 19.1404 17.2939 19.2231C18.0102 19.3057 18.7327 19.1717 19.4411 19.0377C20.2698 18.881 21.0984 18.7243 21.928 18.5676C22.1 18.5354 22.2826 18.4971 22.409 18.3762C22.589 18.203 22.5934 17.9218 22.5662 17.6746C22.4687 16.7947 22.1299 15.946 22.122 15.0608C22.115 14.1678 22.4459 13.3061 22.5346 12.4174C22.6232 11.5288 22.3774 10.493 21.5777 10.0822C20.8948 9.7314 20.074 9.95509 19.3129 10.0595C18.6449 10.1509 17.9576 10.1457 17.3159 10.3494C14.5358 11.2311 14.1855 16.0539 15.4829 18.1916H15.4812Z" fill="#4DB6A9"/>
<path d="M27.252 17.6091C27.281 17.8032 27.3205 18.0086 27.4557 18.1523C27.5856 18.2889 27.7796 18.3429 27.9639 18.3873C29.4115 18.7328 30.9126 18.8581 32.3979 18.7589C32.6639 18.7406 32.943 18.711 33.1598 18.557C33.3863 18.396 33.5048 18.1279 33.6066 17.8702C34.3423 16.0067 34.718 14.0048 34.7083 12.0047C34.7083 11.8532 34.7004 11.6896 34.6056 11.5712C34.5003 11.4389 34.3186 11.4006 34.1518 11.3701L31.3673 10.8662C30.787 10.7609 30.1901 10.6555 29.6099 10.7652C26.7394 11.3066 26.9167 15.367 27.2511 17.6109L27.252 17.6091Z" fill="#4DB6A9"/>
</svg>
