<svg width="29" height="22" viewBox="0 0 29 22" fill="none" xmlns="http://www.w3.org/2000/svg">
<path d="M0.75 16.5636C0.75 15.6231 1.33342 14.7812 2.21405 14.451V14.451C6.42807 12.8707 11.0719 12.8707 15.2859 14.451V14.451C16.1666 14.7812 16.75 15.6231 16.75 16.5636V18.6776C16.75 19.9004 15.6625 20.8369 14.4533 20.6555L12.7552 20.4008C10.0999 20.0025 7.40008 20.0025 4.74481 20.4008L3.04668 20.6555C1.83747 20.8369 0.75 19.9004 0.75 18.6776V16.5636Z" stroke="#2D5D63" stroke-width="1.5"/>
<circle r="4.5" transform="matrix(-1 0 0 1 9.25 5.5)" stroke="#2D5D63" stroke-width="1.5"/>
<path d="M18.5888 11.5058L18.5888 11.5058C17.9263 12.0349 16.9444 11.5643 16.9444 10.7164V3.99256C16.9444 2.28434 18.3309 0.9 20.0412 0.9H20.0415H25.2533C26.9635 0.9 28.35 2.28434 28.35 3.99256V7.11511C28.35 8.82334 26.9635 10.2077 25.2533 10.2077H20.407C20.2819 10.2077 20.1603 10.2503 20.0623 10.3285L18.5888 11.5058ZM17.9757 10.7401L17.9758 10.7401L19.4493 9.56278L19.504 9.63128L19.4493 9.56278C19.721 9.3457 20.0587 9.22739 20.407 9.22739H25.2533C26.4216 9.22739 27.3683 8.28179 27.3683 7.11546V3.99256C27.3683 2.82624 26.4216 1.88064 25.2533 1.88064H20.0415C18.8732 1.88064 17.9265 2.82624 17.9265 3.99256V7.11511V7.11546V10.7168C17.9265 10.7419 17.9556 10.7562 17.9757 10.7401Z" fill="#D5B582" stroke="#D5B582" stroke-width="0.2"/>
<path d="M19.9634 6.22149C19.6082 6.16392 19.367 5.8297 19.4246 5.475C19.4823 5.1203 19.817 4.87943 20.1722 4.93701C20.5274 4.99459 20.7686 5.3288 20.7109 5.6835C20.6533 6.0382 20.3186 6.27907 19.9634 6.22149Z" fill="#2D5D63"/>
<path d="M22.6733 6.23074C22.3134 6.23074 22.0217 5.93944 22.0217 5.58009C22.0217 5.22075 22.3134 4.92944 22.6733 4.92944C23.0331 4.92944 23.3248 5.22075 23.3248 5.58009C23.3248 5.93944 23.0331 6.23074 22.6733 6.23074Z" fill="#2D5D63"/>
<path d="M24.72 6.23074C24.3602 6.23074 24.0685 5.93944 24.0685 5.58009C24.0685 5.22075 24.3602 4.92944 24.72 4.92944C25.0799 4.92944 25.3716 5.22075 25.3716 5.58009C25.3716 5.93944 25.0799 6.23074 24.72 6.23074Z" fill="#2D5D63"/>
</svg>
