<svg width="13" height="13" viewBox="0 0 13 13" fill="none" xmlns="http://www.w3.org/2000/svg">
<path d="M1.7847 9.23286L2.25613 9.39945L2.33258 9.1831L2.2184 8.98406L1.7847 9.23286ZM1.07838 11.2317L0.606946 11.0652L0.606946 11.0652L1.07838 11.2317ZM1.7164 11.8698L1.88298 12.3412H1.88298L1.7164 11.8698ZM3.66821 11.1801L3.93136 10.7549L3.72759 10.6288L3.50163 10.7086L3.66821 11.1801ZM1.55877 6.5C1.55877 3.73858 3.79734 1.5 6.55877 1.5V0.5C3.24506 0.5 0.558769 3.18629 0.558769 6.5H1.55877ZM2.2184 8.98406C1.79883 8.25268 1.55877 7.40513 1.55877 6.5H0.558769C0.558769 7.58432 0.846851 8.60286 1.351 9.48167L2.2184 8.98406ZM1.54981 11.3983L2.25613 9.39945L1.31327 9.06628L0.606946 11.0652L1.54981 11.3983ZM1.54981 11.3983L1.54981 11.3983L0.606946 11.0652C0.326871 11.8578 1.09037 12.6213 1.88298 12.3412L1.54981 11.3983ZM3.50163 10.7086L1.54981 11.3983L1.88298 12.3412L3.8348 11.6515L3.50163 10.7086ZM6.55877 11.5C5.59402 11.5 4.6945 11.2273 3.93136 10.7549L3.40507 11.6052C4.32175 12.1726 5.40279 12.5 6.55877 12.5V11.5ZM11.5588 6.5C11.5588 9.26142 9.32019 11.5 6.55877 11.5V12.5C9.87248 12.5 12.5588 9.81371 12.5588 6.5H11.5588ZM6.55877 1.5C9.32019 1.5 11.5588 3.73858 11.5588 6.5H12.5588C12.5588 3.18629 9.87248 0.5 6.55877 0.5V1.5Z" fill="#2D5D63"/>
<circle cx="3.83606" cy="6.52734" r="0.6875" fill="#D5B582"/>
<circle cx="6.58606" cy="6.52734" r="0.6875" fill="#D5B582"/>
<circle cx="9.33606" cy="6.52734" r="0.6875" fill="#D5B582"/>
</svg>
