<svg width="375" height="812" viewBox="0 0 375 812" fill="none" xmlns="http://www.w3.org/2000/svg">
<g clip-path="url(#clip0_849_6720)">
<rect width="375" height="812" fill="white"/>
<path d="M381 -8H-7V820H381V-8Z" fill="#2D5D63"/>
<rect x="211.181" y="337.994" width="143.762" height="36.3238" fill="#2D5D63"/>
<path d="M101.317 472.141L100.438 473.02L101.317 473.914L102.204 473.02L101.317 472.141ZM99.0908 472.141L98.2119 473.02L99.0908 473.914L99.9771 473.02L99.0908 472.141ZM103.566 482.08H103.859V480.967H103.588C103.158 480.967 102.829 480.84 102.599 480.586C102.375 480.332 102.23 479.976 102.167 479.517L101.544 475.137L100.57 475.327L100.614 475.649C100.014 475.84 99.4766 476.047 99.0029 476.272C98.5342 476.492 98.1338 476.738 97.8018 477.012C97.4697 477.28 97.2158 477.576 97.04 477.898C96.8691 478.22 96.7837 478.574 96.7837 478.96C96.7837 479.6 97.0107 480.1 97.4648 480.461C97.9189 480.823 98.4829 481.003 99.1567 481.003C99.5864 481.003 99.9722 480.916 100.314 480.74C100.656 480.564 100.968 480.317 101.251 480C101.325 480.41 101.452 480.771 101.632 481.084C101.818 481.396 102.067 481.641 102.379 481.816C102.697 481.992 103.092 482.08 103.566 482.08ZM100.995 478.433C100.995 478.75 100.907 479.023 100.731 479.253C100.561 479.482 100.333 479.661 100.05 479.788C99.772 479.91 99.4766 479.971 99.1641 479.971C98.7686 479.971 98.4463 479.88 98.1973 479.7C97.9531 479.514 97.8311 479.241 97.8311 478.879C97.8311 478.64 97.8994 478.42 98.0361 478.22C98.1777 478.015 98.3755 477.825 98.6294 477.649C98.8882 477.468 99.1958 477.295 99.5522 477.129C99.9136 476.958 100.316 476.794 100.761 476.638L100.966 477.986C100.976 478.064 100.983 478.14 100.988 478.213C100.993 478.286 100.995 478.359 100.995 478.433Z" fill="white"/>
<path d="M103.559 480.967V482.08H104.145V480.967H103.559ZM106.1 483.384L105.221 484.263L106.1 485.156L106.986 484.263L106.1 483.384ZM103.874 483.384L102.995 484.263L103.874 485.156L104.76 484.263L103.874 483.384ZM106.444 477.81C106.459 478.015 106.471 478.213 106.481 478.403C106.496 478.589 106.503 478.792 106.503 479.011C106.503 479.641 106.352 480.125 106.049 480.461C105.751 480.798 105.287 480.967 104.657 480.967H103.976V482.08H104.657C105.165 482.08 105.631 481.978 106.056 481.772C106.486 481.567 106.818 481.26 107.052 480.85C107.155 481.064 107.294 481.267 107.47 481.458C107.646 481.643 107.865 481.794 108.129 481.912C108.397 482.024 108.712 482.08 109.074 482.08H109.301V480.967H109.081C108.788 480.967 108.529 480.896 108.305 480.754C108.085 480.613 107.909 480.417 107.777 480.168C107.65 479.915 107.577 479.622 107.558 479.29L107.448 477.693L106.444 477.81Z" fill="white"/>
<path d="M118.039 482.08C118.527 482.08 118.905 481.968 119.174 481.743C119.442 481.519 119.665 481.216 119.84 480.835C119.962 481.235 120.189 481.543 120.521 481.758C120.858 481.973 121.278 482.08 121.781 482.08H122.038V480.967H121.774C121.476 480.967 121.217 480.896 120.998 480.754C120.783 480.608 120.612 480.41 120.485 480.161C120.363 479.907 120.292 479.619 120.272 479.297L120.163 477.766L119.159 477.883C119.184 478.181 119.201 478.416 119.21 478.586C119.22 478.757 119.225 478.926 119.225 479.092C119.225 479.448 119.181 479.768 119.093 480.051C119.01 480.334 118.881 480.559 118.705 480.725C118.529 480.886 118.302 480.967 118.024 480.967C117.726 480.967 117.479 480.886 117.284 480.725C117.094 480.564 116.947 480.356 116.845 480.103C116.747 479.844 116.688 479.575 116.669 479.297L116.559 477.92L115.556 478.044C115.57 478.235 115.583 478.391 115.592 478.513C115.602 478.635 115.609 478.74 115.614 478.828C115.619 478.911 115.622 478.994 115.622 479.077C115.622 479.629 115.5 480.083 115.255 480.439C115.016 480.791 114.621 480.967 114.069 480.967C113.756 480.967 113.495 480.889 113.285 480.732C113.075 480.576 112.912 480.371 112.794 480.117C112.682 479.863 112.616 479.59 112.597 479.297L112.487 477.92L111.483 478.044C111.503 478.235 111.515 478.391 111.52 478.513C111.53 478.635 111.537 478.74 111.542 478.828C111.547 478.911 111.549 478.994 111.549 479.077C111.549 479.722 111.381 480.198 111.044 480.505C110.707 480.813 110.214 480.967 109.564 480.967H109.037V482.08H109.55C110.243 482.08 110.775 481.975 111.146 481.765C111.522 481.55 111.82 481.243 112.04 480.842C112.206 481.228 112.44 481.531 112.743 481.75C113.046 481.97 113.483 482.08 114.054 482.08C114.499 482.08 114.901 481.975 115.263 481.765C115.629 481.555 115.932 481.252 116.171 480.857C116.322 481.223 116.547 481.519 116.845 481.743C117.143 481.968 117.541 482.08 118.039 482.08Z" fill="white"/>
<path d="M125.736 472.991L124.813 473.914L125.736 474.836L126.659 473.914L125.736 472.991ZM125.861 477.239C126.085 477.239 126.312 477.319 126.542 477.48C126.771 477.637 126.964 477.832 127.121 478.066C127.282 478.296 127.362 478.521 127.362 478.74C127.362 478.999 127.289 479.258 127.143 479.517C126.996 479.771 126.808 479.998 126.579 480.198C126.354 480.398 126.117 480.554 125.868 480.667C125.663 480.554 125.448 480.398 125.224 480.198C124.999 479.993 124.806 479.766 124.645 479.517C124.489 479.263 124.411 479.009 124.411 478.755C124.411 478.525 124.486 478.293 124.638 478.059C124.789 477.825 124.977 477.629 125.202 477.473C125.426 477.317 125.646 477.239 125.861 477.239ZM128.388 478.74C128.388 478.442 128.317 478.142 128.175 477.839C128.034 477.537 127.843 477.258 127.604 477.004C127.365 476.75 127.094 476.545 126.791 476.389C126.493 476.233 126.183 476.155 125.861 476.155C125.553 476.155 125.25 476.233 124.953 476.389C124.66 476.545 124.394 476.75 124.154 477.004C123.92 477.258 123.732 477.537 123.59 477.839C123.449 478.137 123.378 478.433 123.378 478.726C123.378 479.014 123.432 479.287 123.539 479.546C123.646 479.8 123.788 480.042 123.964 480.271C124.145 480.496 124.337 480.713 124.542 480.923C124.328 480.933 124.113 480.942 123.898 480.952C123.688 480.957 123.488 480.962 123.297 480.967C123.112 480.967 122.943 480.967 122.792 480.967H121.781V482.08H122.792C123.021 482.08 123.31 482.068 123.656 482.043C124.003 482.014 124.369 481.965 124.755 481.897C125.141 481.829 125.507 481.731 125.854 481.604C126.2 481.726 126.562 481.824 126.938 481.897C127.318 481.965 127.675 482.014 128.007 482.043C128.344 482.068 128.62 482.08 128.834 482.08H129.516V480.967H128.812C128.686 480.967 128.532 480.967 128.351 480.967C128.175 480.962 127.987 480.957 127.787 480.952C127.587 480.947 127.392 480.94 127.201 480.93C127.411 480.72 127.606 480.503 127.787 480.278C127.968 480.049 128.112 479.81 128.219 479.561C128.332 479.307 128.388 479.033 128.388 478.74Z" fill="white"/>
<path d="M131.72 477.81C131.735 478.015 131.747 478.213 131.757 478.403C131.771 478.589 131.779 478.792 131.779 479.011C131.779 479.641 131.627 480.125 131.325 480.461C131.027 480.798 130.563 480.967 129.933 480.967H129.252V482.08H129.933C130.441 482.08 130.907 481.978 131.332 481.772C131.762 481.567 132.094 481.26 132.328 480.85C132.431 481.064 132.57 481.267 132.746 481.458C132.921 481.643 133.141 481.794 133.405 481.912C133.673 482.024 133.988 482.08 134.35 482.08H134.577V480.967H134.357C134.064 480.967 133.805 480.896 133.581 480.754C133.361 480.613 133.185 480.417 133.053 480.168C132.926 479.915 132.853 479.622 132.833 479.29L132.724 477.693L131.72 477.81ZM131.742 474.324L130.819 475.247L131.742 476.169L132.665 475.247L131.742 474.324Z" fill="white"/>
<path d="M134.306 480.967V482.08H134.877C135.805 482.08 136.479 481.831 136.898 481.333C137.323 480.835 137.536 480.093 137.536 479.106V472.031H136.503V479.114C136.503 479.656 136.388 480.1 136.159 480.447C135.934 480.793 135.509 480.967 134.884 480.967H134.306Z" fill="white"/>
<path d="M140.897 472.031H139.872V482.073H140.897V472.031Z" fill="white"/>
<path d="M152.301 480.967C151.618 480.967 151.005 480.928 150.463 480.85C149.921 480.771 149.462 480.64 149.086 480.454C148.715 480.264 148.429 480.012 148.229 479.7C148.029 479.387 147.929 478.994 147.929 478.521C147.929 478.315 147.953 478.098 148.002 477.869C148.051 477.639 148.109 477.419 148.178 477.209L147.24 476.858C147.133 477.136 147.045 477.427 146.977 477.729C146.913 478.027 146.881 478.33 146.881 478.638C146.881 479.258 147.001 479.788 147.24 480.227C147.479 480.662 147.829 481.016 148.288 481.289C148.751 481.562 149.32 481.763 149.994 481.89C150.668 482.017 151.437 482.08 152.301 482.08H153.51C154.218 482.08 154.818 482.043 155.312 481.97C155.81 481.897 156.232 481.768 156.579 481.582C156.925 481.392 157.228 481.121 157.487 480.769C157.614 481.189 157.836 481.514 158.153 481.743C158.471 481.968 158.939 482.08 159.56 482.08H159.86V480.967H159.552C159.108 480.967 158.781 480.874 158.571 480.688C158.361 480.498 158.224 480.222 158.161 479.861C158.097 479.5 158.065 479.065 158.065 478.557V472.031H157.04V478.579C157.04 479.019 156.999 479.392 156.916 479.7C156.833 480.002 156.669 480.247 156.425 480.432C156.186 480.618 155.829 480.754 155.355 480.842C154.882 480.925 154.25 480.967 153.458 480.967H152.301ZM151.276 477.795V478.491C151.452 478.521 151.63 478.542 151.811 478.557C151.996 478.572 152.179 478.579 152.36 478.579C152.677 478.579 152.975 478.545 153.253 478.477C153.532 478.408 153.756 478.291 153.927 478.125C154.098 477.954 154.184 477.712 154.184 477.4C154.184 477.273 154.164 477.163 154.125 477.07C154.086 476.973 154.032 476.887 153.964 476.814C153.842 476.677 153.681 476.572 153.48 476.499C153.285 476.426 153.09 476.37 152.895 476.331C152.699 476.287 152.533 476.24 152.396 476.191C152.265 476.143 152.199 476.069 152.199 475.972C152.199 475.854 152.26 475.745 152.382 475.642C152.509 475.54 152.667 475.449 152.858 475.371C153.048 475.293 153.241 475.232 153.437 475.188C153.637 475.144 153.812 475.12 153.964 475.115L153.92 474.36C153.71 474.365 153.468 474.404 153.195 474.478C152.926 474.546 152.665 474.648 152.411 474.785C152.157 474.917 151.947 475.085 151.781 475.291C151.615 475.496 151.532 475.74 151.532 476.023C151.532 476.257 151.598 476.44 151.73 476.572C151.867 476.704 152.035 476.804 152.235 476.873C152.436 476.941 152.633 476.997 152.829 477.041C153.029 477.085 153.197 477.134 153.334 477.188C153.471 477.241 153.539 477.322 153.539 477.429C153.539 477.61 153.419 477.732 153.18 477.795C152.946 477.859 152.682 477.891 152.389 477.891C152.184 477.891 151.981 477.881 151.781 477.861C151.581 477.842 151.413 477.82 151.276 477.795Z" fill="white"/>
<path d="M159.574 480.967V482.08H160.431V480.967H159.574ZM163.061 474.331L162.182 475.21L163.061 476.104L163.947 475.21L163.061 474.331ZM160.834 474.331L159.955 475.21L160.834 476.104L161.72 475.21L160.834 474.331ZM162.746 477.81C162.76 478.015 162.772 478.213 162.782 478.403C162.797 478.589 162.804 478.792 162.804 479.011C162.804 479.641 162.653 480.125 162.35 480.461C162.052 480.798 161.588 480.967 160.958 480.967H160.277V482.08H160.958C161.466 482.08 161.933 481.978 162.357 481.772C162.787 481.567 163.119 481.26 163.354 480.85C163.456 481.064 163.595 481.267 163.771 481.458C163.947 481.643 164.167 481.794 164.43 481.912C164.699 482.024 165.014 482.08 165.375 482.08H165.602V480.967H165.382C165.089 480.967 164.831 480.896 164.606 480.754C164.386 480.613 164.21 480.417 164.079 480.168C163.952 479.915 163.878 479.622 163.859 479.29L163.749 477.693L162.746 477.81Z" fill="white"/>
<path d="M175.973 480.967H175.563C175.089 480.967 174.694 480.928 174.376 480.85C174.059 480.771 173.817 480.637 173.651 480.447C173.485 480.256 173.388 479.998 173.358 479.67C173.666 479.519 173.942 479.404 174.186 479.326C174.435 479.243 174.674 479.185 174.904 479.15V478.081C174.699 478.062 174.479 478.025 174.245 477.971C174.01 477.917 173.759 477.844 173.49 477.751C173.222 477.654 172.926 477.537 172.604 477.4C172.287 477.258 171.935 477.097 171.549 476.917C171.12 476.711 170.717 476.543 170.341 476.411C169.965 476.274 169.608 476.206 169.271 476.206C168.734 476.206 168.241 476.35 167.792 476.638C167.343 476.926 166.959 477.312 166.642 477.795L166.547 477.949L167.477 478.403L167.638 478.198C167.833 477.959 168.073 477.749 168.356 477.568C168.639 477.388 168.942 477.297 169.264 477.297C169.435 477.297 169.64 477.339 169.879 477.422C170.124 477.5 170.399 477.603 170.707 477.729C171.015 477.856 171.359 477.993 171.74 478.14C171.95 478.223 172.128 478.296 172.274 478.359C172.421 478.418 172.555 478.474 172.677 478.528C172.804 478.577 172.938 478.625 173.08 478.674C172.348 479.055 171.635 479.421 170.941 479.773C170.253 480.12 169.552 480.405 168.839 480.63C168.126 480.854 167.367 480.967 166.562 480.967H165.331V482.08H166.54C167.248 482.08 167.938 481.987 168.612 481.802C169.291 481.616 169.958 481.372 170.612 481.069C171.271 480.767 171.923 480.439 172.567 480.088C172.636 480.547 172.775 480.923 172.985 481.216C173.2 481.509 173.512 481.726 173.922 481.868C174.337 482.009 174.877 482.08 175.541 482.08H175.973V480.967Z" fill="white"/>
<path d="M184.857 477.51C185.336 477.51 185.724 477.661 186.022 477.964C186.325 478.267 186.476 478.65 186.476 479.114C186.476 479.46 186.378 479.753 186.183 479.993C185.988 480.232 185.705 480.422 185.333 480.564C184.967 480.706 184.523 480.808 184 480.872C183.478 480.935 182.887 480.967 182.228 480.967H180.844C181.166 480.459 181.493 479.993 181.825 479.568C182.157 479.143 182.489 478.777 182.821 478.469C183.158 478.162 183.495 477.925 183.832 477.759C184.174 477.593 184.516 477.51 184.857 477.51ZM179.745 480.776C179.472 480.752 179.267 480.591 179.13 480.293C178.998 479.99 178.917 479.658 178.888 479.297L178.778 477.693L177.775 477.81C177.785 478.03 177.797 478.235 177.812 478.425C177.826 478.611 177.833 478.813 177.833 479.033C177.833 479.614 177.704 480.081 177.445 480.432C177.191 480.784 176.72 480.962 176.032 480.967H175.702V482.08H176.024C176.62 482.08 177.094 481.98 177.445 481.78C177.797 481.58 178.102 481.279 178.361 480.879C178.512 481.167 178.727 481.399 179.005 481.575C179.289 481.75 179.655 481.88 180.104 481.963C180.558 482.041 181.103 482.08 181.737 482.08H182.257C183.097 482.08 183.844 482.024 184.499 481.912C185.158 481.799 185.712 481.621 186.161 481.377C186.615 481.133 186.959 480.818 187.194 480.432C187.433 480.046 187.553 479.583 187.553 479.041C187.553 478.542 187.436 478.093 187.201 477.693C186.967 477.292 186.642 476.978 186.227 476.748C185.812 476.514 185.336 476.396 184.799 476.396C184.35 476.396 183.908 476.497 183.473 476.697C183.043 476.897 182.619 477.185 182.199 477.561C181.784 477.937 181.371 478.396 180.961 478.938C180.551 479.475 180.146 480.088 179.745 480.776Z" fill="white"/>
<path d="M197.345 485.852C198.273 485.852 199.071 485.708 199.74 485.42C200.409 485.132 200.922 484.707 201.278 484.146C201.635 483.584 201.813 482.896 201.813 482.08H202.765V480.967H201.828C201.818 480.361 201.754 479.81 201.637 479.312C201.52 478.809 201.349 478.376 201.125 478.015C200.9 477.649 200.624 477.368 200.297 477.173C199.975 476.973 199.601 476.873 199.176 476.873C198.786 476.873 198.444 476.963 198.151 477.144C197.858 477.319 197.611 477.556 197.411 477.854C197.216 478.152 197.069 478.484 196.972 478.85C196.874 479.211 196.825 479.575 196.825 479.941C196.825 480.679 197.05 481.221 197.499 481.567C197.948 481.909 198.612 482.08 199.491 482.08H200.832C200.832 482.964 200.546 483.63 199.975 484.08C199.403 484.529 198.527 484.753 197.345 484.753C196.579 484.753 195.963 484.624 195.5 484.365C195.041 484.106 194.706 483.752 194.496 483.303C194.286 482.854 194.181 482.344 194.181 481.772C194.181 481.338 194.228 480.891 194.32 480.432C194.413 479.968 194.528 479.517 194.665 479.077L193.698 478.689C193.522 479.187 193.385 479.695 193.288 480.212C193.19 480.73 193.141 481.235 193.141 481.729C193.141 482.51 193.283 483.21 193.566 483.831C193.849 484.456 194.298 484.949 194.914 485.31C195.534 485.671 196.344 485.852 197.345 485.852ZM199.418 480.967C198.891 480.967 198.495 480.886 198.231 480.725C197.973 480.564 197.843 480.288 197.843 479.897C197.843 479.648 197.882 479.375 197.96 479.077C198.043 478.774 198.18 478.516 198.371 478.301C198.566 478.081 198.827 477.971 199.154 477.971C199.442 477.971 199.687 478.042 199.887 478.184C200.087 478.325 200.25 478.53 200.377 478.799C200.509 479.062 200.609 479.377 200.678 479.744C200.751 480.11 200.797 480.518 200.817 480.967H199.418ZM200.172 473.84L199.293 474.719L200.172 475.613L201.059 474.719L200.172 473.84ZM197.946 473.84L197.067 474.719L197.946 475.613L198.832 474.719L197.946 473.84Z" fill="white"/>
<path d="M202.479 480.967V482.08H204.274V480.967H202.479ZM204.94 482.08C205.673 482.08 206.239 481.956 206.64 481.707C207.045 481.453 207.326 481.106 207.482 480.667C207.638 480.227 207.716 479.722 207.716 479.15C207.716 478.809 207.692 478.433 207.643 478.022C207.599 477.607 207.523 477.214 207.416 476.843L206.376 477.122C206.479 477.498 206.554 477.878 206.603 478.264C206.657 478.645 206.684 478.975 206.684 479.253C206.684 479.775 206.564 480.193 206.325 480.505C206.085 480.813 205.619 480.967 204.926 480.967H204.135V482.08H204.94ZM206.251 483.384L205.373 484.263L206.251 485.156L207.138 484.263L206.251 483.384ZM204.025 483.384L203.146 484.263L204.025 485.156L204.911 484.263L204.025 483.384Z" fill="white"/>
<path d="M214.154 482.08H214.403V480.967H214.096C213.71 480.967 213.397 480.869 213.158 480.674C212.919 480.474 212.746 480.168 212.638 479.758L212.265 478.337L211.261 478.682C211.417 479.146 211.537 479.6 211.62 480.044C211.703 480.483 211.745 480.903 211.745 481.304C211.745 481.914 211.635 482.468 211.415 482.966C211.195 483.464 210.851 483.889 210.382 484.241C209.914 484.597 209.298 484.863 208.537 485.039L208.888 485.999C209.738 485.818 210.438 485.513 210.99 485.083C211.547 484.653 211.967 484.133 212.25 483.523C212.533 482.917 212.697 482.261 212.741 481.553C212.868 481.689 213.046 481.812 213.275 481.919C213.51 482.026 213.803 482.08 214.154 482.08Z" fill="white"/>
<path d="M220.512 477.51C220.99 477.51 221.381 477.661 221.684 477.964C221.986 478.267 222.138 478.65 222.138 479.114C222.138 479.46 222.04 479.753 221.845 479.993C221.649 480.232 221.366 480.422 220.995 480.564C220.629 480.706 220.185 480.808 219.662 480.872C219.14 480.935 218.549 480.967 217.89 480.967H216.505C216.828 480.459 217.152 479.995 217.479 479.575C217.812 479.15 218.146 478.784 218.483 478.477C218.82 478.164 219.157 477.925 219.494 477.759C219.835 477.593 220.175 477.51 220.512 477.51ZM215.385 480.967H214.14V482.08H217.919C218.759 482.08 219.506 482.024 220.16 481.912C220.814 481.799 221.366 481.621 221.815 481.377C222.27 481.133 222.614 480.818 222.848 480.432C223.087 480.046 223.209 479.58 223.214 479.033C223.214 478.53 223.097 478.081 222.863 477.686C222.628 477.285 222.304 476.973 221.889 476.748C221.474 476.519 220.993 476.404 220.446 476.404C220.128 476.404 219.821 476.455 219.523 476.558C219.225 476.66 218.937 476.804 218.659 476.99C218.38 477.17 218.109 477.388 217.846 477.642C217.587 477.891 217.333 478.169 217.084 478.477V472.031H216.051V479.927C215.949 480.093 215.836 480.266 215.714 480.447C215.597 480.627 215.487 480.801 215.385 480.967Z" fill="white"/>
<path d="M233 485.852C233.751 485.852 234.413 485.769 234.984 485.603C235.556 485.437 236.037 485.215 236.427 484.937C236.818 484.663 237.111 484.358 237.306 484.021C237.501 483.689 237.599 483.357 237.599 483.025C237.599 482.864 237.58 482.705 237.541 482.549C237.501 482.393 237.423 482.239 237.306 482.087H237.833V480.974H233.9C233.847 480.974 233.805 480.989 233.776 481.018C233.751 481.047 233.744 481.082 233.754 481.121L233.922 481.721C233.952 481.833 233.986 481.924 234.025 481.992C234.069 482.056 234.132 482.087 234.215 482.087H235.226C235.68 482.087 236.024 482.175 236.259 482.351C236.493 482.532 236.61 482.764 236.61 483.047C236.61 483.301 236.459 483.56 236.156 483.823C235.854 484.087 235.431 484.307 234.889 484.482C234.347 484.663 233.717 484.753 233 484.753C232.233 484.753 231.618 484.624 231.154 484.365C230.69 484.106 230.353 483.752 230.143 483.303C229.938 482.854 229.835 482.344 229.835 481.772C229.835 481.504 229.867 481.155 229.931 480.725C229.994 480.295 230.094 479.841 230.231 479.363L229.257 478.975C229.086 479.512 228.966 480.024 228.898 480.513C228.83 481.001 228.795 481.406 228.795 481.729C228.795 482.51 228.937 483.21 229.22 483.831C229.503 484.456 229.953 484.949 230.568 485.31C231.188 485.671 231.999 485.852 233 485.852ZM234.311 486.987L233.432 487.866L234.311 488.76L235.197 487.866L234.311 486.987ZM232.084 486.987L231.205 487.866L232.084 488.76L232.97 487.866L232.084 486.987Z" fill="white"/>
<path d="M240.888 471.321L239.965 472.244L240.888 473.167L241.811 472.244L240.888 471.321ZM241.225 478.403C240.761 478.403 240.395 478.342 240.126 478.22C239.857 478.093 239.723 477.839 239.723 477.458C239.723 477.2 239.767 476.926 239.855 476.638C239.948 476.345 240.094 476.096 240.294 475.891C240.495 475.681 240.753 475.576 241.071 475.576C241.364 475.576 241.605 475.659 241.796 475.825C241.986 475.986 242.14 476.199 242.257 476.462C242.379 476.721 242.472 477 242.536 477.297C242.604 477.595 242.653 477.881 242.682 478.154C242.443 478.223 242.204 478.281 241.964 478.33C241.725 478.379 241.479 478.403 241.225 478.403ZM240.331 480.967H237.562V482.08H240.243C240.893 482.08 241.439 482.039 241.884 481.956C242.328 481.873 242.685 481.719 242.953 481.494C243.227 481.265 243.422 480.935 243.539 480.505C243.661 480.071 243.722 479.504 243.722 478.806C243.722 478.289 243.676 477.776 243.583 477.268C243.49 476.76 243.339 476.299 243.129 475.884C242.924 475.464 242.653 475.127 242.316 474.873C241.979 474.619 241.569 474.492 241.085 474.492C240.695 474.492 240.353 474.58 240.06 474.756C239.767 474.932 239.523 475.166 239.328 475.459C239.132 475.747 238.986 476.069 238.888 476.426C238.791 476.782 238.742 477.141 238.742 477.502C238.742 478.162 238.942 478.652 239.342 478.975C239.748 479.297 240.343 479.458 241.129 479.458C241.437 479.458 241.72 479.436 241.979 479.392C242.238 479.343 242.494 479.28 242.748 479.202C242.748 479.729 242.667 480.117 242.506 480.366C242.35 480.615 242.094 480.779 241.737 480.857C241.386 480.93 240.917 480.967 240.331 480.967Z" fill="white"/>
<path d="M254.723 480.967C254.04 480.967 253.427 480.928 252.885 480.85C252.343 480.771 251.884 480.64 251.508 480.454C251.137 480.264 250.851 480.012 250.651 479.7C250.451 479.387 250.351 478.994 250.351 478.521C250.351 478.315 250.375 478.098 250.424 477.869C250.473 477.639 250.531 477.419 250.6 477.209L249.662 476.858C249.555 477.136 249.467 477.427 249.398 477.729C249.335 478.027 249.303 478.33 249.303 478.638C249.303 479.258 249.423 479.788 249.662 480.227C249.901 480.662 250.25 481.016 250.709 481.289C251.173 481.562 251.742 481.763 252.416 481.89C253.09 482.017 253.859 482.08 254.723 482.08H255.932C256.64 482.08 257.24 482.043 257.733 481.97C258.231 481.897 258.654 481.768 259 481.582C259.347 481.392 259.65 481.121 259.909 480.769C260.036 481.189 260.258 481.514 260.575 481.743C260.893 481.968 261.361 482.08 261.981 482.08H262.282V480.967H261.974C261.53 480.967 261.203 480.874 260.993 480.688C260.783 480.498 260.646 480.222 260.583 479.861C260.519 479.5 260.487 479.065 260.487 478.557V472.031H259.462V478.579C259.462 479.019 259.42 479.392 259.337 479.7C259.254 480.002 259.091 480.247 258.847 480.432C258.607 480.618 258.251 480.754 257.777 480.842C257.304 480.925 256.671 480.967 255.88 480.967H254.723ZM253.698 477.795V478.491C253.874 478.521 254.052 478.542 254.232 478.557C254.418 478.572 254.601 478.579 254.782 478.579C255.099 478.579 255.397 478.545 255.675 478.477C255.954 478.408 256.178 478.291 256.349 478.125C256.52 477.954 256.605 477.712 256.605 477.4C256.605 477.273 256.586 477.163 256.547 477.07C256.508 476.973 256.454 476.887 256.386 476.814C256.264 476.677 256.103 476.572 255.902 476.499C255.707 476.426 255.512 476.37 255.316 476.331C255.121 476.287 254.955 476.24 254.818 476.191C254.687 476.143 254.621 476.069 254.621 475.972C254.621 475.854 254.682 475.745 254.804 475.642C254.931 475.54 255.089 475.449 255.28 475.371C255.47 475.293 255.663 475.232 255.858 475.188C256.059 475.144 256.234 475.12 256.386 475.115L256.342 474.36C256.132 474.365 255.89 474.404 255.617 474.478C255.348 474.546 255.087 474.648 254.833 474.785C254.579 474.917 254.369 475.085 254.203 475.291C254.037 475.496 253.954 475.74 253.954 476.023C253.954 476.257 254.02 476.44 254.152 476.572C254.289 476.704 254.457 476.804 254.657 476.873C254.857 476.941 255.055 476.997 255.25 477.041C255.451 477.085 255.619 477.134 255.756 477.188C255.893 477.241 255.961 477.322 255.961 477.429C255.961 477.61 255.841 477.732 255.602 477.795C255.368 477.859 255.104 477.891 254.811 477.891C254.606 477.891 254.403 477.881 254.203 477.861C254.003 477.842 253.834 477.82 253.698 477.795Z" fill="white"/>
<path d="M266.698 477.62C266.991 477.62 267.355 477.644 267.79 477.693C268.224 477.742 268.625 477.83 268.991 477.957C268.751 478.259 268.5 478.547 268.236 478.821C267.978 479.094 267.733 479.338 267.504 479.553C267.279 479.763 267.094 479.932 266.947 480.059C266.801 480.181 266.718 480.249 266.698 480.264C266.674 480.244 266.54 480.129 266.295 479.919C266.056 479.705 265.766 479.426 265.424 479.084C265.082 478.743 264.748 478.367 264.42 477.957C264.787 477.83 265.185 477.742 265.614 477.693C266.049 477.644 266.41 477.62 266.698 477.62ZM266.698 476.572C266.356 476.572 265.99 476.599 265.6 476.653C265.214 476.707 264.848 476.785 264.501 476.887C264.159 476.99 263.878 477.117 263.659 477.268C263.444 477.419 263.336 477.59 263.336 477.781C263.336 477.888 263.393 478.037 263.505 478.228C263.617 478.418 263.764 478.628 263.944 478.857C264.125 479.087 264.32 479.319 264.53 479.553C264.745 479.788 264.955 480.007 265.16 480.212C265.37 480.417 265.551 480.586 265.702 480.718C265.463 480.796 265.187 480.852 264.875 480.886C264.567 480.92 264.262 480.942 263.959 480.952C263.661 480.962 263.402 480.967 263.183 480.967H262.011V482.08H263.175C263.532 482.08 263.925 482.056 264.354 482.007C264.789 481.958 265.211 481.88 265.622 481.772C266.037 481.66 266.396 481.511 266.698 481.326C267.172 481.609 267.66 481.807 268.163 481.919C268.671 482.026 269.191 482.08 269.723 482.08H270.866V480.967H269.723C269.396 480.967 269.069 480.955 268.742 480.93C268.415 480.901 268.068 480.83 267.702 480.718C267.858 480.586 268.039 480.42 268.244 480.22C268.449 480.015 268.656 479.795 268.866 479.561C269.081 479.321 269.279 479.089 269.459 478.865C269.64 478.635 269.787 478.425 269.899 478.235C270.011 478.044 270.067 477.893 270.067 477.781C270.067 477.59 269.958 477.419 269.738 477.268C269.518 477.117 269.235 476.99 268.888 476.887C268.542 476.785 268.173 476.707 267.782 476.653C267.396 476.599 267.035 476.572 266.698 476.572Z" fill="white"/>
<path d="M275.341 478.125C275.829 478.125 276.205 478.301 276.469 478.652C276.737 479.004 276.872 479.443 276.872 479.971C276.872 480.356 276.769 480.654 276.564 480.864C276.364 481.069 276.068 481.172 275.678 481.172C275.517 481.172 275.338 481.138 275.143 481.069C274.953 481.001 274.755 480.898 274.55 480.762C274.389 480.659 274.225 480.54 274.059 480.403C273.898 480.266 273.734 480.112 273.568 479.941C273.695 479.658 273.842 479.377 274.008 479.099C274.179 478.821 274.374 478.589 274.594 478.403C274.813 478.218 275.062 478.125 275.341 478.125ZM275.692 482.249C276.161 482.249 276.559 482.156 276.886 481.97C277.213 481.78 277.462 481.506 277.633 481.15C277.804 480.793 277.89 480.361 277.89 479.854C277.89 479.331 277.782 478.86 277.567 478.44C277.357 478.015 277.06 477.678 276.674 477.429C276.288 477.175 275.834 477.048 275.312 477.048C274.877 477.048 274.511 477.144 274.213 477.334C273.915 477.52 273.661 477.761 273.451 478.059C273.241 478.357 273.051 478.674 272.88 479.011C272.709 479.343 272.536 479.658 272.36 479.956C272.184 480.254 271.981 480.498 271.752 480.688C271.522 480.874 271.242 480.967 270.91 480.967H270.595V482.08H270.939C271.286 482.08 271.579 482.031 271.818 481.934C272.057 481.836 272.272 481.699 272.462 481.523C272.653 481.348 272.846 481.14 273.041 480.901C273.319 481.165 273.595 481.399 273.869 481.604C274.142 481.809 274.425 481.968 274.718 482.08C275.016 482.192 275.341 482.249 275.692 482.249Z" fill="white"/>
<path d="M188.233 350.422C165.938 350.422 147.863 367.905 147.863 389.469C147.863 411.034 165.938 428.517 188.233 428.517C210.529 428.517 228.603 411.034 228.603 389.469C228.603 367.905 210.529 350.422 188.233 350.422ZM188.233 420.084C170.752 420.084 156.582 406.378 156.582 389.469C156.582 372.561 170.752 358.852 188.233 358.852C205.714 358.852 219.885 372.558 219.885 389.467C219.885 406.375 205.714 420.082 188.233 420.082V420.084Z" fill="white"/>
<path d="M167.26 366.537H209.24L188.233 420.084L183.47 408.409L196.727 374.78H170.461L167.26 366.537Z" fill="white"/>
<path d="M127.795 456.88C126.604 456.226 125.662 455.316 124.971 454.146C124.277 452.975 123.933 451.659 123.933 450.195C123.933 448.731 124.279 447.415 124.971 446.245C125.664 445.075 126.604 444.165 127.795 443.511C128.986 442.858 130.303 442.531 131.747 442.531C133.19 442.531 134.53 442.858 135.721 443.511C136.912 444.165 137.85 445.073 138.534 446.234C139.219 447.397 139.56 448.717 139.56 450.195C139.56 451.674 139.218 452.994 138.534 454.157C137.849 455.32 136.91 456.228 135.721 456.88C134.53 457.533 133.206 457.86 131.747 457.86C130.288 457.86 128.986 457.533 127.795 456.88V456.88ZM134.684 455.427C135.555 454.939 136.238 454.243 136.738 453.339C137.236 452.434 137.487 451.388 137.487 450.195C137.487 449.003 137.238 447.939 136.738 447.042C136.238 446.145 135.559 445.453 134.695 444.966C133.832 444.478 132.849 444.235 131.748 444.235C130.648 444.235 129.663 444.478 128.802 444.966C127.938 445.453 127.257 446.147 126.759 447.042C126.259 447.939 126.01 448.99 126.01 450.195C126.01 451.401 126.259 452.434 126.759 453.339C127.257 454.243 127.942 454.939 128.813 455.427C129.684 455.914 130.663 456.16 131.75 456.16C132.838 456.16 133.816 455.916 134.687 455.427H134.684Z" fill="white"/>
<path d="M151.842 443.673L145.635 457.71H143.58L149.878 443.867H141.258V442.187H151.842V443.673V443.673Z" fill="white"/>
<path d="M169.973 442.704V444.297H165.73V457.71H163.699V444.297H159.435V442.704H169.975H169.973Z" fill="white"/>
<path d="M184.465 442.704V457.71H182.434V450.908H174.507V457.71H172.476V442.704H174.507V449.293H182.434V442.704H184.465V442.704Z" fill="white"/>
<path d="M189.959 444.296V449.311H195.63V450.926H189.959V456.093H196.3V457.708H187.928V442.682H196.3V444.297H189.959V444.296Z" fill="white"/>
<path d="M207.574 457.708L203.867 451.572H201.411V457.708H199.379V442.703H204.403C205.579 442.703 206.573 442.896 207.384 443.284C208.196 443.672 208.803 444.196 209.203 444.855C209.605 445.516 209.806 446.269 209.806 447.116C209.806 448.15 209.498 449.062 208.88 449.85C208.261 450.64 207.335 451.163 206.1 451.421L210.007 457.707H207.574V457.708ZM201.411 450.002H204.403C205.504 450.002 206.331 449.739 206.883 449.215C207.434 448.691 207.708 447.991 207.708 447.116C207.708 446.241 207.436 445.538 206.892 445.049C206.348 444.561 205.519 444.316 204.403 444.316H201.411V450V450.002Z" fill="white"/>
<path d="M222.155 454.373H215.367L214.117 457.71H211.973L217.6 442.791H219.945L225.55 457.71H223.405L222.155 454.373V454.373ZM221.575 452.78L218.762 445.202L215.95 452.78H221.577H221.575Z" fill="white"/>
<path d="M237.082 450.206C236.195 451.031 234.845 451.445 233.028 451.445H230.036V457.71H228.004V442.704H233.028C234.784 442.704 236.12 443.114 237.036 443.932C237.951 444.75 238.408 445.806 238.408 447.096C238.408 448.386 237.966 449.381 237.08 450.206H237.082ZM235.529 449.119C236.065 448.645 236.333 447.971 236.333 447.096C236.333 445.244 235.232 444.32 233.028 444.32H230.036V449.832H233.028C234.16 449.832 234.993 449.595 235.529 449.121V449.119Z" fill="white"/>
<path d="M251.83 442.704L246.762 452.047V457.708H244.73V452.047L239.639 442.704H241.895L245.735 450.304L249.576 442.704H251.832H251.83Z" fill="white"/>
<mask id="mask0_849_6720" style="mask-type:alpha" maskUnits="userSpaceOnUse" x="0" y="650" width="181" height="174">
<rect y="650.08" width="181" height="173" fill="#D9D9D9"/>
</mask>
<g mask="url(#mask0_849_6720)">
<path d="M-4 669.932C-4 669.932 50.8476 632.519 90.2284 672.647C115.699 698.609 91.4479 709.172 104.575 745.687C117.702 782.202 163.418 765.54 174.076 796.597C184.863 828.008 161.951 830.895 161.951 830.895H-4V669.932Z" stroke="white" stroke-miterlimit="10"/>
<path d="M-4 717C-4 717 34.8157 690.522 62.6757 718.922C80.7004 737.294 63.5383 744.769 72.8282 770.607C82.1182 796.444 114.47 784.658 122.015 806.634C129.649 828.859 113.438 830.904 113.438 830.904H-4V717V717Z" stroke="white" stroke-miterlimit="10"/>
</g>
<path d="M379.964 252.584C379.964 252.584 293.895 311.295 232.107 248.321C192.142 207.591 230.194 191.006 209.601 133.7C189.009 76.3947 117.267 102.538 100.531 53.8166C83.6065 4.53092 119.547 0 119.547 0H379.964V252.584Z" fill="#6AB4A9"/>
<path d="M379.964 178.732C379.964 178.732 319.058 220.275 275.335 175.712C247.049 146.892 273.977 135.153 259.412 94.6045C244.838 54.0556 194.075 72.5521 182.237 38.0731C170.25 3.20223 195.681 0 195.681 0H379.954V178.732H379.964Z" fill="#EFE6DC"/>
</g>
<defs>
<clipPath id="clip0_849_6720">
<rect width="375" height="812" fill="white"/>
</clipPath>
</defs>
</svg>
