<svg width="375" height="812" viewBox="0 0 375 812" fill="none" xmlns="http://www.w3.org/2000/svg">
<g clip-path="url(#clip0_2414_22428)">
<rect width="375" height="812" fill="#2D5D63"/>
<g clip-path="url(#clip1_2414_22428)">
<path d="M375 32.9199H3.20215V809.103H375V32.9199Z" fill="#2D5D63"/>
<path d="M412.854 207.657C412.854 207.657 326.785 266.367 264.997 203.393C225.031 162.663 263.084 146.078 242.491 88.7726C221.898 31.467 150.156 57.6106 133.42 8.88888C116.496 -40.3968 152.437 -44.9277 152.437 -44.9277H412.854V207.657Z" fill="#6AB4A9"/>
<path d="M412.853 133.805C412.853 133.805 351.948 175.348 308.224 130.784C279.938 101.964 306.866 90.2256 292.302 49.6767C277.727 9.12786 226.964 27.6243 215.126 -6.85463C203.14 -41.7255 228.57 -44.9277 228.57 -44.9277H412.843V133.805H412.853Z" fill="#EFE6DC"/>
<rect x="211.181" y="326.914" width="143.762" height="36.3238" fill="#2D5D63"/>
<path d="M80.13 460.515L76.77 466.92V471H75.72V466.92L72.33 460.515H73.515L76.245 465.96L78.96 460.515H80.13ZM85.2518 471.12C84.4818 471.12 83.7868 470.95 83.1668 470.61C82.5568 470.26 82.0718 469.77 81.7118 469.14C81.3618 468.5 81.1868 467.755 81.1868 466.905C81.1868 466.055 81.3668 465.315 81.7268 464.685C82.0868 464.045 82.5768 463.555 83.1968 463.215C83.8168 462.865 84.5118 462.69 85.2818 462.69C86.0518 462.69 86.7468 462.865 87.3668 463.215C87.9968 463.555 88.4868 464.045 88.8368 464.685C89.1968 465.315 89.3768 466.055 89.3768 466.905C89.3768 467.745 89.1968 468.485 88.8368 469.125C88.4768 469.765 87.9818 470.26 87.3518 470.61C86.7218 470.95 86.0218 471.12 85.2518 471.12ZM85.2518 470.205C85.7918 470.205 86.2918 470.085 86.7518 469.845C87.2118 469.595 87.5818 469.225 87.8618 468.735C88.1518 468.235 88.2968 467.625 88.2968 466.905C88.2968 466.185 88.1568 465.58 87.8768 465.09C87.5968 464.59 87.2268 464.22 86.7668 463.98C86.3068 463.73 85.8068 463.605 85.2668 463.605C84.7268 463.605 84.2268 463.73 83.7668 463.98C83.3068 464.22 82.9368 464.59 82.6568 465.09C82.3868 465.58 82.2518 466.185 82.2518 466.905C82.2518 467.625 82.3868 468.235 82.6568 468.735C82.9368 469.225 83.3018 469.595 83.7518 469.845C84.2118 470.085 84.7118 470.205 85.2518 470.205ZM98.3858 462.81V471H97.3358V469.56C97.0958 470.07 96.7258 470.46 96.2258 470.73C95.7258 471 95.1658 471.135 94.5458 471.135C93.5658 471.135 92.7658 470.835 92.1458 470.235C91.5258 469.625 91.2158 468.745 91.2158 467.595V462.81H92.2508V467.475C92.2508 468.365 92.4708 469.045 92.9108 469.515C93.3608 469.985 93.9708 470.22 94.7408 470.22C95.5308 470.22 96.1608 469.97 96.6308 469.47C97.1008 468.97 97.3358 468.235 97.3358 467.265V462.81H98.3858ZM101.833 464.265C102.063 463.755 102.413 463.36 102.883 463.08C103.363 462.8 103.948 462.66 104.638 462.66V463.755H104.353C103.593 463.755 102.983 463.96 102.523 464.37C102.063 464.78 101.833 465.465 101.833 466.425V471H100.783V462.81H101.833V464.265ZM120.579 460.65V471H119.529V462.735L115.839 471H115.074L111.384 462.765V471H110.334V460.65H111.444L115.449 469.62L119.454 460.65H120.579ZM130.371 466.485C130.371 466.845 130.361 467.12 130.341 467.31H123.546C123.576 467.93 123.726 468.46 123.996 468.9C124.266 469.34 124.621 469.675 125.061 469.905C125.501 470.125 125.981 470.235 126.501 470.235C127.181 470.235 127.751 470.07 128.211 469.74C128.681 469.41 128.991 468.965 129.141 468.405H130.251C130.051 469.205 129.621 469.86 128.961 470.37C128.311 470.87 127.491 471.12 126.501 471.12C125.731 471.12 125.041 470.95 124.431 470.61C123.821 470.26 123.341 469.77 122.991 469.14C122.651 468.5 122.481 467.755 122.481 466.905C122.481 466.055 122.651 465.31 122.991 464.67C123.331 464.03 123.806 463.54 124.416 463.2C125.026 462.86 125.721 462.69 126.501 462.69C127.281 462.69 127.961 462.86 128.541 463.2C129.131 463.54 129.581 464 129.891 464.58C130.211 465.15 130.371 465.785 130.371 466.485ZM129.306 466.455C129.316 465.845 129.191 465.325 128.931 464.895C128.681 464.465 128.336 464.14 127.896 463.92C127.456 463.7 126.976 463.59 126.456 463.59C125.676 463.59 125.011 463.84 124.461 464.34C123.911 464.84 123.606 465.545 123.546 466.455H129.306ZM136.132 462.66C137.112 462.66 137.912 462.965 138.532 463.575C139.152 464.175 139.462 465.05 139.462 466.2V471H138.427V466.32C138.427 465.43 138.202 464.75 137.752 464.28C137.312 463.81 136.707 463.575 135.937 463.575C135.147 463.575 134.517 463.825 134.047 464.325C133.577 464.825 133.342 465.56 133.342 466.53V471H132.292V462.81H133.342V464.205C133.602 463.705 133.977 463.325 134.467 463.065C134.957 462.795 135.512 462.66 136.132 462.66ZM143.149 463.695V468.78C143.149 469.28 143.244 469.625 143.434 469.815C143.624 470.005 143.959 470.1 144.439 470.1H145.399V471H144.274C143.534 471 142.984 470.83 142.624 470.49C142.264 470.14 142.084 469.57 142.084 468.78V463.695H140.944V462.81H142.084V460.755H143.149V462.81H145.399V463.695H143.149ZM146.651 466.89C146.651 466.05 146.816 465.315 147.146 464.685C147.486 464.045 147.951 463.555 148.541 463.215C149.141 462.865 149.816 462.69 150.566 462.69C151.346 462.69 152.016 462.87 152.576 463.23C153.146 463.59 153.556 464.05 153.806 464.61V462.81H154.856V471H153.806V469.185C153.546 469.745 153.131 470.21 152.561 470.58C152.001 470.94 151.331 471.12 150.551 471.12C149.811 471.12 149.141 470.945 148.541 470.595C147.951 470.245 147.486 469.75 147.146 469.11C146.816 468.47 146.651 467.73 146.651 466.89ZM153.806 466.905C153.806 466.245 153.671 465.665 153.401 465.165C153.131 464.665 152.761 464.28 152.291 464.01C151.831 463.74 151.321 463.605 150.761 463.605C150.181 463.605 149.661 463.735 149.201 463.995C148.741 464.255 148.376 464.635 148.106 465.135C147.846 465.625 147.716 466.21 147.716 466.89C147.716 467.56 147.846 468.15 148.106 468.66C148.376 469.16 148.741 469.545 149.201 469.815C149.661 470.075 150.181 470.205 150.761 470.205C151.321 470.205 151.831 470.07 152.291 469.8C152.761 469.53 153.131 469.145 153.401 468.645C153.671 468.145 153.806 467.565 153.806 466.905ZM158.303 459.9V471H157.253V459.9H158.303ZM172.582 460.515V471H171.532V466.095H165.847V471H164.797V460.515H165.847V465.225H171.532V460.515H172.582ZM182.387 466.485C182.387 466.845 182.377 467.12 182.357 467.31H175.562C175.592 467.93 175.742 468.46 176.012 468.9C176.282 469.34 176.637 469.675 177.077 469.905C177.517 470.125 177.997 470.235 178.517 470.235C179.197 470.235 179.767 470.07 180.227 469.74C180.697 469.41 181.007 468.965 181.157 468.405H182.267C182.067 469.205 181.637 469.86 180.977 470.37C180.327 470.87 179.507 471.12 178.517 471.12C177.747 471.12 177.057 470.95 176.447 470.61C175.837 470.26 175.357 469.77 175.007 469.14C174.667 468.5 174.497 467.755 174.497 466.905C174.497 466.055 174.667 465.31 175.007 464.67C175.347 464.03 175.822 463.54 176.432 463.2C177.042 462.86 177.737 462.69 178.517 462.69C179.297 462.69 179.977 462.86 180.557 463.2C181.147 463.54 181.597 464 181.907 464.58C182.227 465.15 182.387 465.785 182.387 466.485ZM181.322 466.455C181.332 465.845 181.207 465.325 180.947 464.895C180.697 464.465 180.352 464.14 179.912 463.92C179.472 463.7 178.992 463.59 178.472 463.59C177.692 463.59 177.027 463.84 176.477 464.34C175.927 464.84 175.622 465.545 175.562 466.455H181.322ZM183.828 466.89C183.828 466.05 183.993 465.315 184.323 464.685C184.663 464.045 185.128 463.555 185.718 463.215C186.318 462.865 186.993 462.69 187.743 462.69C188.523 462.69 189.193 462.87 189.753 463.23C190.323 463.59 190.733 464.05 190.983 464.61V462.81H192.033V471H190.983V469.185C190.723 469.745 190.308 470.21 189.738 470.58C189.178 470.94 188.508 471.12 187.728 471.12C186.988 471.12 186.318 470.945 185.718 470.595C185.128 470.245 184.663 469.75 184.323 469.11C183.993 468.47 183.828 467.73 183.828 466.89ZM190.983 466.905C190.983 466.245 190.848 465.665 190.578 465.165C190.308 464.665 189.938 464.28 189.468 464.01C189.008 463.74 188.498 463.605 187.938 463.605C187.358 463.605 186.838 463.735 186.378 463.995C185.918 464.255 185.553 464.635 185.283 465.135C185.023 465.625 184.893 466.21 184.893 466.89C184.893 467.56 185.023 468.15 185.283 468.66C185.553 469.16 185.918 469.545 186.378 469.815C186.838 470.075 187.358 470.205 187.938 470.205C188.498 470.205 189.008 470.07 189.468 469.8C189.938 469.53 190.308 469.145 190.578 468.645C190.848 468.145 190.983 467.565 190.983 466.905ZM195.48 459.9V471H194.43V459.9H195.48ZM199.223 463.695V468.78C199.223 469.28 199.318 469.625 199.508 469.815C199.698 470.005 200.033 470.1 200.513 470.1H201.473V471H200.348C199.608 471 199.058 470.83 198.698 470.49C198.338 470.14 198.158 469.57 198.158 468.78V463.695H197.018V462.81H198.158V460.755H199.223V462.81H201.473V463.695H199.223ZM207.105 462.66C207.725 462.66 208.28 462.79 208.77 463.05C209.27 463.31 209.66 463.71 209.94 464.25C210.23 464.78 210.375 465.43 210.375 466.2V471H209.34V466.32C209.34 465.43 209.115 464.75 208.665 464.28C208.225 463.81 207.62 463.575 206.85 463.575C206.06 463.575 205.43 463.825 204.96 464.325C204.49 464.825 204.255 465.56 204.255 466.53V471H203.205V459.9H204.255V464.205C204.515 463.715 204.895 463.335 205.395 463.065C205.905 462.795 206.475 462.66 207.105 462.66ZM216.333 465.75C216.333 464.72 216.558 463.8 217.008 462.99C217.458 462.17 218.073 461.535 218.853 461.085C219.633 460.625 220.503 460.395 221.463 460.395C222.633 460.395 223.633 460.675 224.463 461.235C225.303 461.785 225.913 462.565 226.293 463.575H225.063C224.763 462.865 224.303 462.31 223.683 461.91C223.073 461.51 222.333 461.31 221.463 461.31C220.693 461.31 219.998 461.49 219.378 461.85C218.768 462.21 218.288 462.73 217.938 463.41C217.588 464.08 217.413 464.86 217.413 465.75C217.413 466.64 217.588 467.42 217.938 468.09C218.288 468.76 218.768 469.275 219.378 469.635C219.998 469.995 220.693 470.175 221.463 470.175C222.333 470.175 223.073 469.98 223.683 469.59C224.303 469.19 224.763 468.64 225.063 467.94H226.293C225.913 468.94 225.303 469.715 224.463 470.265C223.623 470.815 222.623 471.09 221.463 471.09C220.503 471.09 219.633 470.865 218.853 470.415C218.073 469.955 217.458 469.32 217.008 468.51C216.558 467.7 216.333 466.78 216.333 465.75ZM231.971 471.12C231.201 471.12 230.506 470.95 229.886 470.61C229.276 470.26 228.791 469.77 228.431 469.14C228.081 468.5 227.906 467.755 227.906 466.905C227.906 466.055 228.086 465.315 228.446 464.685C228.806 464.045 229.296 463.555 229.916 463.215C230.536 462.865 231.231 462.69 232.001 462.69C232.771 462.69 233.466 462.865 234.086 463.215C234.716 463.555 235.206 464.045 235.556 464.685C235.916 465.315 236.096 466.055 236.096 466.905C236.096 467.745 235.916 468.485 235.556 469.125C235.196 469.765 234.701 470.26 234.071 470.61C233.441 470.95 232.741 471.12 231.971 471.12ZM231.971 470.205C232.511 470.205 233.011 470.085 233.471 469.845C233.931 469.595 234.301 469.225 234.581 468.735C234.871 468.235 235.016 467.625 235.016 466.905C235.016 466.185 234.876 465.58 234.596 465.09C234.316 464.59 233.946 464.22 233.486 463.98C233.026 463.73 232.526 463.605 231.986 463.605C231.446 463.605 230.946 463.73 230.486 463.98C230.026 464.22 229.656 464.59 229.376 465.09C229.106 465.58 228.971 466.185 228.971 466.905C228.971 467.625 229.106 468.235 229.376 468.735C229.656 469.225 230.021 469.595 230.471 469.845C230.931 470.085 231.431 470.205 231.971 470.205ZM247.76 462.66C248.72 462.66 249.5 462.965 250.1 463.575C250.71 464.175 251.015 465.05 251.015 466.2V471H249.98V466.32C249.98 465.43 249.765 464.75 249.335 464.28C248.905 463.81 248.32 463.575 247.58 463.575C246.81 463.575 246.195 463.83 245.735 464.34C245.275 464.85 245.045 465.59 245.045 466.56V471H244.01V466.32C244.01 465.43 243.795 464.75 243.365 464.28C242.935 463.81 242.345 463.575 241.595 463.575C240.825 463.575 240.21 463.83 239.75 464.34C239.29 464.85 239.06 465.59 239.06 466.56V471H238.01V462.81H239.06V464.22C239.32 463.71 239.69 463.325 240.17 463.065C240.65 462.795 241.185 462.66 241.775 462.66C242.485 462.66 243.105 462.83 243.635 463.17C244.175 463.51 244.565 464.01 244.805 464.67C245.025 464.02 245.4 463.525 245.93 463.185C246.47 462.835 247.08 462.66 247.76 462.66ZM254.381 464.61C254.641 464.06 255.051 463.605 255.611 463.245C256.181 462.875 256.856 462.69 257.636 462.69C258.376 462.69 259.041 462.865 259.631 463.215C260.231 463.555 260.696 464.045 261.026 464.685C261.366 465.315 261.536 466.05 261.536 466.89C261.536 467.73 261.366 468.47 261.026 469.11C260.696 469.75 260.231 470.245 259.631 470.595C259.041 470.945 258.376 471.12 257.636 471.12C256.866 471.12 256.196 470.94 255.626 470.58C255.056 470.21 254.641 469.75 254.381 469.2V474.87H253.346V462.81H254.381V464.61ZM260.471 466.89C260.471 466.21 260.336 465.625 260.066 465.135C259.806 464.635 259.446 464.255 258.986 463.995C258.526 463.735 258.006 463.605 257.426 463.605C256.866 463.605 256.351 463.74 255.881 464.01C255.421 464.28 255.056 464.665 254.786 465.165C254.516 465.665 254.381 466.245 254.381 466.905C254.381 467.565 254.516 468.145 254.786 468.645C255.056 469.145 255.421 469.53 255.881 469.8C256.351 470.07 256.866 470.205 257.426 470.205C258.006 470.205 258.526 470.075 258.986 469.815C259.446 469.545 259.806 469.16 260.066 468.66C260.336 468.15 260.471 467.56 260.471 466.89ZM262.989 466.89C262.989 466.05 263.154 465.315 263.484 464.685C263.824 464.045 264.289 463.555 264.879 463.215C265.479 462.865 266.154 462.69 266.904 462.69C267.684 462.69 268.354 462.87 268.914 463.23C269.484 463.59 269.894 464.05 270.144 464.61V462.81H271.194V471H270.144V469.185C269.884 469.745 269.469 470.21 268.899 470.58C268.339 470.94 267.669 471.12 266.889 471.12C266.149 471.12 265.479 470.945 264.879 470.595C264.289 470.245 263.824 469.75 263.484 469.11C263.154 468.47 262.989 467.73 262.989 466.89ZM270.144 466.905C270.144 466.245 270.009 465.665 269.739 465.165C269.469 464.665 269.099 464.28 268.629 464.01C268.169 463.74 267.659 463.605 267.099 463.605C266.519 463.605 265.999 463.735 265.539 463.995C265.079 464.255 264.714 464.635 264.444 465.135C264.184 465.625 264.054 466.21 264.054 466.89C264.054 467.56 264.184 468.15 264.444 468.66C264.714 469.16 265.079 469.545 265.539 469.815C265.999 470.075 266.519 470.205 267.099 470.205C267.659 470.205 268.169 470.07 268.629 469.8C269.099 469.53 269.469 469.145 269.739 468.645C270.009 468.145 270.144 467.565 270.144 466.905ZM277.431 462.66C278.411 462.66 279.211 462.965 279.831 463.575C280.451 464.175 280.761 465.05 280.761 466.2V471H279.726V466.32C279.726 465.43 279.501 464.75 279.051 464.28C278.611 463.81 278.006 463.575 277.236 463.575C276.446 463.575 275.816 463.825 275.346 464.325C274.876 464.825 274.641 465.56 274.641 466.53V471H273.591V462.81H274.641V464.205C274.901 463.705 275.276 463.325 275.766 463.065C276.256 462.795 276.811 462.66 277.431 462.66ZM283.608 461.265C283.398 461.265 283.218 461.19 283.068 461.04C282.918 460.89 282.843 460.705 282.843 460.485C282.843 460.265 282.918 460.085 283.068 459.945C283.218 459.795 283.398 459.72 283.608 459.72C283.818 459.72 283.998 459.795 284.148 459.945C284.298 460.085 284.373 460.265 284.373 460.485C284.373 460.705 284.298 460.89 284.148 461.04C283.998 461.19 283.818 461.265 283.608 461.265ZM284.133 462.81V471H283.083V462.81H284.133ZM290.096 471.12C289.326 471.12 288.631 470.95 288.011 470.61C287.401 470.26 286.916 469.77 286.556 469.14C286.206 468.5 286.031 467.755 286.031 466.905C286.031 466.055 286.211 465.315 286.571 464.685C286.931 464.045 287.421 463.555 288.041 463.215C288.661 462.865 289.356 462.69 290.126 462.69C290.896 462.69 291.591 462.865 292.211 463.215C292.841 463.555 293.331 464.045 293.681 464.685C294.041 465.315 294.221 466.055 294.221 466.905C294.221 467.745 294.041 468.485 293.681 469.125C293.321 469.765 292.826 470.26 292.196 470.61C291.566 470.95 290.866 471.12 290.096 471.12ZM290.096 470.205C290.636 470.205 291.136 470.085 291.596 469.845C292.056 469.595 292.426 469.225 292.706 468.735C292.996 468.235 293.141 467.625 293.141 466.905C293.141 466.185 293.001 465.58 292.721 465.09C292.441 464.59 292.071 464.22 291.611 463.98C291.151 463.73 290.651 463.605 290.111 463.605C289.571 463.605 289.071 463.73 288.611 463.98C288.151 464.22 287.781 464.59 287.501 465.09C287.231 465.58 287.096 466.185 287.096 466.905C287.096 467.625 287.231 468.235 287.501 468.735C287.781 469.225 288.146 469.595 288.596 469.845C289.056 470.085 289.556 470.205 290.096 470.205ZM299.975 462.66C300.955 462.66 301.755 462.965 302.375 463.575C302.995 464.175 303.305 465.05 303.305 466.2V471H302.27V466.32C302.27 465.43 302.045 464.75 301.595 464.28C301.155 463.81 300.55 463.575 299.78 463.575C298.99 463.575 298.36 463.825 297.89 464.325C297.42 464.825 297.185 465.56 297.185 466.53V471H296.135V462.81H297.185V464.205C297.445 463.705 297.82 463.325 298.31 463.065C298.8 462.795 299.355 462.66 299.975 462.66Z" fill="white"/>
<path d="M188.233 339.342C165.938 339.342 147.863 356.824 147.863 378.389C147.863 399.954 165.938 417.437 188.233 417.437C210.528 417.437 228.603 399.954 228.603 378.389C228.603 356.824 210.528 339.342 188.233 339.342ZM188.233 409.004C170.752 409.004 156.581 395.298 156.581 378.389C156.581 361.481 170.752 347.772 188.233 347.772C205.714 347.772 219.885 361.478 219.885 378.387C219.885 395.295 205.714 409.002 188.233 409.002V409.004Z" fill="white"/>
<path d="M167.26 355.457H209.24L188.233 409.005L183.469 397.33L196.727 363.7H170.461L167.26 355.457Z" fill="white"/>
<path d="M127.794 445.8C126.604 445.146 125.662 444.236 124.97 443.066C124.277 441.896 123.933 440.579 123.933 439.116C123.933 437.652 124.279 436.336 124.97 435.165C125.663 433.995 126.604 433.085 127.794 432.431C128.985 431.778 130.303 431.451 131.746 431.451C133.19 431.451 134.53 431.778 135.721 432.431C136.912 433.085 137.85 433.993 138.534 435.154C139.219 436.317 139.56 437.637 139.56 439.116C139.56 440.594 139.217 441.914 138.534 443.077C137.848 444.24 136.91 445.148 135.721 445.8C134.53 446.453 133.205 446.78 131.746 446.78C130.287 446.78 128.985 446.453 127.794 445.8ZM134.683 444.347C135.555 443.86 136.238 443.164 136.738 442.259C137.236 441.355 137.486 440.308 137.486 439.116C137.486 437.923 137.238 436.86 136.738 435.963C136.238 435.066 135.558 434.373 134.695 433.886C133.831 433.399 132.849 433.155 131.748 433.155C130.647 433.155 129.663 433.399 128.802 433.886C127.938 434.373 127.256 435.067 126.759 435.963C126.259 436.86 126.01 437.91 126.01 439.116C126.01 440.321 126.259 441.355 126.759 442.259C127.256 443.164 127.942 443.86 128.813 444.347C129.684 444.834 130.663 445.08 131.75 445.08C132.838 445.08 133.816 444.836 134.687 444.347H134.683Z" fill="white"/>
<path d="M151.842 432.593L145.635 446.63H143.58L149.878 432.787H141.258V431.107H151.842V432.593Z" fill="white"/>
<path d="M169.973 431.625V433.218H165.73V446.631H163.699V433.218H159.435V431.625H169.975H169.973Z" fill="white"/>
<path d="M184.465 431.625V446.631H182.434V439.828H174.507V446.631H172.476V431.625H174.507V438.213H182.434V431.625H184.465Z" fill="white"/>
<path d="M189.959 433.215V438.23H195.63V439.846H189.959V445.012H196.301V446.628H187.928V431.602H196.301V433.217H189.959V433.215Z" fill="white"/>
<path d="M207.574 446.629L203.867 440.493H201.41V446.629H199.379V431.623H204.403C205.579 431.623 206.572 431.817 207.384 432.205C208.196 432.592 208.803 433.116 209.203 433.775C209.605 434.436 209.806 435.189 209.806 436.037C209.806 437.07 209.498 437.982 208.879 438.771C208.261 439.561 207.334 440.083 206.099 440.342L210.007 446.627H207.574V446.629ZM201.41 438.922H204.403C205.504 438.922 206.331 438.66 206.882 438.136C207.434 437.611 207.708 436.912 207.708 436.037C207.708 435.162 207.436 434.458 206.892 433.969C206.348 433.482 205.519 433.236 204.403 433.236H201.41V438.92V438.922Z" fill="white"/>
<path d="M222.155 443.293H215.367L214.117 446.63H211.973L217.6 431.711H219.945L225.549 446.63H223.405L222.155 443.293ZM221.575 441.699L218.762 434.122L215.949 441.699H221.577H221.575Z" fill="white"/>
<path d="M237.081 439.127C236.195 439.952 234.845 440.366 233.028 440.366H230.035V446.631H228.004V431.625H233.028C234.784 431.625 236.12 432.035 237.035 432.853C237.951 433.67 238.408 434.726 238.408 436.017C238.408 437.307 237.966 438.302 237.079 439.127H237.081ZM235.528 438.04C236.065 437.565 236.333 436.892 236.333 436.017C236.333 434.165 235.232 433.24 233.028 433.24H230.035V438.752H233.028C234.16 438.752 234.992 438.516 235.528 438.042V438.04Z" fill="white"/>
<path d="M251.829 431.625L246.761 440.967V446.629H244.73V440.967L239.639 431.625H241.894L245.735 439.225L249.576 431.625H251.831H251.829Z" fill="white"/>
<mask id="mask0_2414_22428" style="mask-type:alpha" maskUnits="userSpaceOnUse" x="0" y="639" width="181" height="173">
<rect y="639" width="181" height="173" fill="#D9D9D9"/>
</mask>
<g mask="url(#mask0_2414_22428)">
<path d="M-4 658.852C-4 658.852 50.8476 621.439 90.2284 661.567C115.699 687.529 91.4479 698.091 104.575 734.606C117.702 771.121 163.418 754.46 174.076 785.517C184.863 816.928 161.951 819.814 161.951 819.814H-4V658.852Z" stroke="white" stroke-miterlimit="10"/>
<path d="M-4 705.92C-4 705.92 34.8157 679.442 62.6757 707.841C80.7004 726.214 63.5383 733.689 72.8282 759.526C82.1182 785.364 114.47 773.578 122.015 795.554C129.649 817.778 113.438 819.824 113.438 819.824H-4V705.92V705.92Z" stroke="white" stroke-miterlimit="10"/>
</g>
</g>
</g>
<defs>
<clipPath id="clip0_2414_22428">
<rect width="375" height="812" fill="white"/>
</clipPath>
<clipPath id="clip1_2414_22428">
<rect width="375" height="812" fill="white"/>
</clipPath>
</defs>
</svg>
