<svg width="15" height="14" viewBox="0 0 15 14" fill="none" xmlns="http://www.w3.org/2000/svg">
<path d="M6.65861 1.30996C7.05219 0.697195 7.94781 0.697195 8.34139 1.30996L9.8463 3.65295C9.98172 3.86378 10.1914 4.01609 10.4337 4.07973L13.1271 4.78696C13.8315 4.97192 14.1082 5.82371 13.6471 6.38738L11.8838 8.54266C11.7251 8.7366 11.6451 8.98304 11.6594 9.23321L11.8191 12.0133C11.8609 12.7404 11.1363 13.2668 10.4577 13.0024L7.86304 11.9915C7.62956 11.9005 7.37044 11.9005 7.13696 11.9915L4.54228 13.0024C3.8637 13.2668 3.13912 12.7404 3.18089 12.0133L3.34056 9.23321C3.35493 8.98305 3.27486 8.7366 3.11619 8.54266L1.35292 6.38738C0.891767 5.82371 1.16853 4.97192 1.87292 4.78696L4.56628 4.07973C4.80864 4.01609 5.01828 3.86378 5.1537 3.65295L6.65861 1.30996Z" stroke="#D5B582"/>
</svg>
