<svg width="14" height="11" viewBox="0 0 14 11" fill="none" xmlns="http://www.w3.org/2000/svg">
<path d="M12.4011 6.5595L12.6389 6.11961L12.4011 6.5595ZM12.667 7.05802L13.1493 7.18997L12.667 7.05802ZM1.08477 7.05802L0.602495 7.18997L1.08477 7.05802ZM1.3506 6.55949L1.1129 6.11961L1.3506 6.55949ZM12.667 3.4496L13.1492 3.31764L12.667 3.4496ZM12.4011 3.94813L12.1634 3.50825L12.4011 3.94813ZM1.08479 3.4496L0.602521 3.31764L1.08479 3.4496ZM1.35062 3.94813L1.58833 3.50825L1.35062 3.94813ZM4.94332 0.0078125C2.86945 0.0078125 1.12442 1.41028 0.602521 3.31764L1.56707 3.58156C1.97309 2.09769 3.33157 1.00781 4.94332 1.00781V0.0078125ZM8.80843 0.0078125H4.94332V1.00781H8.80843V0.0078125ZM13.1492 3.31764C12.6273 1.41028 10.8823 0.0078125 8.80843 0.0078125V1.00781C10.4202 1.00781 11.7787 2.09769 12.1847 3.58156L13.1492 3.31764ZM12.1221 5.25381C12.1221 4.88043 12.3301 4.55488 12.6388 4.38801L12.1634 3.50825C11.5444 3.84276 11.1221 4.49859 11.1221 5.25381H12.1221ZM12.6389 6.11961C12.3301 5.95275 12.1221 5.62719 12.1221 5.25381H11.1221C11.1221 6.00904 11.5444 6.66488 12.1634 6.99938L12.6389 6.11961ZM8.80843 10.4999C10.8823 10.4999 12.6274 9.09738 13.1493 7.18997L12.1847 6.92607C11.7787 8.40998 10.4202 9.49989 8.80843 9.49989V10.4999ZM4.94332 10.4999H8.80843V9.49989H4.94332V10.4999ZM0.602495 7.18997C1.12436 9.09737 2.86941 10.4999 4.94332 10.4999V9.49989C3.33154 9.49989 1.97304 8.40998 1.56705 6.92607L0.602495 7.18997ZM1.5883 6.99938C2.20732 6.66488 2.62965 6.00904 2.62965 5.25381H1.62965C1.62965 5.62719 1.42168 5.95275 1.1129 6.11961L1.5883 6.99938ZM2.62965 5.25381C2.62965 4.49859 2.20733 3.84276 1.58833 3.50825L1.11291 4.38801C1.42169 4.55488 1.62965 4.88043 1.62965 5.25381H2.62965ZM12.1634 6.99938C12.1727 7.00438 12.1806 7.01028 12.1864 7.01568C12.1923 7.02117 12.1932 7.02361 12.1916 7.02081C12.1898 7.0178 12.1843 7.00715 12.1813 6.98885C12.1782 6.96939 12.1789 6.94718 12.1847 6.92607L13.1493 7.18997C13.2911 6.67144 12.9312 6.27758 12.6389 6.11961L12.1634 6.99938ZM1.56705 6.92607C1.57282 6.94718 1.57358 6.96939 1.57042 6.98885C1.56744 7.00715 1.56193 7.01779 1.56019 7.02081C1.55856 7.02361 1.55949 7.02117 1.56534 7.01568C1.5711 7.01028 1.57905 7.00438 1.5883 6.99938L1.1129 6.11961C0.820563 6.27758 0.460628 6.67144 0.602495 7.18997L1.56705 6.92607ZM12.1847 3.58156C12.1789 3.56045 12.1781 3.53824 12.1813 3.51878C12.1843 3.50048 12.1898 3.48983 12.1915 3.48682C12.1932 3.48402 12.1922 3.48646 12.1864 3.49195C12.1806 3.49735 12.1727 3.50325 12.1634 3.50825L12.6388 4.38801C12.9312 4.23004 13.2911 3.83617 13.1492 3.31764L12.1847 3.58156ZM0.602521 3.31764C0.460641 3.83617 0.820574 4.23004 1.11291 4.38801L1.58833 3.50825C1.57907 3.50325 1.57112 3.49735 1.56536 3.49195C1.55952 3.48646 1.55858 3.48402 1.56021 3.48682C1.56195 3.48984 1.56747 3.50048 1.57044 3.51878C1.5736 3.53824 1.57284 3.56045 1.56707 3.58156L0.602521 3.31764Z" fill="#2D5D63"/>
<path d="M6.83629 2.93369C6.8563 2.9072 6.89609 2.9072 6.91609 2.93369L7.74576 4.03225C7.75174 4.04017 7.75995 4.04613 7.76933 4.04937L9.0705 4.49896C9.10187 4.5098 9.11417 4.54764 9.09516 4.57485L8.30675 5.70338C8.30106 5.71152 8.29793 5.72116 8.29774 5.73109L8.27225 7.1075C8.27163 7.14069 8.23944 7.16408 8.20769 7.1544L6.89076 6.75332C6.88127 6.75043 6.87112 6.75043 6.86163 6.75332L5.5447 7.1544C5.51295 7.16408 5.48076 7.14069 5.48014 7.1075L5.45464 5.73109C5.45446 5.72116 5.45133 5.71152 5.44564 5.70338L4.65723 4.57485C4.63822 4.54764 4.65052 4.5098 4.68189 4.49896L5.98306 4.04937C5.99244 4.04613 6.00065 4.04017 6.00663 4.03225L6.83629 2.93369Z" stroke="#D5B582"/>
</svg>
