<svg width="27" height="22" viewBox="0 0 27 22" fill="none" xmlns="http://www.w3.org/2000/svg">
<path d="M0.75 16.5636C0.75 15.6231 1.33342 14.7812 2.21405 14.451V14.451C6.42807 12.8707 11.0719 12.8707 15.2859 14.451V14.451C16.1666 14.7812 16.75 15.6231 16.75 16.5636V18.6776C16.75 19.9004 15.6625 20.8369 14.4533 20.6555L12.7552 20.4008C10.0999 20.0025 7.40008 20.0025 4.74481 20.4008L3.04668 20.6555C1.83747 20.8369 0.75 19.9004 0.75 18.6776V16.5636Z" stroke="#A0A0A0" stroke-width="1.5"/>
<circle cx="4.5" cy="4.5" r="4.5" transform="matrix(-1 0 0 1 13.75 1)" stroke="#A0A0A0" stroke-width="1.5"/>
<path d="M18.079 9.90772L18.079 9.90773C17.508 10.3637 16.6617 9.95817 16.6617 9.22736V3.53395C16.6617 2.07903 17.8426 0.9 19.2992 0.9H19.2995H23.7125C25.1691 0.9 26.35 2.07903 26.35 3.53395V6.17797C26.35 7.63289 25.1691 8.81191 23.7125 8.81191H19.6089C19.5065 8.81191 19.4069 8.84683 19.3266 8.9109L18.079 9.90772ZM17.5407 9.23549L17.5407 9.23543L18.7884 8.23856L18.7884 8.23855C19.0212 8.05257 19.3106 7.95121 19.6089 7.95121H23.7125C24.6933 7.95121 25.4881 7.15736 25.4881 6.17826V3.53395C25.4881 2.55485 24.6933 1.761 23.7125 1.761H19.2995C18.3187 1.761 17.5239 2.55485 17.5239 3.53395V6.17797V6.17826V9.22765C17.5239 9.23092 17.5247 9.23236 17.5252 9.23316C17.526 9.23432 17.5275 9.23575 17.5297 9.23681C17.5319 9.23787 17.5339 9.23812 17.5354 9.23798C17.5364 9.23789 17.5381 9.23758 17.5407 9.23549Z" fill="#E3E3E3" stroke="#E3E3E3" stroke-width="0.2"/>
<path d="M19.2333 5.42124C18.9326 5.37248 18.7283 5.08949 18.7772 4.78914C18.826 4.4888 19.1094 4.28485 19.4101 4.3336C19.7109 4.38235 19.9151 4.66535 19.8663 4.96569C19.8175 5.26604 19.5341 5.46999 19.2333 5.42124Z" fill="#A0A0A0"/>
<path d="M21.5279 5.42902C21.2232 5.42902 20.9762 5.18236 20.9762 4.87808C20.9762 4.57381 21.2232 4.32715 21.5279 4.32715C21.8326 4.32715 22.0796 4.57381 22.0796 4.87808C22.0796 5.18236 21.8326 5.42902 21.5279 5.42902Z" fill="#A0A0A0"/>
<path d="M23.261 5.42902C22.9563 5.42902 22.7093 5.18236 22.7093 4.87808C22.7093 4.57381 22.9563 4.32715 23.261 4.32715C23.5657 4.32715 23.8127 4.57381 23.8127 4.87808C23.8127 5.18236 23.5657 5.42902 23.261 5.42902Z" fill="#A0A0A0"/>
</svg>
