<svg width="37" height="52" viewBox="0 0 37 52" fill="none" xmlns="http://www.w3.org/2000/svg">
<path d="M18.0454 36.3835C18.0025 25.4934 17.9596 14.6034 17.9168 3.71329C17.9114 2.38279 17.7427 0.777328 16.5413 0.195261C15.572 -0.274135 14.429 0.192007 13.4568 0.655302C9.16342 2.70006 1.85453 4.06473 1.44399 9.56732C0.363102 22.5827 -0.111575 35.6477 0.0220043 48.707C0.0293573 49.418 0.0473313 50.164 0.401501 50.781C0.952567 51.7418 2.20503 52.1249 3.30471 51.9647C4.40439 51.8044 5.3852 51.2081 6.31127 50.5963C9.70264 48.3567 12.8379 45.7332 15.6369 42.7923C16.3992 41.9914 17.1512 41.145 17.5691 40.1228C18.0483 38.9513 18.0503 37.6481 18.0454 36.3831V36.3835ZM16.0564 37.1034C14.902 41.4696 11.0429 44.5064 7.41422 47.2138C5.71649 48.4804 3.79654 49.8129 1.68582 49.6006C1.77733 36.6971 2.11066 23.7956 2.68583 10.9047C2.7949 8.45565 3.21035 7.79345 5.2892 7.18657C7.55679 6.52438 9.672 5.85608 11.7419 4.65371C12.9171 3.97117 14.3983 3.18369 15.5291 3.93701C16.5144 4.59351 16.543 5.99844 16.4752 7.17681C16.0258 14.9975 15.9907 22.8422 16.371 30.6665C16.4756 32.8215 16.6079 35.0176 16.056 37.1039L16.0564 37.1034Z" fill="#2D5D63"/>
<path d="M9.72217 3.20996L9.59152 3.20555C9.32794 3.19666 9.10702 3.40222 9.09809 3.66468L9.06221 4.7196C9.05328 4.98206 9.25972 5.20203 9.5233 5.21092L9.65395 5.21533C9.91753 5.22422 10.1384 5.01866 10.1474 4.7562L10.1833 3.70128C10.1922 3.43882 9.98575 3.21885 9.72217 3.20996Z" fill="#DEBF97"/>
<path d="M32.4063 40.6409C32.1873 40.6633 31.9565 40.6543 31.76 40.7532C31.5019 40.8833 31.3638 41.1701 31.289 41.4487C31.2535 41.5817 31.2302 41.7318 31.3001 41.8506C31.3389 41.9161 31.4014 41.9637 31.4643 42.0064C31.9406 42.3298 32.5239 42.477 33.1003 42.4803C33.6767 42.4835 34.2474 42.3493 34.7874 42.1484C34.9569 42.0853 35.14 42.0003 35.2098 41.8339C35.3401 41.5232 35.0072 41.116 34.9749 40.8C34.9353 40.4135 34.9173 40.1105 34.4647 39.9673C33.7882 39.753 33.0864 40.5714 32.4059 40.6401L32.4063 40.6409Z" fill="#2D5D63"/>
<path d="M23.4157 41.5287C23.1972 41.5544 22.9664 41.5495 22.7715 41.6516C22.5154 41.7858 22.3822 42.075 22.3119 42.3548C22.2784 42.4887 22.2576 42.6392 22.3299 42.7567C22.3695 42.8218 22.4333 42.8682 22.497 42.9101C22.9782 43.2257 23.5644 43.3632 24.1408 43.3575C24.7172 43.3514 25.2854 43.2078 25.8222 42.9983C25.9905 42.9324 26.1723 42.8446 26.2393 42.677C26.3647 42.3642 26.0248 41.9627 25.9876 41.6471C25.9419 41.2615 25.9186 40.9589 25.4639 40.823C24.7838 40.6196 24.0959 41.4494 23.4161 41.5291L23.4157 41.5287Z" fill="#2D5D63"/>
<path d="M24.2902 40.2622C24.262 40.6352 24.2424 41.0359 24.4368 41.356C24.8302 42.0032 25.8858 41.8905 26.4029 41.3369C26.9201 40.7833 27.0516 39.9856 27.1807 39.2401C27.5226 37.2673 28.0141 35.3141 28.762 33.456C28.8878 33.1436 29.2306 32.7739 29.4875 32.9927C29.5717 33.0643 29.6035 33.1786 29.6313 33.2856C30.2829 35.7843 31.2192 38.2093 32.4169 40.499C32.5778 40.8065 32.7576 41.1266 33.057 41.3035C33.778 41.7294 34.7359 41.0127 34.881 40.1906C35.0256 39.3686 34.6444 38.5563 34.2992 37.7957C33.0411 35.0236 32.1362 32.0926 31.613 29.0952C31.5517 28.7429 31.4855 28.3687 31.2457 28.1027C30.9336 27.7565 30.4201 27.6911 29.9536 27.6703C29.3687 27.6447 28.782 27.654 28.1983 27.6988C27.7032 27.7366 27.1971 27.8037 26.7579 28.0344C25.1002 28.9048 25.3176 31.1241 25.1276 32.6799C24.8192 35.2075 24.4809 37.7216 24.2902 40.2622Z" fill="#DEBF97"/>
<path d="M24.5483 20.0277C24.6831 20.3816 24.833 20.7554 25.1406 20.9775C25.4482 21.1996 25.9637 21.1768 26.1308 20.8368C26.3644 21.252 26.5981 21.6678 26.8318 22.0831C26.8885 22.1835 26.9486 22.2885 27.0458 22.3511C27.1361 22.4093 27.2476 22.4239 27.3551 22.4325C27.8694 22.4735 28.3922 22.4093 28.8808 22.2449C28.8849 21.5482 28.65 20.8746 28.4184 20.2173C28.0238 19.0987 27.6112 17.9492 26.8179 17.0653C26.6708 16.9014 26.507 16.7448 26.3048 16.6565C26.1287 16.5796 25.9327 16.5585 25.7403 16.5552C23.3861 16.5154 24.0152 18.6289 24.5478 20.0269L24.5483 20.0277Z" fill="#E3C1B1"/>
<path d="M3.6001 14.0104C3.52739 13.6395 3.47387 13.2006 3.74226 12.9329C3.90933 12.7661 4.15893 12.7169 4.39422 12.6901C5.74718 12.5363 7.21001 12.8508 8.4155 12.2207C9.0066 11.9116 9.49149 11.3913 10.1349 11.214C10.5054 11.1119 10.9033 11.1326 11.2681 11.0122C11.9666 10.7816 12.485 10.0572 13.2211 10.047C14.1533 10.034 14.6562 11.1367 14.7701 12.058C14.8347 12.5819 14.862 13.1383 15.1557 13.578C15.3016 13.7965 15.5054 13.9722 15.6488 14.1922C16.1247 14.9224 15.7771 15.9653 15.092 16.5063C14.4074 17.0472 13.4907 17.1912 12.6173 17.223C12.1108 17.2413 11.5724 17.2368 11.1431 17.5053C10.6998 17.7827 10.4694 18.2911 10.1259 18.6848C9.35954 19.563 8.02579 19.8059 6.90527 19.4768C4.16219 18.6706 4.06824 16.4001 3.60051 14.0104H3.6001Z" fill="#4DB6A9"/>
<path d="M3.92794 25.5318C3.82704 25.7693 3.83276 26.028 3.8634 26.2761C4.03129 27.629 4.89282 28.9327 4.517 30.2717C4.40303 30.678 4.17794 31.1129 4.36177 31.4875C4.5652 31.9028 5.1657 32.0134 5.68204 31.9959C6.93736 31.954 8.18615 31.4456 9.06728 30.617C9.35323 30.3486 9.60323 30.0463 9.92881 29.8165C10.8475 29.1669 12.1159 29.2296 13.2458 28.9985C13.466 28.9534 13.6882 28.8944 13.8761 28.7785C14.0845 28.65 14.236 28.4608 14.3635 28.2664C14.9685 27.3418 15.1065 26.2342 14.9742 25.1942C14.9207 24.7724 14.8255 24.3587 14.7058 23.9503C14.3034 22.5763 12.5804 21.9226 11.1171 22.5742C10.1927 22.9859 9.28215 23.5106 8.35853 23.677C6.88344 23.943 4.61831 23.9096 3.92835 25.5314L3.92794 25.5318Z" fill="#4DB6A9"/>
<path d="M7.38322 35.1965C6.71002 35.8355 6.11197 36.6987 5.1904 36.8256C4.76923 36.8833 4.30681 36.778 3.93834 36.9895C3.42731 37.2832 3.39422 38.0231 3.60256 38.573C3.81048 39.1229 4.18998 39.6094 4.30559 40.1858C4.42446 40.7792 4.2488 41.4069 4.39832 41.9938C4.67324 43.0742 6.01557 43.6159 7.09973 43.3381C8.18348 43.0603 9.01191 42.1846 9.6169 41.247C9.7803 40.9936 9.94329 40.7223 10.2051 40.5714C10.8244 40.2143 11.5867 40.7007 12.302 40.6959C13.1561 40.6902 13.8637 39.9409 14.0843 39.1193C14.3053 38.2976 14.1439 37.4255 13.9364 36.6006C13.7509 35.8628 13.5169 35.1103 13.0197 34.5327C11.5842 32.8646 8.70023 33.9466 7.38322 35.1965Z" fill="#4DB6A9"/>
<path d="M16.4955 19.0111C16.4211 18.9541 16.3447 18.8943 16.3035 18.811C16.2651 18.7337 16.2614 18.6446 16.2581 18.5588L16.2369 17.9759C16.2344 17.9063 16.232 17.8347 16.2545 17.7688C16.3125 17.598 16.5139 17.5199 16.6948 17.5126C16.9885 17.5004 17.2773 17.6175 17.5114 17.7945C17.7455 17.9718 17.9297 18.2061 18.0911 18.4506C18.1887 18.5986 18.2794 18.7516 18.3619 18.9086C18.4469 19.0696 18.5241 19.2612 18.4493 19.4272C18.3656 19.6135 18.1307 19.6753 17.9256 19.6777C17.2974 19.6855 16.9771 19.3804 16.4951 19.0111H16.4955Z" fill="#E3C1B1"/>
<path d="M22.7503 18.1128C22.8418 18.1026 22.9284 18.0725 23.006 18.029C23.312 17.8573 23.6286 17.6596 23.9926 17.6194C24.2025 17.5962 24.4329 17.6421 24.5992 17.7512C24.7471 17.848 24.9431 17.8577 25.1074 17.7845L25.1106 17.7829C25.5477 18.4398 26.3717 18.8844 27.2352 18.9161C27.339 18.9198 27.444 18.9084 27.5416 18.8766C27.9611 18.7396 27.9469 18.3922 27.9162 18.0924C27.8786 17.7223 27.8415 17.3521 27.8039 16.982C27.7777 16.7225 27.7483 16.454 27.6008 16.2283C27.2663 15.7166 26.4791 15.6234 25.8116 15.6621C25.6237 15.673 25.4301 15.6913 25.2655 15.7719C25.051 15.8772 24.906 16.079 24.6772 16.1571C24.4509 16.2344 24.198 16.1738 23.9554 16.1794C23.5416 16.1892 23.1596 16.3991 22.8831 16.6716C22.6625 16.8888 21.7176 18.2279 22.7495 18.1128H22.7503Z" fill="black"/>
<path d="M34.6078 28.0736C34.5334 28.0166 34.457 27.9568 34.4158 27.8735C34.3774 27.7962 34.3737 27.7071 34.3704 27.6213L34.3492 27.0384C34.3467 26.9688 34.3443 26.8972 34.3668 26.8313C34.4248 26.6605 34.6262 26.5824 34.8071 26.5751C35.1008 26.5629 35.3896 26.68 35.6237 26.857C35.8578 27.0339 36.042 27.2686 36.2034 27.5131C36.301 27.6611 36.3917 27.8141 36.4742 27.9711C36.5592 28.1321 36.6364 28.3237 36.5616 28.4897C36.4779 28.676 36.243 28.7378 36.0379 28.7403C35.4097 28.748 35.0894 28.4429 34.6074 28.0736H34.6078Z" fill="#E3C1B1"/>
<path d="M18.4931 18.7528C19.074 18.7548 19.4943 19.275 19.8918 19.6969C21.3853 21.2812 23.7766 21.9629 25.8857 21.4052C26.7386 21.1799 27.5822 20.7654 28.4576 20.8773C29.1643 20.9676 29.7787 21.391 30.3441 21.823C31.9593 23.0562 33.4393 24.4648 34.7493 26.0158C35.01 26.3241 35.2734 26.6593 35.3331 27.0579C35.3927 27.4565 35.1635 27.9267 34.7628 27.9865C34.4135 28.0386 34.1031 27.7791 33.8465 27.5375C32.9348 26.6796 32.023 25.8218 31.1112 24.9635C31.0312 26.115 31.1272 27.2788 31.3935 28.4022C31.467 28.713 31.3388 29.0368 31.0741 29.217C30.3388 29.7177 29.57 30.1798 28.7064 30.3726C27.6647 30.6048 26.438 30.3494 25.8224 29.4805C25.5295 29.0673 25.402 28.5621 25.2983 28.0671C25.0683 26.9729 24.9233 25.8608 24.8649 24.7443C24.8595 24.641 22.5936 23.7925 22.3526 23.6696C21.467 23.2177 20.6148 22.7011 19.8048 22.1252C19.1965 21.6928 18.0503 21.0566 17.7075 20.3745C17.4106 19.7835 17.6896 18.7495 18.4935 18.752L18.4931 18.7528Z" fill="#2D5D63"/>
<path d="M25.2422 20.6445L25.5637 20.7742C25.6078 20.7921 25.654 20.81 25.7013 20.8056C25.7549 20.8003 25.8018 20.7665 25.839 20.7275C25.9493 20.6124 25.9959 20.4513 26.0281 20.2951C26.071 20.0864 26.127 19.8314 26.0906 19.6211C25.7679 19.7313 25.3799 20.3459 25.2422 20.6441V20.6445Z" fill="#C19C8E"/>
<path d="M21.5159 22.6267C21.7712 22.8158 22.0628 22.9501 22.3517 23.0827C22.8684 23.3202 23.3852 23.5578 23.9019 23.7953C23.7528 23.4638 23.3165 23.4113 22.9795 23.2726C22.5481 23.0953 22.2307 22.7284 21.8954 22.4054C21.3292 21.8604 20.6748 21.4166 20.024 20.9753C19.5861 20.6787 18.8945 20.1695 18.3369 20.3631C18.506 20.7402 19.1694 20.983 19.5224 21.1786C20.2752 21.5964 20.8328 22.1215 21.5159 22.6267Z" fill="#234C4F"/>
</svg>
